<?xml version="1.0" encoding="utf-8" standalone="no"?>
<!DOCTYPE svg PUBLIC "-//W3C//DTD SVG 1.1//EN"
  "http://www.w3.org/Graphics/SVG/1.1/DTD/svg11.dtd">
<svg xmlns:xlink="http://www.w3.org/1999/xlink" width="475.2pt" height="360pt" viewBox="0 0 475.2 360" xmlns="http://www.w3.org/2000/svg" version="1.1">
 <metadata>
  <rdf:RDF xmlns:dc="http://purl.org/dc/elements/1.1/" xmlns:cc="http://creativecommons.org/ns#" xmlns:rdf="http://www.w3.org/1999/02/22-rdf-syntax-ns#">
   <cc:Work>
    <dc:type rdf:resource="http://purl.org/dc/dcmitype/StillImage"/>
    <dc:date>2024-08-12T14:38:12.480039</dc:date>
    <dc:format>image/svg+xml</dc:format>
    <dc:creator>
     <cc:Agent>
      <dc:title>Matplotlib v3.8.4, https://matplotlib.org/</dc:title>
     </cc:Agent>
    </dc:creator>
   </cc:Work>
  </rdf:RDF>
 </metadata>
 <defs>
  <style type="text/css">*{stroke-linejoin: round; stroke-linecap: butt}</style>
 </defs>
 <g id="figure_1">
  <g id="patch_1">
   <path d="M 0 360 
L 475.2 360 
L 475.2 0 
L 0 0 
z
" style="fill: #ffffff"/>
  </g>
  <g id="axes_1">
   <g id="patch_2">
    <path d="M 298.678787 192.464761 
Q 244.536611 209.256144 191.462293 225.716346 
" clip-path="url(#p3a15d192ef)" style="fill: none; stroke: #000000; stroke-linecap: round"/>
    <path d="M 195.875209 226.441722 
L 191.462293 225.716346 
L 194.690344 222.621239 
z
" clip-path="url(#p3a15d192ef)" style="stroke: #000000; stroke-linecap: round"/>
   </g>
   <g id="patch_3">
    <path d="M 315.193762 187.25439 
Q 368.997727 169.99037 421.737118 153.06794 
" clip-path="url(#p3a15d192ef)" style="fill: none; stroke: #000000; stroke-linecap: round"/>
    <path d="M 417.317331 152.385677 
L 421.737118 153.06794 
L 418.539436 156.194412 
z
" clip-path="url(#p3a15d192ef)" style="stroke: #000000; stroke-linecap: round"/>
   </g>
   <g id="patch_4">
    <path d="M 183.690738 100.086314 
Q 185.019672 98.504174 185.629515 97.778135 
" clip-path="url(#p3a15d192ef)" style="fill: none; stroke: #000000; stroke-linecap: round"/>
    <path d="M 181.525379 99.554668 
L 185.629515 97.778135 
L 184.58826 102.127363 
z
" clip-path="url(#p3a15d192ef)" style="stroke: #000000; stroke-linecap: round"/>
   </g>
   <g id="patch_5">
    <path d="M 244.843351 120.67991 
Q 245.646143 114.695079 246.300296 109.818358 
" clip-path="url(#p3a15d192ef)" style="fill: none; stroke: #000000; stroke-linecap: round"/>
    <path d="M 243.786261 113.516956 
L 246.300296 109.818358 
L 247.750754 114.048744 
z
" clip-path="url(#p3a15d192ef)" style="stroke: #000000; stroke-linecap: round"/>
   </g>
   <g id="patch_6">
    <path d="M 261.996194 59.623736 
Q 257.874015 60.301096 254.855074 60.797172 
" clip-path="url(#p3a15d192ef)" style="fill: none; stroke: #000000; stroke-linecap: round"/>
    <path d="M 259.126433 62.122119 
L 254.855074 60.797172 
L 258.477848 58.175053 
z
" clip-path="url(#p3a15d192ef)" style="stroke: #000000; stroke-linecap: round"/>
   </g>
   <g id="patch_7">
    <path d="M 212.400645 78.901213 
Q 223.244856 78.259055 232.972989 77.682989 
" clip-path="url(#p3a15d192ef)" style="fill: none; stroke: #000000; stroke-linecap: round"/>
    <path d="M 228.861757 75.922938 
L 232.972989 77.682989 
L 229.098209 79.915943 
z
" clip-path="url(#p3a15d192ef)" style="stroke: #000000; stroke-linecap: round"/>
   </g>
   <g id="patch_8">
    <path d="M 211.864483 76.367558 
Q 217.802593 74.137517 222.694044 72.300546 
" clip-path="url(#p3a15d192ef)" style="fill: none; stroke: #000000; stroke-linecap: round"/>
    <path d="M 218.246256 71.834515 
L 222.694044 72.300546 
L 219.652547 75.579157 
z
" clip-path="url(#p3a15d192ef)" style="stroke: #000000; stroke-linecap: round"/>
   </g>
   <g id="patch_9">
    <path d="M 207.131256 87.388426 
Q 216.076305 108.515485 224.585448 128.612989 
" clip-path="url(#p3a15d192ef)" style="fill: none; stroke: #000000; stroke-linecap: round"/>
    <path d="M 224.867626 124.149764 
L 224.585448 128.612989 
L 221.184175 125.709311 
z
" clip-path="url(#p3a15d192ef)" style="stroke: #000000; stroke-linecap: round"/>
   </g>
   <g id="patch_10">
    <path d="M 210.746957 74.302823 
Q 232.642462 58.300446 253.635311 42.957775 
" clip-path="url(#p3a15d192ef)" style="fill: none; stroke: #000000; stroke-linecap: round"/>
    <path d="M 249.225754 43.703298 
L 253.635311 42.957775 
L 251.585995 46.932735 
z
" clip-path="url(#p3a15d192ef)" style="stroke: #000000; stroke-linecap: round"/>
   </g>
   <g id="patch_11">
    <path d="M 195.157489 78.390921 
Q 157.496839 73.912699 120.946402 69.566493 
" clip-path="url(#p3a15d192ef)" style="fill: none; stroke: #000000; stroke-linecap: round"/>
    <path d="M 124.682263 72.024814 
L 120.946402 69.566493 
L 125.154575 68.052797 
z
" clip-path="url(#p3a15d192ef)" style="stroke: #000000; stroke-linecap: round"/>
   </g>
   <g id="patch_12">
    <path d="M 245.230161 45.760404 
Q 249.545096 43.491236 252.870487 41.742456 
" clip-path="url(#p3a15d192ef)" style="fill: none; stroke: #000000; stroke-linecap: round"/>
    <path d="M 248.39929 41.834104 
L 252.870487 41.742456 
L 250.261087 45.374402 
z
" clip-path="url(#p3a15d192ef)" style="stroke: #000000; stroke-linecap: round"/>
   </g>
   <g id="patch_13">
    <path d="M 134.811529 284.04451 
Q 125.157599 299.739721 116.089423 314.482622 
" clip-path="url(#p3a15d192ef)" style="fill: none; stroke: #000000; stroke-linecap: round"/>
    <path d="M 119.888621 312.123365 
L 116.089423 314.482622 
L 116.481536 310.027709 
z
" clip-path="url(#p3a15d192ef)" style="stroke: #000000; stroke-linecap: round"/>
   </g>
   <g id="patch_14">
    <path d="M 187.32364 221.686654 
Q 217.692148 181.23328 247.389433 141.674031 
" clip-path="url(#p3a15d192ef)" style="fill: none; stroke: #000000; stroke-linecap: round"/>
    <path d="M 243.388533 143.67223 
L 247.389433 141.674031 
L 246.587452 146.073671 
z
" clip-path="url(#p3a15d192ef)" style="stroke: #000000; stroke-linecap: round"/>
   </g>
   <g id="patch_15">
    <path d="M 176.9063 235.520179 
Q 146.547806 275.708675 116.863214 315.005063 
" clip-path="url(#p3a15d192ef)" style="fill: none; stroke: #000000; stroke-linecap: round"/>
    <path d="M 120.870087 313.018869 
L 116.863214 315.005063 
L 117.678383 310.607848 
z
" clip-path="url(#p3a15d192ef)" style="stroke: #000000; stroke-linecap: round"/>
   </g>
   <g id="patch_16">
    <path d="M 246.74237 139.557088 
Q 245.594409 140.561435 245.287897 140.829601 
" clip-path="url(#p3a15d192ef)" style="fill: none; stroke: #000000; stroke-linecap: round"/>
    <path d="M 249.615279 139.700989 
L 245.287897 140.829601 
L 246.981437 136.690529 
z
" clip-path="url(#p3a15d192ef)" style="stroke: #000000; stroke-linecap: round"/>
   </g>
   <g id="patch_17">
    <path d="M 256.501574 125.830909 
Q 259.393252 118.675852 261.866 112.557377 
" clip-path="url(#p3a15d192ef)" style="fill: none; stroke: #000000; stroke-linecap: round"/>
    <path d="M 258.512905 115.516558 
L 261.866 112.557377 
L 262.221488 117.015361 
z
" clip-path="url(#p3a15d192ef)" style="stroke: #000000; stroke-linecap: round"/>
   </g>
   <g id="patch_18">
    <path d="M 247.591712 127.310026 
Q 247.062201 126.698266 247.264388 126.931858 
" clip-path="url(#p3a15d192ef)" style="fill: none; stroke: #000000; stroke-linecap: round"/>
    <path d="M 248.369976 131.265179 
L 247.264388 126.931858 
L 251.394398 128.64738 
z
" clip-path="url(#p3a15d192ef)" style="stroke: #000000; stroke-linecap: round"/>
   </g>
   <g id="patch_19">
    <path d="M 247.656239 69.982483 
Q 250.824959 65.395948 253.358175 61.729269 
" clip-path="url(#p3a15d192ef)" style="fill: none; stroke: #000000; stroke-linecap: round"/>
    <path d="M 249.439037 63.883418 
L 253.358175 61.729269 
L 252.730011 66.157069 
z
" clip-path="url(#p3a15d192ef)" style="stroke: #000000; stroke-linecap: round"/>
   </g>
   <g id="patch_20">
    <path d="M 238.188102 69.737174 
Q 233.237895 61.716927 228.874909 54.648086 
" clip-path="url(#p3a15d192ef)" style="fill: none; stroke: #000000; stroke-linecap: round"/>
    <path d="M 229.273888 59.10239 
L 228.874909 54.648086 
L 232.677739 57.001486 
z
" clip-path="url(#p3a15d192ef)" style="stroke: #000000; stroke-linecap: round"/>
   </g>
   <g id="patch_21">
    <path d="M 244.862813 68.711928 
Q 246.319726 62.963782 247.501951 58.2994 
" clip-path="url(#p3a15d192ef)" style="fill: none; stroke: #000000; stroke-linecap: round"/>
    <path d="M 244.580497 61.685417 
L 247.501951 58.2994 
L 248.457892 62.668173 
z
" clip-path="url(#p3a15d192ef)" style="stroke: #000000; stroke-linecap: round"/>
   </g>
   <g id="patch_22">
    <path d="M 248.398233 83.659022 
Q 254.133894 90.29763 259.138616 96.090231 
" clip-path="url(#p3a15d192ef)" style="fill: none; stroke: #000000; stroke-linecap: round"/>
    <path d="M 258.036916 91.755919 
L 259.138616 96.090231 
L 255.010147 94.371004 
z
" clip-path="url(#p3a15d192ef)" style="stroke: #000000; stroke-linecap: round"/>
   </g>
   <g id="patch_23">
    <path d="M 249.070076 71.198071 
Q 250.898234 69.493352 251.908699 68.551115 
" clip-path="url(#p3a15d192ef)" style="fill: none; stroke: #000000; stroke-linecap: round"/>
    <path d="M 247.619263 69.816318 
L 251.908699 68.551115 
L 250.3472 72.741786 
z
" clip-path="url(#p3a15d192ef)" style="stroke: #000000; stroke-linecap: round"/>
   </g>
   <g id="patch_24">
    <path d="M 239.397185 64.62892 
Q 245.381841 61.272781 250.391335 58.463503 
" clip-path="url(#p3a15d192ef)" style="fill: none; stroke: #000000; stroke-linecap: round"/>
    <path d="M 245.924231 58.675593 
L 250.391335 58.463503 
L 247.880744 62.16444 
z
" clip-path="url(#p3a15d192ef)" style="stroke: #000000; stroke-linecap: round"/>
   </g>
   <g id="patch_25">
    <path d="M 228.913654 60.712055 
Q 227.792384 57.595083 227.049563 55.530145 
" clip-path="url(#p3a15d192ef)" style="fill: none; stroke: #000000; stroke-linecap: round"/>
    <path d="M 226.521607 59.971008 
L 227.049563 55.530145 
L 230.285479 58.617028 
z
" clip-path="url(#p3a15d192ef)" style="stroke: #000000; stroke-linecap: round"/>
   </g>
   <g id="patch_26">
    <path d="M 239.637139 65.083775 
Q 242.420621 63.733402 244.198195 62.871033 
" clip-path="url(#p3a15d192ef)" style="fill: none; stroke: #000000; stroke-linecap: round"/>
    <path d="M 239.726379 62.817547 
L 244.198195 62.871033 
L 241.472317 66.416394 
z
" clip-path="url(#p3a15d192ef)" style="stroke: #000000; stroke-linecap: round"/>
   </g>
   <g id="patch_27">
    <path d="M 237.641226 62.431842 
Q 240.87308 58.845036 243.356532 56.088829 
" clip-path="url(#p3a15d192ef)" style="fill: none; stroke: #000000; stroke-linecap: round"/>
    <path d="M 239.193147 57.721687 
L 243.356532 56.088829 
L 242.164787 60.399252 
z
" clip-path="url(#p3a15d192ef)" style="stroke: #000000; stroke-linecap: round"/>
   </g>
   <g id="patch_28">
    <path d="M 240.705893 107.804168 
Q 240.726931 109.341371 240.732669 109.760644 
" clip-path="url(#p3a15d192ef)" style="fill: none; stroke: #000000; stroke-linecap: round"/>
    <path d="M 242.677743 105.733649 
L 240.732669 109.760644 
L 238.678117 105.788388 
z
" clip-path="url(#p3a15d192ef)" style="stroke: #000000; stroke-linecap: round"/>
   </g>
   <g id="patch_29">
    <path d="M 243.712528 91.072638 
Q 246.656448 83.468102 249.196737 76.906199 
" clip-path="url(#p3a15d192ef)" style="fill: none; stroke: #000000; stroke-linecap: round"/>
    <path d="M 245.887546 79.914397 
L 249.196737 76.906199 
L 249.61778 81.358471 
z
" clip-path="url(#p3a15d192ef)" style="stroke: #000000; stroke-linecap: round"/>
   </g>
   <g id="patch_30">
    <path d="M 240.587386 99.145294 
Q 244.093795 99.636405 246.492978 99.972437 
" clip-path="url(#p3a15d192ef)" style="fill: none; stroke: #000000; stroke-linecap: round"/>
    <path d="M 242.809058 97.436941 
L 246.492978 99.972437 
L 242.25423 101.398275 
z
" clip-path="url(#p3a15d192ef)" style="stroke: #000000; stroke-linecap: round"/>
   </g>
   <g id="patch_31">
    <path d="M 238.841444 138.653881 
Q 239.397893 133.401819 239.836547 129.261569 
" clip-path="url(#p3a15d192ef)" style="fill: none; stroke: #000000; stroke-linecap: round"/>
    <path d="M 237.426243 133.028588 
L 239.836547 129.261569 
L 241.40398 133.450024 
z
" clip-path="url(#p3a15d192ef)" style="stroke: #000000; stroke-linecap: round"/>
   </g>
   <g id="patch_32">
    <path d="M 233.315338 130.486952 
Q 234.632553 128.577418 235.314927 127.588197 
" clip-path="url(#p3a15d192ef)" style="fill: none; stroke: #000000; stroke-linecap: round"/>
    <path d="M 231.397344 129.745172 
L 235.314927 127.588197 
L 234.689957 132.016449 
z
" clip-path="url(#p3a15d192ef)" style="stroke: #000000; stroke-linecap: round"/>
   </g>
   <g id="patch_33">
    <path d="M 251.602318 58.323483 
Q 248.403211 60.353256 246.14815 61.784049 
" clip-path="url(#p3a15d192ef)" style="fill: none; stroke: #000000; stroke-linecap: round"/>
    <path d="M 250.59716 61.329837 
L 246.14815 61.784049 
L 248.454186 57.952314 
z
" clip-path="url(#p3a15d192ef)" style="stroke: #000000; stroke-linecap: round"/>
   </g>
   <g id="patch_34">
    <path d="M 251.297027 49.573262 
Q 250.600518 49.197756 250.888133 49.352816 
" clip-path="url(#p3a15d192ef)" style="fill: none; stroke: #000000; stroke-linecap: round"/>
    <path d="M 253.459933 53.011483 
L 250.888133 49.352816 
L 255.358146 49.490575 
z
" clip-path="url(#p3a15d192ef)" style="stroke: #000000; stroke-linecap: round"/>
   </g>
   <g id="patch_35">
    <path d="M 232.359363 47.148816 
Q 236.820483 47.574324 240.168621 47.893674 
" clip-path="url(#p3a15d192ef)" style="fill: none; stroke: #000000; stroke-linecap: round"/>
    <path d="M 236.376594 45.522908 
L 240.168621 47.893674 
L 235.996792 49.504836 
z
" clip-path="url(#p3a15d192ef)" style="stroke: #000000; stroke-linecap: round"/>
   </g>
   <g id="patch_36">
    <path d="M 236.842836 60.130496 
Q 236.300945 59.98451 236.838599 60.129354 
" clip-path="url(#p3a15d192ef)" style="fill: none; stroke: #000000; stroke-linecap: round"/>
    <path d="M 240.180644 63.10101 
L 236.838599 60.129354 
L 241.22115 59.238712 
z
" clip-path="url(#p3a15d192ef)" style="stroke: #000000; stroke-linecap: round"/>
   </g>
   <g id="patch_37">
    <path d="M 249.912491 55.116069 
Q 253.365525 49.786633 256.210617 45.395497 
" clip-path="url(#p3a15d192ef)" style="fill: none; stroke: #000000; stroke-linecap: round"/>
    <path d="M 252.357099 47.664945 
L 256.210617 45.395497 
L 255.714064 49.839981 
z
" clip-path="url(#p3a15d192ef)" style="stroke: #000000; stroke-linecap: round"/>
   </g>
   <g id="patch_38">
    <path d="M 247.06869 57.003081 
Q 246.136396 59.693055 245.570227 61.326641 
" clip-path="url(#p3a15d192ef)" style="fill: none; stroke: #000000; stroke-linecap: round"/>
    <path d="M 248.769832 58.202138 
L 245.570227 61.326641 
L 244.990387 56.892255 
z
" clip-path="url(#p3a15d192ef)" style="stroke: #000000; stroke-linecap: round"/>
   </g>
   <g id="patch_39">
    <path d="M 256.024833 42.696619 
Q 258.77594 39.943351 260.736788 37.980962 
" clip-path="url(#p3a15d192ef)" style="fill: none; stroke: #000000; stroke-linecap: round"/>
    <path d="M 256.494703 39.396841 
L 260.736788 37.980962 
L 259.32424 42.224158 
z
" clip-path="url(#p3a15d192ef)" style="stroke: #000000; stroke-linecap: round"/>
   </g>
   <g id="patch_40">
    <path d="M 200.303015 88.114513 
Q 217.327569 83.697288 233.269922 79.560854 
" clip-path="url(#p3a15d192ef)" style="fill: none; stroke: #000000; stroke-linecap: round"/>
    <path d="M 228.895833 78.629539 
L 233.269922 79.560854 
L 229.900418 82.501336 
z
" clip-path="url(#p3a15d192ef)" style="stroke: #000000; stroke-linecap: round"/>
   </g>
   <g id="patch_41">
    <path d="M 199.54948 86.195158 
Q 211.883422 79.576271 223.23222 73.486052 
" clip-path="url(#p3a15d192ef)" style="fill: none; stroke: #000000; stroke-linecap: round"/>
    <path d="M 218.761949 73.615192 
L 223.23222 73.486052 
L 220.65337 77.139753 
z
" clip-path="url(#p3a15d192ef)" style="stroke: #000000; stroke-linecap: round"/>
   </g>
   <g id="patch_42">
    <path d="M 197.207265 97.150118 
Q 210.159056 113.95383 222.428313 129.87202 
" clip-path="url(#p3a15d192ef)" style="fill: none; stroke: #000000; stroke-linecap: round"/>
    <path d="M 221.570478 125.482929 
L 222.428313 129.87202 
L 218.402339 127.924834 
z
" clip-path="url(#p3a15d192ef)" style="stroke: #000000; stroke-linecap: round"/>
   </g>
   <g id="patch_43">
    <path d="M 183.560397 88.023051 
Q 151.577664 79.350532 120.673998 70.970615 
" clip-path="url(#p3a15d192ef)" style="fill: none; stroke: #000000; stroke-linecap: round"/>
    <path d="M 124.011159 73.947753 
L 120.673998 70.970615 
L 125.058005 70.087168 
z
" clip-path="url(#p3a15d192ef)" style="stroke: #000000; stroke-linecap: round"/>
   </g>
   <g id="patch_44">
    <path d="M 260.017639 96.813457 
Q 258.65744 95.166548 258.009205 94.381676 
" clip-path="url(#p3a15d192ef)" style="fill: none; stroke: #000000; stroke-linecap: round"/>
    <path d="M 259.01435 98.739391 
L 258.009205 94.381676 
L 262.098464 96.192188 
z
" clip-path="url(#p3a15d192ef)" style="stroke: #000000; stroke-linecap: round"/>
   </g>
   <g id="patch_45">
    <path d="M 243.704823 111.357585 
Q 244.233115 109.834562 244.39501 109.367831 
" clip-path="url(#p3a15d192ef)" style="fill: none; stroke: #000000; stroke-linecap: round"/>
    <path d="M 241.194596 112.491507 
L 244.39501 109.367831 
L 244.973703 113.802368 
z
" clip-path="url(#p3a15d192ef)" style="stroke: #000000; stroke-linecap: round"/>
   </g>
   <g id="patch_46">
    <path d="M 245.952406 93.24893 
Q 243.269896 96.197112 241.339817 98.318343 
" clip-path="url(#p3a15d192ef)" style="fill: none; stroke: #000000; stroke-linecap: round"/>
    <path d="M 245.511091 96.705744 
L 241.339817 98.318343 
L 242.552502 94.013764 
z
" clip-path="url(#p3a15d192ef)" style="stroke: #000000; stroke-linecap: round"/>
   </g>
   <g id="patch_47">
    <path d="M 252.210645 78.194449 
Q 252.254149 77.316712 252.242307 77.555639 
" clip-path="url(#p3a15d192ef)" style="fill: none; stroke: #000000; stroke-linecap: round"/>
    <path d="M 250.046749 81.45173 
L 252.242307 77.555639 
L 254.041845 81.64974 
z
" clip-path="url(#p3a15d192ef)" style="stroke: #000000; stroke-linecap: round"/>
   </g>
   <g id="patch_48">
    <path d="M 242.260817 54.123884 
Q 248.64252 48.514769 254.184458 43.643755 
" clip-path="url(#p3a15d192ef)" style="fill: none; stroke: #000000; stroke-linecap: round"/>
    <path d="M 249.859665 44.782248 
L 254.184458 43.643755 
L 252.500376 47.786685 
z
" clip-path="url(#p3a15d192ef)" style="stroke: #000000; stroke-linecap: round"/>
   </g>
   <g id="patch_49">
    <path d="M 245.692611 62.734076 
Q 245.448357 62.558552 246.112023 63.035471 
" clip-path="url(#p3a15d192ef)" style="fill: none; stroke: #000000; stroke-linecap: round"/>
    <path d="M 248.193174 66.993856 
L 246.112023 63.035471 
L 250.527422 63.745581 
z
" clip-path="url(#p3a15d192ef)" style="stroke: #000000; stroke-linecap: round"/>
   </g>
   <g id="patch_50">
    <path d="M 251.452323 59.226904 
Q 251.315674 58.308622 251.343587 58.496197 
" clip-path="url(#p3a15d192ef)" style="fill: none; stroke: #000000; stroke-linecap: round"/>
    <path d="M 249.954126 62.747008 
L 251.343587 58.496197 
L 253.910559 62.158252 
z
" clip-path="url(#p3a15d192ef)" style="stroke: #000000; stroke-linecap: round"/>
   </g>
   <g id="patch_51">
    <path d="M 248.956216 91.573029 
Q 250.16316 83.958945 251.195065 77.449107 
" clip-path="url(#p3a15d192ef)" style="fill: none; stroke: #000000; stroke-linecap: round"/>
    <path d="M 248.593488 81.086661 
L 251.195065 77.449107 
L 252.544162 81.712901 
z
" clip-path="url(#p3a15d192ef)" style="stroke: #000000; stroke-linecap: round"/>
   </g>
   <g id="PathCollection_1">
    <defs>
     <path id="mfac8c802cc" d="M 0 8.660254 
C 2.296726 8.660254 4.499694 7.747755 6.123724 6.123724 
C 7.747755 4.499694 8.660254 2.296726 8.660254 0 
C 8.660254 -2.296726 7.747755 -4.499694 6.123724 -6.123724 
C 4.499694 -7.747755 2.296726 -8.660254 0 -8.660254 
C -2.296726 -8.660254 -4.499694 -7.747755 -6.123724 -6.123724 
C -7.747755 -4.499694 -8.660254 -2.296726 -8.660254 0 
C -8.660254 2.296726 -7.747755 4.499694 -6.123724 6.123724 
C -4.499694 7.747755 -2.296726 8.660254 0 8.660254 
z
" style="stroke: #1f78b4"/>
    </defs>
    <g clip-path="url(#p3a15d192ef)">
     <use xlink:href="#mfac8c802cc" x="306.948857" y="189.899923" style="fill: #1f78b4; stroke: #1f78b4"/>
     <use xlink:href="#mfac8c802cc" x="178.120124" y="106.718317" style="fill: #1f78b4; stroke: #1f78b4"/>
     <use xlink:href="#mfac8c802cc" x="243.692237" y="129.261486" style="fill: #1f78b4; stroke: #1f78b4"/>
     <use xlink:href="#mfac8c802cc" x="270.542252" y="58.21944" style="fill: #1f78b4; stroke: #1f78b4"/>
     <use xlink:href="#mfac8c802cc" x="203.754601" y="79.413202" style="fill: #1f78b4; stroke: #1f78b4"/>
     <use xlink:href="#mfac8c802cc" x="237.56293" y="49.792502" style="fill: #1f78b4; stroke: #1f78b4"/>
     <use xlink:href="#mfac8c802cc" x="139.348235" y="276.668803" style="fill: #1f78b4; stroke: #1f78b4"/>
     <use xlink:href="#mfac8c802cc" x="63.431074" y="261.054803" style="fill: #1f78b4; stroke: #1f78b4"/>
     <use xlink:href="#mfac8c802cc" x="373.266532" y="94.979857" style="fill: #1f78b4; stroke: #1f78b4"/>
     <use xlink:href="#mfac8c802cc" x="388.613043" y="294.031953" style="fill: #1f78b4; stroke: #1f78b4"/>
     <use xlink:href="#mfac8c802cc" x="28.145455" y="192.064755" style="fill: #1f78b4; stroke: #1f78b4"/>
     <use xlink:href="#mfac8c802cc" x="182.124517" y="228.612317" style="fill: #1f78b4; stroke: #1f78b4"/>
     <use xlink:href="#mfac8c802cc" x="431.050396" y="150.079599" style="fill: #1f78b4; stroke: #1f78b4"/>
     <use xlink:href="#mfac8c802cc" x="253.258063" y="133.856529" style="fill: #1f78b4; stroke: #1f78b4"/>
     <use xlink:href="#mfac8c802cc" x="242.735553" y="77.104883" style="fill: #1f78b4; stroke: #1f78b4"/>
     <use xlink:href="#mfac8c802cc" x="231.845998" y="68.863554" style="fill: #1f78b4; stroke: #1f78b4"/>
     <use xlink:href="#mfac8c802cc" x="240.587386" y="99.145294" style="fill: #1f78b4; stroke: #1f78b4"/>
     <use xlink:href="#mfac8c802cc" x="237.928782" y="147.268067" style="fill: #1f78b4; stroke: #1f78b4"/>
     <use xlink:href="#mfac8c802cc" x="228.397408" y="137.61635" style="fill: #1f78b4; stroke: #1f78b4"/>
     <use xlink:href="#mfac8c802cc" x="258.917912" y="53.681879" style="fill: #1f78b4; stroke: #1f78b4"/>
     <use xlink:href="#mfac8c802cc" x="223.738755" y="46.32657" style="fill: #1f78b4; stroke: #1f78b4"/>
     <use xlink:href="#mfac8c802cc" x="245.204103" y="62.383028" style="fill: #1f78b4; stroke: #1f78b4"/>
     <use xlink:href="#mfac8c802cc" x="249.904009" y="48.822249" style="fill: #1f78b4; stroke: #1f78b4"/>
     <use xlink:href="#mfac8c802cc" x="191.919479" y="90.289721" style="fill: #1f78b4; stroke: #1f78b4"/>
     <use xlink:href="#mfac8c802cc" x="110.967406" y="322.809917" style="fill: #1f78b4; stroke: #1f78b4"/>
     <use xlink:href="#mfac8c802cc" x="265.53097" y="103.488915" style="fill: #1f78b4; stroke: #1f78b4"/>
     <use xlink:href="#mfac8c802cc" x="240.866513" y="119.540203" style="fill: #1f78b4; stroke: #1f78b4"/>
     <use xlink:href="#mfac8c802cc" x="251.782048" y="86.841929" style="fill: #1f78b4; stroke: #1f78b4"/>
     <use xlink:href="#mfac8c802cc" x="235.759054" y="59.838524" style="fill: #1f78b4; stroke: #1f78b4"/>
     <use xlink:href="#mfac8c802cc" x="261.527047" y="37.190083" style="fill: #1f78b4; stroke: #1f78b4"/>
     <use xlink:href="#mfac8c802cc" x="111.238943" y="68.412181" style="fill: #1f78b4; stroke: #1f78b4"/>
     <use xlink:href="#mfac8c802cc" x="252.726391" y="67.788633" style="fill: #1f78b4; stroke: #1f78b4"/>
     <use xlink:href="#mfac8c802cc" x="247.600204" y="100.127516" style="fill: #1f78b4; stroke: #1f78b4"/>
    </g>
   </g>
  </g>
 </g>
 <defs>
  <clipPath id="p3a15d192ef">
   <rect x="7.2" y="7.2" width="460.8" height="345.6"/>
  </clipPath>
 </defs>
</svg>
