<?xml version="1.0" encoding="utf-8" standalone="no"?>
<!DOCTYPE svg PUBLIC "-//W3C//DTD SVG 1.1//EN"
  "http://www.w3.org/Graphics/SVG/1.1/DTD/svg11.dtd">
<svg xmlns:xlink="http://www.w3.org/1999/xlink" width="475.2pt" height="360pt" viewBox="0 0 475.2 360" xmlns="http://www.w3.org/2000/svg" version="1.1">
 <metadata>
  <rdf:RDF xmlns:dc="http://purl.org/dc/elements/1.1/" xmlns:cc="http://creativecommons.org/ns#" xmlns:rdf="http://www.w3.org/1999/02/22-rdf-syntax-ns#">
   <cc:Work>
    <dc:type rdf:resource="http://purl.org/dc/dcmitype/StillImage"/>
    <dc:date>2024-07-25T19:52:48.592761</dc:date>
    <dc:format>image/svg+xml</dc:format>
    <dc:creator>
     <cc:Agent>
      <dc:title>Matplotlib v3.8.4, https://matplotlib.org/</dc:title>
     </cc:Agent>
    </dc:creator>
   </cc:Work>
  </rdf:RDF>
 </metadata>
 <defs>
  <style type="text/css">*{stroke-linejoin: round; stroke-linecap: butt}</style>
 </defs>
 <g id="figure_1">
  <g id="patch_1">
   <path d="M 0 360 
L 475.2 360 
L 475.2 0 
L 0 0 
z
" style="fill: #ffffff"/>
  </g>
  <g id="axes_1">
   <g id="patch_2">
    <path d="M 217.670448 152.41141 
Q 217.381262 169.823986 217.110642 186.118682 
" clip-path="url(#pa32c52fd06)" style="fill: none; stroke: #000000; stroke-linecap: round"/>
    <path d="M 219.176789 182.152444 
L 217.110642 186.118682 
L 215.17734 182.086022 
z
" clip-path="url(#pa32c52fd06)" style="stroke: #000000; stroke-linecap: round"/>
   </g>
   <g id="patch_3">
    <path d="M 218.998944 135.172865 
Q 221.528283 116.857584 223.904674 99.649826 
" clip-path="url(#pa32c52fd06)" style="fill: none; stroke: #000000; stroke-linecap: round"/>
    <path d="M 221.37627 103.338617 
L 223.904674 99.649826 
L 225.338664 103.885823 
z
" clip-path="url(#pa32c52fd06)" style="stroke: #000000; stroke-linecap: round"/>
   </g>
   <g id="patch_4">
    <path d="M 181.881379 108.527128 
Q 184.278925 105.006242 186.047189 102.40948 
" clip-path="url(#pa32c52fd06)" style="fill: none; stroke: #000000; stroke-linecap: round"/>
    <path d="M 182.14268 104.590032 
L 186.047189 102.40948 
L 185.448925 106.841419 
z
" clip-path="url(#pa32c52fd06)" style="stroke: #000000; stroke-linecap: round"/>
   </g>
   <g id="patch_5">
    <path d="M 239.163748 119.107973 
Q 238.127057 114.510572 237.336302 111.00382 
" clip-path="url(#pa32c52fd06)" style="fill: none; stroke: #000000; stroke-linecap: round"/>
    <path d="M 236.265177 115.345789 
L 237.336302 111.00382 
L 240.167202 114.465902 
z
" clip-path="url(#pa32c52fd06)" style="stroke: #000000; stroke-linecap: round"/>
   </g>
   <g id="patch_6">
    <path d="M 262.863842 49.618218 
Q 261.269742 47.11168 260.275628 45.548551 
" clip-path="url(#pa32c52fd06)" style="fill: none; stroke: #000000; stroke-linecap: round"/>
    <path d="M 260.734582 49.997074 
L 260.275628 45.548551 
L 264.109819 47.850501 
z
" clip-path="url(#pa32c52fd06)" style="stroke: #000000; stroke-linecap: round"/>
   </g>
   <g id="patch_7">
    <path d="M 215.023495 81.678772 
Q 232.472204 79.837233 248.809054 78.113041 
" clip-path="url(#pa32c52fd06)" style="fill: none; stroke: #000000; stroke-linecap: round"/>
    <path d="M 244.621233 76.543916 
L 248.809054 78.113041 
L 245.041062 80.521823 
z
" clip-path="url(#pa32c52fd06)" style="stroke: #000000; stroke-linecap: round"/>
   </g>
   <g id="patch_8">
    <path d="M 214.94217 81.104912 
Q 228.558023 78.738207 241.072359 76.562967 
" clip-path="url(#pa32c52fd06)" style="fill: none; stroke: #000000; stroke-linecap: round"/>
    <path d="M 236.788946 75.277521 
L 241.072359 76.562967 
L 237.473954 79.21843 
z
" clip-path="url(#pa32c52fd06)" style="stroke: #000000; stroke-linecap: round"/>
   </g>
   <g id="patch_9">
    <path d="M 208.416419 91.012426 
Q 214.303074 115.753764 219.930942 139.40743 
" clip-path="url(#pa32c52fd06)" style="fill: none; stroke: #000000; stroke-linecap: round"/>
    <path d="M 220.950762 135.053126 
L 219.930942 139.40743 
L 217.05939 135.978992 
z
" clip-path="url(#pa32c52fd06)" style="stroke: #000000; stroke-linecap: round"/>
   </g>
   <g id="patch_10">
    <path d="M 213.883557 78.213856 
Q 245.187282 59.889119 275.526136 42.129204 
" clip-path="url(#pa32c52fd06)" style="fill: none; stroke: #000000; stroke-linecap: round"/>
    <path d="M 271.063724 42.423956 
L 275.526136 42.129204 
L 273.08449 45.875985 
z
" clip-path="url(#pa32c52fd06)" style="stroke: #000000; stroke-linecap: round"/>
   </g>
   <g id="patch_11">
    <path d="M 197.766319 82.030509 
Q 148.851184 78.878389 101.05177 75.798166 
" clip-path="url(#pa32c52fd06)" style="fill: none; stroke: #000000; stroke-linecap: round"/>
    <path d="M 104.914876 78.051255 
L 101.05177 75.798166 
L 105.172105 74.059534 
z
" clip-path="url(#pa32c52fd06)" style="stroke: #000000; stroke-linecap: round"/>
   </g>
   <g id="patch_12">
    <path d="M 220.627783 188.054033 
Q 231.066566 165.803496 241.030488 144.565137 
" clip-path="url(#pa32c52fd06)" style="fill: none; stroke: #000000; stroke-linecap: round"/>
    <path d="M 237.520931 147.336962 
L 241.030488 144.565137 
L 241.142213 149.035877 
z
" clip-path="url(#pa32c52fd06)" style="stroke: #000000; stroke-linecap: round"/>
   </g>
   <g id="patch_13">
    <path d="M 213.958001 204.026645 
Q 193.607767 259.352869 173.64349 313.629789 
" clip-path="url(#pa32c52fd06)" style="fill: none; stroke: #000000; stroke-linecap: round"/>
    <path d="M 176.901383 310.56611 
L 173.64349 313.629789 
L 173.147282 309.185267 
z
" clip-path="url(#pa32c52fd06)" style="stroke: #000000; stroke-linecap: round"/>
   </g>
   <g id="patch_14">
    <path d="M 219.713721 187.692842 
Q 235.961316 139.49179 251.851787 92.350201 
" clip-path="url(#pa32c52fd06)" style="fill: none; stroke: #000000; stroke-linecap: round"/>
    <path d="M 248.678877 95.501811 
L 251.851787 92.350201 
L 252.469329 96.779495 
z
" clip-path="url(#pa32c52fd06)" style="stroke: #000000; stroke-linecap: round"/>
   </g>
   <g id="patch_15">
    <path d="M 233.681051 88.010671 
Q 240.110741 86.522798 245.451181 85.286985 
" clip-path="url(#pa32c52fd06)" style="fill: none; stroke: #000000; stroke-linecap: round"/>
    <path d="M 241.103263 84.240271 
L 245.451181 85.286985 
L 242.005059 88.137291 
z
" clip-path="url(#pa32c52fd06)" style="stroke: #000000; stroke-linecap: round"/>
   </g>
   <g id="patch_16">
    <path d="M 166.148877 318.726288 
Q 168.207854 320.768103 169.47296 322.022663 
" clip-path="url(#pa32c52fd06)" style="fill: none; stroke: #000000; stroke-linecap: round"/>
    <path d="M 168.041003 317.785979 
L 169.47296 322.022663 
L 165.224438 320.626218 
z
" clip-path="url(#pa32c52fd06)" style="stroke: #000000; stroke-linecap: round"/>
   </g>
   <g id="patch_17">
    <path d="M 240.528915 143.011903 
Q 240.22131 143.494328 240.514794 143.034049 
" clip-path="url(#pa32c52fd06)" style="fill: none; stroke: #000000; stroke-linecap: round"/>
    <path d="M 244.351681 140.736594 
L 240.514794 143.034049 
L 240.978962 138.586067 
z
" clip-path="url(#pa32c52fd06)" style="stroke: #000000; stroke-linecap: round"/>
   </g>
   <g id="patch_18">
    <path d="M 246.43002 127.141503 
Q 247.551211 119.425336 248.511636 112.815584 
" clip-path="url(#pa32c52fd06)" style="fill: none; stroke: #000000; stroke-linecap: round"/>
    <path d="M 245.957244 116.486426 
L 248.511636 112.815584 
L 249.915675 117.061603 
z
" clip-path="url(#pa32c52fd06)" style="stroke: #000000; stroke-linecap: round"/>
   </g>
   <g id="patch_19">
    <path d="M 237.678026 131.387561 
Q 236.039788 130.444373 235.370474 130.059026 
" clip-path="url(#pa32c52fd06)" style="fill: none; stroke: #000000; stroke-linecap: round"/>
    <path d="M 237.839103 133.788084 
L 235.370474 130.059026 
L 239.834897 130.321558 
z
" clip-path="url(#pa32c52fd06)" style="stroke: #000000; stroke-linecap: round"/>
   </g>
   <g id="patch_20">
    <path d="M 253.838187 69.813032 
Q 250.88738 65.241374 248.542885 61.60907 
" clip-path="url(#pa32c52fd06)" style="fill: none; stroke: #000000; stroke-linecap: round"/>
    <path d="M 249.031726 66.054408 
L 248.542885 61.60907 
L 252.39246 63.8852 
z
" clip-path="url(#pa32c52fd06)" style="stroke: #000000; stroke-linecap: round"/>
   </g>
   <g id="patch_21">
    <path d="M 266.095208 72.857238 
Q 274.248889 68.296858 281.426788 64.282236 
" clip-path="url(#pa32c52fd06)" style="fill: none; stroke: #000000; stroke-linecap: round"/>
    <path d="M 276.959446 64.489267 
L 281.426788 64.282236 
L 278.912008 67.980328 
z
" clip-path="url(#pa32c52fd06)" style="stroke: #000000; stroke-linecap: round"/>
   </g>
   <g id="patch_22">
    <path d="M 261.810984 69.069715 
Q 263.211035 65.645501 264.187959 63.256161 
" clip-path="url(#pa32c52fd06)" style="fill: none; stroke: #000000; stroke-linecap: round"/>
    <path d="M 260.822897 66.201726 
L 264.187959 63.256161 
L 264.525374 67.71555 
z
" clip-path="url(#pa32c52fd06)" style="stroke: #000000; stroke-linecap: round"/>
   </g>
   <g id="patch_23">
    <path d="M 255.814473 85.307565 
Q 254.225827 90.111492 252.988216 93.853922 
" clip-path="url(#pa32c52fd06)" style="fill: none; stroke: #000000; stroke-linecap: round"/>
    <path d="M 256.142976 90.684145 
L 252.988216 93.853922 
L 252.34525 89.428248 
z
" clip-path="url(#pa32c52fd06)" style="stroke: #000000; stroke-linecap: round"/>
   </g>
   <g id="patch_24">
    <path d="M 250.749137 73.293578 
Q 249.001917 72.44214 248.259746 72.080473 
" clip-path="url(#pa32c52fd06)" style="fill: none; stroke: #000000; stroke-linecap: round"/>
    <path d="M 250.979392 75.630618 
L 248.259746 72.080473 
L 252.731649 72.034843 
z
" clip-path="url(#pa32c52fd06)" style="stroke: #000000; stroke-linecap: round"/>
   </g>
   <g id="patch_25">
    <path d="M 247.867778 66.709691 
Q 246.975901 64.143171 246.451018 62.632736 
" clip-path="url(#pa32c52fd06)" style="fill: none; stroke: #000000; stroke-linecap: round"/>
    <path d="M 245.874835 67.0676 
L 246.451018 62.632736 
L 249.653199 65.754601 
z
" clip-path="url(#pa32c52fd06)" style="stroke: #000000; stroke-linecap: round"/>
   </g>
   <g id="patch_26">
    <path d="M 258.771748 71.728992 
Q 270.337232 67.197483 280.861734 63.073845 
" clip-path="url(#pa32c52fd06)" style="fill: none; stroke: #000000; stroke-linecap: round"/>
    <path d="M 276.407786 62.670922 
L 280.861734 63.073845 
L 277.867026 66.395249 
z
" clip-path="url(#pa32c52fd06)" style="stroke: #000000; stroke-linecap: round"/>
   </g>
   <g id="patch_27">
    <path d="M 253.168993 66.581513 
Q 255.193187 59.744748 256.899979 53.980016 
" clip-path="url(#pa32c52fd06)" style="fill: none; stroke: #000000; stroke-linecap: round"/>
    <path d="M 253.846695 57.247654 
L 256.899979 53.980016 
L 257.682118 58.383226 
z
" clip-path="url(#pa32c52fd06)" style="stroke: #000000; stroke-linecap: round"/>
   </g>
   <g id="patch_28">
    <path d="M 257.113981 69.052424 
Q 257.661255 68.553764 257.382107 68.808116 
" clip-path="url(#pa32c52fd06)" style="fill: none; stroke: #000000; stroke-linecap: round"/>
    <path d="M 253.078381 70.023822 
L 257.382107 68.808116 
L 255.772436 72.98052 
z
" clip-path="url(#pa32c52fd06)" style="stroke: #000000; stroke-linecap: round"/>
   </g>
   <g id="patch_29">
    <path d="M 254.706881 82.566775 
Q 254.841231 82.824875 254.459355 82.091254 
" clip-path="url(#pa32c52fd06)" style="fill: none; stroke: #000000; stroke-linecap: round"/>
    <path d="M 254.386496 77.619711 
L 254.459355 82.091254 
L 250.838406 79.466616 
z
" clip-path="url(#pa32c52fd06)" style="stroke: #000000; stroke-linecap: round"/>
   </g>
   <g id="patch_30">
    <path d="M 226.938767 109.942219 
Q 226.930083 113.233017 226.924349 115.405784 
" clip-path="url(#pa32c52fd06)" style="fill: none; stroke: #000000; stroke-linecap: round"/>
    <path d="M 228.934898 111.411076 
L 226.924349 115.405784 
L 224.934912 111.400521 
z
" clip-path="url(#pa32c52fd06)" style="stroke: #000000; stroke-linecap: round"/>
   </g>
   <g id="patch_31">
    <path d="M 229.992525 93.166415 
Q 233.216278 84.537084 236.048766 76.955087 
" clip-path="url(#pa32c52fd06)" style="fill: none; stroke: #000000; stroke-linecap: round"/>
    <path d="M 232.775404 80.002234 
L 236.048766 76.955087 
L 236.522466 81.402065 
z
" clip-path="url(#pa32c52fd06)" style="stroke: #000000; stroke-linecap: round"/>
   </g>
   <g id="patch_32">
    <path d="M 226.961627 101.279516 
Q 231.073795 101.373625 234.068221 101.442154 
" clip-path="url(#pa32c52fd06)" style="fill: none; stroke: #000000; stroke-linecap: round"/>
    <path d="M 230.115028 99.351159 
L 234.068221 101.442154 
L 230.023509 103.350112 
z
" clip-path="url(#pa32c52fd06)" style="stroke: #000000; stroke-linecap: round"/>
   </g>
   <g id="patch_33">
    <path d="M 232.615495 143.031636 
Q 231.078089 138.231351 229.881698 134.495823 
" clip-path="url(#pa32c52fd06)" style="fill: none; stroke: #000000; stroke-linecap: round"/>
    <path d="M 229.19705 138.915241 
L 229.881698 134.495823 
L 233.006444 137.695192 
z
" clip-path="url(#pa32c52fd06)" style="stroke: #000000; stroke-linecap: round"/>
   </g>
   <g id="patch_34">
    <path d="M 223.876958 140.424808 
Q 224.545677 137.051249 224.997006 134.774386 
" clip-path="url(#pa32c52fd06)" style="fill: none; stroke: #000000; stroke-linecap: round"/>
    <path d="M 222.257415 138.309162 
L 224.997006 134.774386 
L 226.181072 139.086924 
z
" clip-path="url(#pa32c52fd06)" style="stroke: #000000; stroke-linecap: round"/>
   </g>
   <g id="patch_35">
    <path d="M 250.876334 49.310886 
Q 251.458515 48.999544 251.05479 49.21545 
" clip-path="url(#pa32c52fd06)" style="fill: none; stroke: #000000; stroke-linecap: round"/>
    <path d="M 246.584338 49.338148 
L 251.05479 49.21545 
L 248.470677 52.865431 
z
" clip-path="url(#pa32c52fd06)" style="stroke: #000000; stroke-linecap: round"/>
   </g>
   <g id="patch_36">
    <path d="M 251.246729 56.701217 
Q 253.927105 57.80833 255.574125 58.488623 
" clip-path="url(#pa32c52fd06)" style="fill: none; stroke: #000000; stroke-linecap: round"/>
    <path d="M 252.640602 55.113057 
L 255.574125 58.488623 
L 251.113559 58.810102 
z
" clip-path="url(#pa32c52fd06)" style="stroke: #000000; stroke-linecap: round"/>
   </g>
   <g id="patch_37">
    <path d="M 281.350625 60.429577 
Q 277.286301 60.8646 274.333661 61.180635 
" clip-path="url(#pa32c52fd06)" style="fill: none; stroke: #000000; stroke-linecap: round"/>
    <path d="M 278.523797 62.743569 
L 274.333661 61.180635 
L 278.09809 58.766287 
z
" clip-path="url(#pa32c52fd06)" style="stroke: #000000; stroke-linecap: round"/>
   </g>
   <g id="patch_38">
    <path d="M 258.056685 53.110068 
Q 257.381334 56.657913 256.915053 59.107446 
" clip-path="url(#pa32c52fd06)" style="fill: none; stroke: #000000; stroke-linecap: round"/>
    <path d="M 259.627763 55.551999 
L 256.915053 59.107446 
L 255.698322 54.804009 
z
" clip-path="url(#pa32c52fd06)" style="stroke: #000000; stroke-linecap: round"/>
   </g>
   <g id="patch_39">
    <path d="M 267.95641 42.077035 
Q 271.819455 40.897652 274.613189 40.044728 
" clip-path="url(#pa32c52fd06)" style="fill: none; stroke: #000000; stroke-linecap: round"/>
    <path d="M 270.203521 39.299863 
L 274.613189 40.044728 
L 271.371496 43.125544 
z
" clip-path="url(#pa32c52fd06)" style="stroke: #000000; stroke-linecap: round"/>
   </g>
   <g id="patch_40">
    <path d="M 262.274703 53.882004 
Q 262.143354 53.413178 262.313626 54.020933 
" clip-path="url(#pa32c52fd06)" style="fill: none; stroke: #000000; stroke-linecap: round"/>
    <path d="M 261.466893 58.412179 
L 262.313626 54.020933 
L 265.318583 57.333067 
z
" clip-path="url(#pa32c52fd06)" style="stroke: #000000; stroke-linecap: round"/>
   </g>
   <g id="patch_41">
    <path d="M 269.909855 55.36765 
Q 274.28876 49.703803 277.983821 44.924465 
" clip-path="url(#pa32c52fd06)" style="fill: none; stroke: #000000; stroke-linecap: round"/>
    <path d="M 273.954968 46.865688 
L 277.983821 44.924465 
L 277.119488 49.312281 
z
" clip-path="url(#pa32c52fd06)" style="stroke: #000000; stroke-linecap: round"/>
   </g>
   <g id="patch_42">
    <path d="M 199.936753 92.167678 
Q 225.04154 85.706469 249.063579 79.523926 
" clip-path="url(#pa32c52fd06)" style="fill: none; stroke: #000000; stroke-linecap: round"/>
    <path d="M 244.691325 78.584034 
L 249.063579 79.523926 
L 245.688313 82.457794 
z
" clip-path="url(#pa32c52fd06)" style="stroke: #000000; stroke-linecap: round"/>
   </g>
   <g id="patch_43">
    <path d="M 199.780643 91.621907 
Q 221.131125 84.606637 241.41944 77.94037 
" clip-path="url(#pa32c52fd06)" style="fill: none; stroke: #000000; stroke-linecap: round"/>
    <path d="M 236.995004 77.288941 
L 241.41944 77.94037 
L 238.243635 81.089062 
z
" clip-path="url(#pa32c52fd06)" style="stroke: #000000; stroke-linecap: round"/>
   </g>
   <g id="patch_44">
    <path d="M 195.79163 101.879341 
Q 206.872743 121.621501 217.406622 140.388707 
" clip-path="url(#pa32c52fd06)" style="fill: none; stroke: #000000; stroke-linecap: round"/>
    <path d="M 217.19283 135.921685 
L 217.406622 140.388707 
L 213.704728 137.879527 
z
" clip-path="url(#pa32c52fd06)" style="stroke: #000000; stroke-linecap: round"/>
   </g>
   <g id="patch_45">
    <path d="M 183.043219 92.699929 
Q 141.424251 84.747637 100.903451 77.005177 
" clip-path="url(#pa32c52fd06)" style="fill: none; stroke: #000000; stroke-linecap: round"/>
    <path d="M 104.457016 79.720352 
L 100.903451 77.005177 
L 105.20773 75.791429 
z
" clip-path="url(#pa32c52fd06)" style="stroke: #000000; stroke-linecap: round"/>
   </g>
   <g id="patch_46">
    <path d="M 259.598719 75.763753 
Q 269.469409 60.136755 278.743033 45.455015 
" clip-path="url(#pa32c52fd06)" style="fill: none; stroke: #000000; stroke-linecap: round"/>
    <path d="M 274.915977 47.768808 
L 278.743033 45.455015 
L 278.297834 49.904936 
z
" clip-path="url(#pa32c52fd06)" style="stroke: #000000; stroke-linecap: round"/>
   </g>
   <g id="patch_47">
    <path d="M 242.095209 99.417316 
Q 239.330212 98.101854 237.574814 97.266715 
" clip-path="url(#pa32c52fd06)" style="fill: none; stroke: #000000; stroke-linecap: round"/>
    <path d="M 240.32764 100.791193 
L 237.574814 97.266715 
L 242.046092 97.179141 
z
" clip-path="url(#pa32c52fd06)" style="stroke: #000000; stroke-linecap: round"/>
   </g>
   <g id="patch_48">
    <path d="M 229.756454 117.003813 
Q 231.042914 113.322718 231.960522 110.697061 
" clip-path="url(#pa32c52fd06)" style="fill: none; stroke: #000000; stroke-linecap: round"/>
    <path d="M 228.752854 113.813288 
L 231.960522 110.697061 
L 232.528902 115.132931 
z
" clip-path="url(#pa32c52fd06)" style="stroke: #000000; stroke-linecap: round"/>
   </g>
   <g id="patch_49">
    <path d="M 228.747621 93.067131 
Q 227.854624 97.173324 227.199219 100.187018 
" clip-path="url(#pa32c52fd06)" style="fill: none; stroke: #000000; stroke-linecap: round"/>
    <path d="M 230.003571 96.703398 
L 227.199219 100.187018 
L 226.094934 95.853365 
z
" clip-path="url(#pa32c52fd06)" style="stroke: #000000; stroke-linecap: round"/>
   </g>
   <g id="patch_50">
    <path d="M 232.131086 85.093141 
Q 234.110048 80.429217 235.652301 76.794508 
" clip-path="url(#pa32c52fd06)" style="fill: none; stroke: #000000; stroke-linecap: round"/>
    <path d="M 232.248766 79.695533 
L 235.652301 76.794508 
L 235.931 81.257952 
z
" clip-path="url(#pa32c52fd06)" style="stroke: #000000; stroke-linecap: round"/>
   </g>
   <g id="patch_51">
    <path d="M 263.324055 54.617601 
Q 270.33447 48.698159 276.490646 43.500018 
" clip-path="url(#pa32c52fd06)" style="fill: none; stroke: #000000; stroke-linecap: round"/>
    <path d="M 272.144124 44.552514 
L 276.490646 43.500018 
L 274.724729 47.608733 
z
" clip-path="url(#pa32c52fd06)" style="stroke: #000000; stroke-linecap: round"/>
   </g>
   <g id="patch_52">
    <path d="M 245.160236 61.265897 
Q 249.573153 56.20076 253.25164 51.9786 
" clip-path="url(#pa32c52fd06)" style="fill: none; stroke: #000000; stroke-linecap: round"/>
    <path d="M 249.116097 53.68074 
L 253.25164 51.9786 
L 252.132026 56.308319 
z
" clip-path="url(#pa32c52fd06)" style="stroke: #000000; stroke-linecap: round"/>
   </g>
   <g id="patch_53">
    <path d="M 247.92504 65.92196 
Q 252.041556 65.008989 255.06656 64.338096 
" clip-path="url(#pa32c52fd06)" style="fill: none; stroke: #000000; stroke-linecap: round"/>
    <path d="M 250.728406 63.251625 
L 255.06656 64.338096 
L 251.594491 67.156737 
z
" clip-path="url(#pa32c52fd06)" style="stroke: #000000; stroke-linecap: round"/>
   </g>
   <g id="patch_54">
    <path d="M 236.279459 92.873348 
Q 237.328107 84.631442 238.235642 77.49863 
" clip-path="url(#pa32c52fd06)" style="fill: none; stroke: #000000; stroke-linecap: round"/>
    <path d="M 235.746771 81.214208 
L 238.235642 77.49863 
L 239.714782 81.719073 
z
" clip-path="url(#pa32c52fd06)" style="stroke: #000000; stroke-linecap: round"/>
   </g>
   <g id="PathCollection_1">
    <defs>
     <path id="mf065e1014e" d="M 0 8.660254 
C 2.296726 8.660254 4.499694 7.747755 6.123724 6.123724 
C 7.747755 4.499694 8.660254 2.296726 8.660254 0 
C 8.660254 -2.296726 7.747755 -4.499694 6.123724 -6.123724 
C 4.499694 -7.747755 2.296726 -8.660254 0 -8.660254 
C -2.296726 -8.660254 -4.499694 -7.747755 -6.123724 -6.123724 
C -7.747755 -4.499694 -8.660254 -2.296726 -8.660254 0 
C -8.660254 2.296726 -7.747755 4.499694 -6.123724 6.123724 
C -4.499694 7.747755 -2.296726 8.660254 0 8.660254 
z
" style="stroke: #1f78b4"/>
    </defs>
    <g clip-path="url(#pa32c52fd06)">
     <use xlink:href="#mf065e1014e" x="217.814276" y="143.751198" style="fill: #1f78b4; stroke: #1f78b4"/>
     <use xlink:href="#mf065e1014e" x="177.007981" y="115.683896" style="fill: #1f78b4; stroke: #1f78b4"/>
     <use xlink:href="#mf065e1014e" x="241.068977" y="127.557071" style="fill: #1f78b4; stroke: #1f78b4"/>
     <use xlink:href="#mf065e1014e" x="262.863842" y="49.618218" style="fill: #1f78b4; stroke: #1f78b4"/>
     <use xlink:href="#mf065e1014e" x="206.411927" y="82.587638" style="fill: #1f78b4; stroke: #1f78b4"/>
     <use xlink:href="#mf065e1014e" x="216.948244" y="195.897065" style="fill: #1f78b4; stroke: #1f78b4"/>
     <use xlink:href="#mf065e1014e" x="225.242363" y="89.96344" style="fill: #1f78b4; stroke: #1f78b4"/>
     <use xlink:href="#mf065e1014e" x="160.000768" y="312.629426" style="fill: #1f78b4; stroke: #1f78b4"/>
     <use xlink:href="#mf065e1014e" x="399.10078" y="95.628825" style="fill: #1f78b4; stroke: #1f78b4"/>
     <use xlink:href="#mf065e1014e" x="408.982983" y="309.668375" style="fill: #1f78b4; stroke: #1f78b4"/>
     <use xlink:href="#mf065e1014e" x="28.145455" y="199.422757" style="fill: #1f78b4; stroke: #1f78b4"/>
     <use xlink:href="#mf065e1014e" x="447.054545" y="251.535705" style="fill: #1f78b4; stroke: #1f78b4"/>
     <use xlink:href="#mf065e1014e" x="245.185041" y="135.7096" style="fill: #1f78b4; stroke: #1f78b4"/>
     <use xlink:href="#mf065e1014e" x="258.533068" y="77.086767" style="fill: #1f78b4; stroke: #1f78b4"/>
     <use xlink:href="#mf065e1014e" x="250.709709" y="74.887804" style="fill: #1f78b4; stroke: #1f78b4"/>
     <use xlink:href="#mf065e1014e" x="226.961627" y="101.279516" style="fill: #1f78b4; stroke: #1f78b4"/>
     <use xlink:href="#mf065e1014e" x="235.257144" y="151.279738" style="fill: #1f78b4; stroke: #1f78b4"/>
     <use xlink:href="#mf065e1014e" x="222.193571" y="148.917159" style="fill: #1f78b4; stroke: #1f78b4"/>
     <use xlink:href="#mf065e1014e" x="243.240636" y="53.394346" style="fill: #1f78b4; stroke: #1f78b4"/>
     <use xlink:href="#mf065e1014e" x="289.963334" y="59.507719" style="fill: #1f78b4; stroke: #1f78b4"/>
     <use xlink:href="#mf065e1014e" x="259.675643" y="44.605143" style="fill: #1f78b4; stroke: #1f78b4"/>
     <use xlink:href="#mf065e1014e" x="264.611086" y="62.221287" style="fill: #1f78b4; stroke: #1f78b4"/>
     <use xlink:href="#mf065e1014e" x="191.551834" y="94.325702" style="fill: #1f78b4; stroke: #1f78b4"/>
     <use xlink:href="#mf065e1014e" x="170.266831" y="322.809917" style="fill: #1f78b4; stroke: #1f78b4"/>
     <use xlink:href="#mf065e1014e" x="254.975581" y="83.082975" style="fill: #1f78b4; stroke: #1f78b4"/>
     <use xlink:href="#mf065e1014e" x="249.917697" y="103.138906" style="fill: #1f78b4; stroke: #1f78b4"/>
     <use xlink:href="#mf065e1014e" x="226.898552" y="125.181458" style="fill: #1f78b4; stroke: #1f78b4"/>
     <use xlink:href="#mf065e1014e" x="228.747621" y="93.067131" style="fill: #1f78b4; stroke: #1f78b4"/>
     <use xlink:href="#mf065e1014e" x="256.705983" y="60.205758" style="fill: #1f78b4; stroke: #1f78b4"/>
     <use xlink:href="#mf065e1014e" x="283.963523" y="37.190083" style="fill: #1f78b4; stroke: #1f78b4"/>
     <use xlink:href="#mf065e1014e" x="91.296417" y="75.169525" style="fill: #1f78b4; stroke: #1f78b4"/>
     <use xlink:href="#mf065e1014e" x="239.469999" y="67.79714" style="fill: #1f78b4; stroke: #1f78b4"/>
     <use xlink:href="#mf065e1014e" x="235.185963" y="101.467735" style="fill: #1f78b4; stroke: #1f78b4"/>
    </g>
   </g>
  </g>
 </g>
 <defs>
  <clipPath id="pa32c52fd06">
   <rect x="7.2" y="7.2" width="460.8" height="345.6"/>
  </clipPath>
 </defs>
</svg>
