<?xml version="1.0" encoding="utf-8" standalone="no"?>
<!DOCTYPE svg PUBLIC "-//W3C//DTD SVG 1.1//EN"
  "http://www.w3.org/Graphics/SVG/1.1/DTD/svg11.dtd">
<svg xmlns:xlink="http://www.w3.org/1999/xlink" width="802.099219pt" height="335.4275pt" viewBox="0 0 802.099219 335.4275" xmlns="http://www.w3.org/2000/svg" version="1.1">
 <metadata>
  <rdf:RDF xmlns:dc="http://purl.org/dc/elements/1.1/" xmlns:cc="http://creativecommons.org/ns#" xmlns:rdf="http://www.w3.org/1999/02/22-rdf-syntax-ns#">
   <cc:Work>
    <dc:type rdf:resource="http://purl.org/dc/dcmitype/StillImage"/>
    <dc:date>2024-07-29T18:47:17.584913</dc:date>
    <dc:format>image/svg+xml</dc:format>
    <dc:creator>
     <cc:Agent>
      <dc:title>Matplotlib v3.8.4, https://matplotlib.org/</dc:title>
     </cc:Agent>
    </dc:creator>
   </cc:Work>
  </rdf:RDF>
 </metadata>
 <defs>
  <style type="text/css">*{stroke-linejoin: round; stroke-linecap: butt}</style>
 </defs>
 <g id="figure_1">
  <g id="patch_1">
   <path d="M 0 335.4275 
L 802.099219 335.4275 
L 802.099219 0 
L 0 0 
z
" style="fill: #ffffff"/>
  </g>
  <g id="axes_1">
   <g id="patch_2">
    <path d="M 59.117188 295.6 
L 701.667187 295.6 
L 701.667187 7.2 
L 59.117188 7.2 
z
" style="fill: #ffffff"/>
   </g>
   <g id="matplotlib.axis_1">
    <g id="xtick_1">
     <g id="line2d_1">
      <defs>
       <path id="m8aef250684" d="M 0 0 
L 0 2 
" style="stroke: #000000; stroke-width: 0.6"/>
      </defs>
      <g>
       <use xlink:href="#m8aef250684" x="173.341342" y="295.6" style="stroke: #000000; stroke-width: 0.6"/>
      </g>
     </g>
     <g id="text_1">
      <!-- $\mathdefault{1.2\times10^{4}}$ -->
      <g transform="translate(150.741342 308.598437) scale(0.1 -0.1)">
       <defs>
        <path id="DejaVuSans-31" d="M 794 531 
L 1825 531 
L 1825 4091 
L 703 3866 
L 703 4441 
L 1819 4666 
L 2450 4666 
L 2450 531 
L 3481 531 
L 3481 0 
L 794 0 
L 794 531 
z
" transform="scale(0.015625)"/>
        <path id="DejaVuSans-2e" d="M 684 794 
L 1344 794 
L 1344 0 
L 684 0 
L 684 794 
z
" transform="scale(0.015625)"/>
        <path id="DejaVuSans-32" d="M 1228 531 
L 3431 531 
L 3431 0 
L 469 0 
L 469 531 
Q 828 903 1448 1529 
Q 2069 2156 2228 2338 
Q 2531 2678 2651 2914 
Q 2772 3150 2772 3378 
Q 2772 3750 2511 3984 
Q 2250 4219 1831 4219 
Q 1534 4219 1204 4116 
Q 875 4013 500 3803 
L 500 4441 
Q 881 4594 1212 4672 
Q 1544 4750 1819 4750 
Q 2544 4750 2975 4387 
Q 3406 4025 3406 3419 
Q 3406 3131 3298 2873 
Q 3191 2616 2906 2266 
Q 2828 2175 2409 1742 
Q 1991 1309 1228 531 
z
" transform="scale(0.015625)"/>
        <path id="DejaVuSans-d7" d="M 4488 3438 
L 3059 2003 
L 4488 575 
L 4116 197 
L 2681 1631 
L 1247 197 
L 878 575 
L 2303 2003 
L 878 3438 
L 1247 3816 
L 2681 2381 
L 4116 3816 
L 4488 3438 
z
" transform="scale(0.015625)"/>
        <path id="DejaVuSans-30" d="M 2034 4250 
Q 1547 4250 1301 3770 
Q 1056 3291 1056 2328 
Q 1056 1369 1301 889 
Q 1547 409 2034 409 
Q 2525 409 2770 889 
Q 3016 1369 3016 2328 
Q 3016 3291 2770 3770 
Q 2525 4250 2034 4250 
z
M 2034 4750 
Q 2819 4750 3233 4129 
Q 3647 3509 3647 2328 
Q 3647 1150 3233 529 
Q 2819 -91 2034 -91 
Q 1250 -91 836 529 
Q 422 1150 422 2328 
Q 422 3509 836 4129 
Q 1250 4750 2034 4750 
z
" transform="scale(0.015625)"/>
        <path id="DejaVuSans-34" d="M 2419 4116 
L 825 1625 
L 2419 1625 
L 2419 4116 
z
M 2253 4666 
L 3047 4666 
L 3047 1625 
L 3713 1625 
L 3713 1100 
L 3047 1100 
L 3047 0 
L 2419 0 
L 2419 1100 
L 313 1100 
L 313 1709 
L 2253 4666 
z
" transform="scale(0.015625)"/>
       </defs>
       <use xlink:href="#DejaVuSans-31" transform="translate(0 0.684375)"/>
       <use xlink:href="#DejaVuSans-2e" transform="translate(63.623047 0.684375)"/>
       <use xlink:href="#DejaVuSans-32" transform="translate(89.910156 0.684375)"/>
       <use xlink:href="#DejaVuSans-d7" transform="translate(173.015625 0.684375)"/>
       <use xlink:href="#DejaVuSans-31" transform="translate(276.287109 0.684375)"/>
       <use xlink:href="#DejaVuSans-30" transform="translate(339.910156 0.684375)"/>
       <use xlink:href="#DejaVuSans-34" transform="translate(404.490234 38.965625) scale(0.7)"/>
      </g>
     </g>
    </g>
    <g id="xtick_2">
     <g id="line2d_2">
      <g>
       <use xlink:href="#m8aef250684" x="323.959349" y="295.6" style="stroke: #000000; stroke-width: 0.6"/>
      </g>
     </g>
     <g id="text_2">
      <!-- $\mathdefault{1.4\times10^{4}}$ -->
      <g transform="translate(301.059349 308.598437) scale(0.1 -0.1)">
       <use xlink:href="#DejaVuSans-31" transform="translate(0 0.684375)"/>
       <use xlink:href="#DejaVuSans-2e" transform="translate(63.623047 0.684375)"/>
       <use xlink:href="#DejaVuSans-34" transform="translate(95.410156 0.684375)"/>
       <use xlink:href="#DejaVuSans-d7" transform="translate(178.515625 0.684375)"/>
       <use xlink:href="#DejaVuSans-31" transform="translate(281.787109 0.684375)"/>
       <use xlink:href="#DejaVuSans-30" transform="translate(345.410156 0.684375)"/>
       <use xlink:href="#DejaVuSans-34" transform="translate(409.990234 38.965625) scale(0.7)"/>
      </g>
     </g>
    </g>
    <g id="xtick_3">
     <g id="line2d_3">
      <g>
       <use xlink:href="#m8aef250684" x="454.430601" y="295.6" style="stroke: #000000; stroke-width: 0.6"/>
      </g>
     </g>
     <g id="text_3">
      <!-- $\mathdefault{1.6\times10^{4}}$ -->
      <g transform="translate(431.530601 308.598437) scale(0.1 -0.1)">
       <defs>
        <path id="DejaVuSans-36" d="M 2113 2584 
Q 1688 2584 1439 2293 
Q 1191 2003 1191 1497 
Q 1191 994 1439 701 
Q 1688 409 2113 409 
Q 2538 409 2786 701 
Q 3034 994 3034 1497 
Q 3034 2003 2786 2293 
Q 2538 2584 2113 2584 
z
M 3366 4563 
L 3366 3988 
Q 3128 4100 2886 4159 
Q 2644 4219 2406 4219 
Q 1781 4219 1451 3797 
Q 1122 3375 1075 2522 
Q 1259 2794 1537 2939 
Q 1816 3084 2150 3084 
Q 2853 3084 3261 2657 
Q 3669 2231 3669 1497 
Q 3669 778 3244 343 
Q 2819 -91 2113 -91 
Q 1303 -91 875 529 
Q 447 1150 447 2328 
Q 447 3434 972 4092 
Q 1497 4750 2381 4750 
Q 2619 4750 2861 4703 
Q 3103 4656 3366 4563 
z
" transform="scale(0.015625)"/>
       </defs>
       <use xlink:href="#DejaVuSans-31" transform="translate(0 0.684375)"/>
       <use xlink:href="#DejaVuSans-2e" transform="translate(63.623047 0.684375)"/>
       <use xlink:href="#DejaVuSans-36" transform="translate(95.410156 0.684375)"/>
       <use xlink:href="#DejaVuSans-d7" transform="translate(178.515625 0.684375)"/>
       <use xlink:href="#DejaVuSans-31" transform="translate(281.787109 0.684375)"/>
       <use xlink:href="#DejaVuSans-30" transform="translate(345.410156 0.684375)"/>
       <use xlink:href="#DejaVuSans-34" transform="translate(409.990234 38.965625) scale(0.7)"/>
      </g>
     </g>
    </g>
    <g id="xtick_4">
     <g id="line2d_4">
      <g>
       <use xlink:href="#m8aef250684" x="569.514402" y="295.6" style="stroke: #000000; stroke-width: 0.6"/>
      </g>
     </g>
     <g id="text_4">
      <!-- $\mathdefault{1.8\times10^{4}}$ -->
      <g transform="translate(546.764402 308.598437) scale(0.1 -0.1)">
       <defs>
        <path id="DejaVuSans-38" d="M 2034 2216 
Q 1584 2216 1326 1975 
Q 1069 1734 1069 1313 
Q 1069 891 1326 650 
Q 1584 409 2034 409 
Q 2484 409 2743 651 
Q 3003 894 3003 1313 
Q 3003 1734 2745 1975 
Q 2488 2216 2034 2216 
z
M 1403 2484 
Q 997 2584 770 2862 
Q 544 3141 544 3541 
Q 544 4100 942 4425 
Q 1341 4750 2034 4750 
Q 2731 4750 3128 4425 
Q 3525 4100 3525 3541 
Q 3525 3141 3298 2862 
Q 3072 2584 2669 2484 
Q 3125 2378 3379 2068 
Q 3634 1759 3634 1313 
Q 3634 634 3220 271 
Q 2806 -91 2034 -91 
Q 1263 -91 848 271 
Q 434 634 434 1313 
Q 434 1759 690 2068 
Q 947 2378 1403 2484 
z
M 1172 3481 
Q 1172 3119 1398 2916 
Q 1625 2713 2034 2713 
Q 2441 2713 2670 2916 
Q 2900 3119 2900 3481 
Q 2900 3844 2670 4047 
Q 2441 4250 2034 4250 
Q 1625 4250 1398 4047 
Q 1172 3844 1172 3481 
z
" transform="scale(0.015625)"/>
       </defs>
       <use xlink:href="#DejaVuSans-31" transform="translate(0 0.684375)"/>
       <use xlink:href="#DejaVuSans-2e" transform="translate(63.623047 0.684375)"/>
       <use xlink:href="#DejaVuSans-38" transform="translate(92.785156 0.684375)"/>
       <use xlink:href="#DejaVuSans-d7" transform="translate(175.890625 0.684375)"/>
       <use xlink:href="#DejaVuSans-31" transform="translate(279.162109 0.684375)"/>
       <use xlink:href="#DejaVuSans-30" transform="translate(342.785156 0.684375)"/>
       <use xlink:href="#DejaVuSans-34" transform="translate(407.365234 38.965625) scale(0.7)"/>
      </g>
     </g>
    </g>
    <g id="xtick_5">
     <g id="line2d_5">
      <g>
       <use xlink:href="#m8aef250684" x="672.460369" y="295.6" style="stroke: #000000; stroke-width: 0.6"/>
      </g>
     </g>
     <g id="text_5">
      <!-- $\mathdefault{2\times10^{4}}$ -->
      <g transform="translate(654.360369 308.598437) scale(0.1 -0.1)">
       <use xlink:href="#DejaVuSans-32" transform="translate(0 0.684375)"/>
       <use xlink:href="#DejaVuSans-d7" transform="translate(83.105469 0.684375)"/>
       <use xlink:href="#DejaVuSans-31" transform="translate(186.376953 0.684375)"/>
       <use xlink:href="#DejaVuSans-30" transform="translate(250 0.684375)"/>
       <use xlink:href="#DejaVuSans-34" transform="translate(314.580078 38.965625) scale(0.7)"/>
      </g>
     </g>
    </g>
    <g id="text_6">
     <!-- Last Interaction Velocity (km/s) -->
     <g transform="translate(271.359531 325.315937) scale(0.14 -0.14)">
      <defs>
       <path id="DejaVuSans-4c" d="M 628 4666 
L 1259 4666 
L 1259 531 
L 3531 531 
L 3531 0 
L 628 0 
L 628 4666 
z
" transform="scale(0.015625)"/>
       <path id="DejaVuSans-61" d="M 2194 1759 
Q 1497 1759 1228 1600 
Q 959 1441 959 1056 
Q 959 750 1161 570 
Q 1363 391 1709 391 
Q 2188 391 2477 730 
Q 2766 1069 2766 1631 
L 2766 1759 
L 2194 1759 
z
M 3341 1997 
L 3341 0 
L 2766 0 
L 2766 531 
Q 2569 213 2275 61 
Q 1981 -91 1556 -91 
Q 1019 -91 701 211 
Q 384 513 384 1019 
Q 384 1609 779 1909 
Q 1175 2209 1959 2209 
L 2766 2209 
L 2766 2266 
Q 2766 2663 2505 2880 
Q 2244 3097 1772 3097 
Q 1472 3097 1187 3025 
Q 903 2953 641 2809 
L 641 3341 
Q 956 3463 1253 3523 
Q 1550 3584 1831 3584 
Q 2591 3584 2966 3190 
Q 3341 2797 3341 1997 
z
" transform="scale(0.015625)"/>
       <path id="DejaVuSans-73" d="M 2834 3397 
L 2834 2853 
Q 2591 2978 2328 3040 
Q 2066 3103 1784 3103 
Q 1356 3103 1142 2972 
Q 928 2841 928 2578 
Q 928 2378 1081 2264 
Q 1234 2150 1697 2047 
L 1894 2003 
Q 2506 1872 2764 1633 
Q 3022 1394 3022 966 
Q 3022 478 2636 193 
Q 2250 -91 1575 -91 
Q 1294 -91 989 -36 
Q 684 19 347 128 
L 347 722 
Q 666 556 975 473 
Q 1284 391 1588 391 
Q 1994 391 2212 530 
Q 2431 669 2431 922 
Q 2431 1156 2273 1281 
Q 2116 1406 1581 1522 
L 1381 1569 
Q 847 1681 609 1914 
Q 372 2147 372 2553 
Q 372 3047 722 3315 
Q 1072 3584 1716 3584 
Q 2034 3584 2315 3537 
Q 2597 3491 2834 3397 
z
" transform="scale(0.015625)"/>
       <path id="DejaVuSans-74" d="M 1172 4494 
L 1172 3500 
L 2356 3500 
L 2356 3053 
L 1172 3053 
L 1172 1153 
Q 1172 725 1289 603 
Q 1406 481 1766 481 
L 2356 481 
L 2356 0 
L 1766 0 
Q 1100 0 847 248 
Q 594 497 594 1153 
L 594 3053 
L 172 3053 
L 172 3500 
L 594 3500 
L 594 4494 
L 1172 4494 
z
" transform="scale(0.015625)"/>
       <path id="DejaVuSans-20" transform="scale(0.015625)"/>
       <path id="DejaVuSans-49" d="M 628 4666 
L 1259 4666 
L 1259 0 
L 628 0 
L 628 4666 
z
" transform="scale(0.015625)"/>
       <path id="DejaVuSans-6e" d="M 3513 2113 
L 3513 0 
L 2938 0 
L 2938 2094 
Q 2938 2591 2744 2837 
Q 2550 3084 2163 3084 
Q 1697 3084 1428 2787 
Q 1159 2491 1159 1978 
L 1159 0 
L 581 0 
L 581 3500 
L 1159 3500 
L 1159 2956 
Q 1366 3272 1645 3428 
Q 1925 3584 2291 3584 
Q 2894 3584 3203 3211 
Q 3513 2838 3513 2113 
z
" transform="scale(0.015625)"/>
       <path id="DejaVuSans-65" d="M 3597 1894 
L 3597 1613 
L 953 1613 
Q 991 1019 1311 708 
Q 1631 397 2203 397 
Q 2534 397 2845 478 
Q 3156 559 3463 722 
L 3463 178 
Q 3153 47 2828 -22 
Q 2503 -91 2169 -91 
Q 1331 -91 842 396 
Q 353 884 353 1716 
Q 353 2575 817 3079 
Q 1281 3584 2069 3584 
Q 2775 3584 3186 3129 
Q 3597 2675 3597 1894 
z
M 3022 2063 
Q 3016 2534 2758 2815 
Q 2500 3097 2075 3097 
Q 1594 3097 1305 2825 
Q 1016 2553 972 2059 
L 3022 2063 
z
" transform="scale(0.015625)"/>
       <path id="DejaVuSans-72" d="M 2631 2963 
Q 2534 3019 2420 3045 
Q 2306 3072 2169 3072 
Q 1681 3072 1420 2755 
Q 1159 2438 1159 1844 
L 1159 0 
L 581 0 
L 581 3500 
L 1159 3500 
L 1159 2956 
Q 1341 3275 1631 3429 
Q 1922 3584 2338 3584 
Q 2397 3584 2469 3576 
Q 2541 3569 2628 3553 
L 2631 2963 
z
" transform="scale(0.015625)"/>
       <path id="DejaVuSans-63" d="M 3122 3366 
L 3122 2828 
Q 2878 2963 2633 3030 
Q 2388 3097 2138 3097 
Q 1578 3097 1268 2742 
Q 959 2388 959 1747 
Q 959 1106 1268 751 
Q 1578 397 2138 397 
Q 2388 397 2633 464 
Q 2878 531 3122 666 
L 3122 134 
Q 2881 22 2623 -34 
Q 2366 -91 2075 -91 
Q 1284 -91 818 406 
Q 353 903 353 1747 
Q 353 2603 823 3093 
Q 1294 3584 2113 3584 
Q 2378 3584 2631 3529 
Q 2884 3475 3122 3366 
z
" transform="scale(0.015625)"/>
       <path id="DejaVuSans-69" d="M 603 3500 
L 1178 3500 
L 1178 0 
L 603 0 
L 603 3500 
z
M 603 4863 
L 1178 4863 
L 1178 4134 
L 603 4134 
L 603 4863 
z
" transform="scale(0.015625)"/>
       <path id="DejaVuSans-6f" d="M 1959 3097 
Q 1497 3097 1228 2736 
Q 959 2375 959 1747 
Q 959 1119 1226 758 
Q 1494 397 1959 397 
Q 2419 397 2687 759 
Q 2956 1122 2956 1747 
Q 2956 2369 2687 2733 
Q 2419 3097 1959 3097 
z
M 1959 3584 
Q 2709 3584 3137 3096 
Q 3566 2609 3566 1747 
Q 3566 888 3137 398 
Q 2709 -91 1959 -91 
Q 1206 -91 779 398 
Q 353 888 353 1747 
Q 353 2609 779 3096 
Q 1206 3584 1959 3584 
z
" transform="scale(0.015625)"/>
       <path id="DejaVuSans-56" d="M 1831 0 
L 50 4666 
L 709 4666 
L 2188 738 
L 3669 4666 
L 4325 4666 
L 2547 0 
L 1831 0 
z
" transform="scale(0.015625)"/>
       <path id="DejaVuSans-6c" d="M 603 4863 
L 1178 4863 
L 1178 0 
L 603 0 
L 603 4863 
z
" transform="scale(0.015625)"/>
       <path id="DejaVuSans-79" d="M 2059 -325 
Q 1816 -950 1584 -1140 
Q 1353 -1331 966 -1331 
L 506 -1331 
L 506 -850 
L 844 -850 
Q 1081 -850 1212 -737 
Q 1344 -625 1503 -206 
L 1606 56 
L 191 3500 
L 800 3500 
L 1894 763 
L 2988 3500 
L 3597 3500 
L 2059 -325 
z
" transform="scale(0.015625)"/>
       <path id="DejaVuSans-28" d="M 1984 4856 
Q 1566 4138 1362 3434 
Q 1159 2731 1159 2009 
Q 1159 1288 1364 580 
Q 1569 -128 1984 -844 
L 1484 -844 
Q 1016 -109 783 600 
Q 550 1309 550 2009 
Q 550 2706 781 3412 
Q 1013 4119 1484 4856 
L 1984 4856 
z
" transform="scale(0.015625)"/>
       <path id="DejaVuSans-6b" d="M 581 4863 
L 1159 4863 
L 1159 1991 
L 2875 3500 
L 3609 3500 
L 1753 1863 
L 3688 0 
L 2938 0 
L 1159 1709 
L 1159 0 
L 581 0 
L 581 4863 
z
" transform="scale(0.015625)"/>
       <path id="DejaVuSans-6d" d="M 3328 2828 
Q 3544 3216 3844 3400 
Q 4144 3584 4550 3584 
Q 5097 3584 5394 3201 
Q 5691 2819 5691 2113 
L 5691 0 
L 5113 0 
L 5113 2094 
Q 5113 2597 4934 2840 
Q 4756 3084 4391 3084 
Q 3944 3084 3684 2787 
Q 3425 2491 3425 1978 
L 3425 0 
L 2847 0 
L 2847 2094 
Q 2847 2600 2669 2842 
Q 2491 3084 2119 3084 
Q 1678 3084 1418 2786 
Q 1159 2488 1159 1978 
L 1159 0 
L 581 0 
L 581 3500 
L 1159 3500 
L 1159 2956 
Q 1356 3278 1631 3431 
Q 1906 3584 2284 3584 
Q 2666 3584 2933 3390 
Q 3200 3197 3328 2828 
z
" transform="scale(0.015625)"/>
       <path id="DejaVuSans-2f" d="M 1625 4666 
L 2156 4666 
L 531 -594 
L 0 -594 
L 1625 4666 
z
" transform="scale(0.015625)"/>
       <path id="DejaVuSans-29" d="M 513 4856 
L 1013 4856 
Q 1481 4119 1714 3412 
Q 1947 2706 1947 2009 
Q 1947 1309 1714 600 
Q 1481 -109 1013 -844 
L 513 -844 
Q 928 -128 1133 580 
Q 1338 1288 1338 2009 
Q 1338 2731 1133 3434 
Q 928 4138 513 4856 
z
" transform="scale(0.015625)"/>
      </defs>
      <use xlink:href="#DejaVuSans-4c"/>
      <use xlink:href="#DejaVuSans-61" x="55.712891"/>
      <use xlink:href="#DejaVuSans-73" x="116.992188"/>
      <use xlink:href="#DejaVuSans-74" x="169.091797"/>
      <use xlink:href="#DejaVuSans-20" x="208.300781"/>
      <use xlink:href="#DejaVuSans-49" x="240.087891"/>
      <use xlink:href="#DejaVuSans-6e" x="269.580078"/>
      <use xlink:href="#DejaVuSans-74" x="332.958984"/>
      <use xlink:href="#DejaVuSans-65" x="372.167969"/>
      <use xlink:href="#DejaVuSans-72" x="433.691406"/>
      <use xlink:href="#DejaVuSans-61" x="474.804688"/>
      <use xlink:href="#DejaVuSans-63" x="536.083984"/>
      <use xlink:href="#DejaVuSans-74" x="591.064453"/>
      <use xlink:href="#DejaVuSans-69" x="630.273438"/>
      <use xlink:href="#DejaVuSans-6f" x="658.056641"/>
      <use xlink:href="#DejaVuSans-6e" x="719.238281"/>
      <use xlink:href="#DejaVuSans-20" x="782.617188"/>
      <use xlink:href="#DejaVuSans-56" x="814.404297"/>
      <use xlink:href="#DejaVuSans-65" x="875.0625"/>
      <use xlink:href="#DejaVuSans-6c" x="936.585938"/>
      <use xlink:href="#DejaVuSans-6f" x="964.369141"/>
      <use xlink:href="#DejaVuSans-63" x="1025.550781"/>
      <use xlink:href="#DejaVuSans-69" x="1080.53125"/>
      <use xlink:href="#DejaVuSans-74" x="1108.314453"/>
      <use xlink:href="#DejaVuSans-79" x="1147.523438"/>
      <use xlink:href="#DejaVuSans-20" x="1206.703125"/>
      <use xlink:href="#DejaVuSans-28" x="1238.490234"/>
      <use xlink:href="#DejaVuSans-6b" x="1277.503906"/>
      <use xlink:href="#DejaVuSans-6d" x="1335.414062"/>
      <use xlink:href="#DejaVuSans-2f" x="1432.826172"/>
      <use xlink:href="#DejaVuSans-73" x="1466.517578"/>
      <use xlink:href="#DejaVuSans-29" x="1518.617188"/>
     </g>
    </g>
   </g>
   <g id="matplotlib.axis_2">
    <g id="ytick_1">
     <g id="line2d_6">
      <defs>
       <path id="ma697f95a1e" d="M 0 0 
L -3.5 0 
" style="stroke: #000000; stroke-width: 0.8"/>
      </defs>
      <g>
       <use xlink:href="#ma697f95a1e" x="59.117188" y="282.490909" style="stroke: #000000; stroke-width: 0.8"/>
      </g>
     </g>
     <g id="text_7">
      <!-- $\mathdefault{10^{1}}$ -->
      <g transform="translate(25.717188 288.189737) scale(0.15 -0.15)">
       <use xlink:href="#DejaVuSans-31" transform="translate(0 0.684375)"/>
       <use xlink:href="#DejaVuSans-30" transform="translate(63.623047 0.684375)"/>
       <use xlink:href="#DejaVuSans-31" transform="translate(128.203125 38.965625) scale(0.7)"/>
      </g>
     </g>
    </g>
    <g id="ytick_2">
     <g id="line2d_7">
      <g>
       <use xlink:href="#ma697f95a1e" x="59.117188" y="212.866667" style="stroke: #000000; stroke-width: 0.8"/>
      </g>
     </g>
     <g id="text_8">
      <!-- $\mathdefault{10^{2}}$ -->
      <g transform="translate(25.717188 218.565495) scale(0.15 -0.15)">
       <use xlink:href="#DejaVuSans-31" transform="translate(0 0.765625)"/>
       <use xlink:href="#DejaVuSans-30" transform="translate(63.623047 0.765625)"/>
       <use xlink:href="#DejaVuSans-32" transform="translate(128.203125 39.046875) scale(0.7)"/>
      </g>
     </g>
    </g>
    <g id="ytick_3">
     <g id="line2d_8">
      <g>
       <use xlink:href="#ma697f95a1e" x="59.117188" y="143.242425" style="stroke: #000000; stroke-width: 0.8"/>
      </g>
     </g>
     <g id="text_9">
      <!-- $\mathdefault{10^{3}}$ -->
      <g transform="translate(25.717188 148.941254) scale(0.15 -0.15)">
       <defs>
        <path id="DejaVuSans-33" d="M 2597 2516 
Q 3050 2419 3304 2112 
Q 3559 1806 3559 1356 
Q 3559 666 3084 287 
Q 2609 -91 1734 -91 
Q 1441 -91 1130 -33 
Q 819 25 488 141 
L 488 750 
Q 750 597 1062 519 
Q 1375 441 1716 441 
Q 2309 441 2620 675 
Q 2931 909 2931 1356 
Q 2931 1769 2642 2001 
Q 2353 2234 1838 2234 
L 1294 2234 
L 1294 2753 
L 1863 2753 
Q 2328 2753 2575 2939 
Q 2822 3125 2822 3475 
Q 2822 3834 2567 4026 
Q 2313 4219 1838 4219 
Q 1578 4219 1281 4162 
Q 984 4106 628 3988 
L 628 4550 
Q 988 4650 1302 4700 
Q 1616 4750 1894 4750 
Q 2613 4750 3031 4423 
Q 3450 4097 3450 3541 
Q 3450 3153 3228 2886 
Q 3006 2619 2597 2516 
z
" transform="scale(0.015625)"/>
       </defs>
       <use xlink:href="#DejaVuSans-31" transform="translate(0 0.765625)"/>
       <use xlink:href="#DejaVuSans-30" transform="translate(63.623047 0.765625)"/>
       <use xlink:href="#DejaVuSans-33" transform="translate(128.203125 39.046875) scale(0.7)"/>
      </g>
     </g>
    </g>
    <g id="ytick_4">
     <g id="line2d_9">
      <g>
       <use xlink:href="#ma697f95a1e" x="59.117188" y="73.618184" style="stroke: #000000; stroke-width: 0.8"/>
      </g>
     </g>
     <g id="text_10">
      <!-- $\mathdefault{10^{4}}$ -->
      <g transform="translate(25.717188 79.317012) scale(0.15 -0.15)">
       <use xlink:href="#DejaVuSans-31" transform="translate(0 0.684375)"/>
       <use xlink:href="#DejaVuSans-30" transform="translate(63.623047 0.684375)"/>
       <use xlink:href="#DejaVuSans-34" transform="translate(128.203125 38.965625) scale(0.7)"/>
      </g>
     </g>
    </g>
    <g id="ytick_5">
     <g id="line2d_10">
      <defs>
       <path id="mf0626c6432" d="M 0 0 
L -2 0 
" style="stroke: #000000; stroke-width: 0.6"/>
      </defs>
      <g>
       <use xlink:href="#mf0626c6432" x="59.117188" y="293.275841" style="stroke: #000000; stroke-width: 0.6"/>
      </g>
     </g>
    </g>
    <g id="ytick_6">
     <g id="line2d_11">
      <g>
       <use xlink:href="#mf0626c6432" x="59.117188" y="289.238195" style="stroke: #000000; stroke-width: 0.6"/>
      </g>
     </g>
    </g>
    <g id="ytick_7">
     <g id="line2d_12">
      <g>
       <use xlink:href="#mf0626c6432" x="59.117188" y="285.67674" style="stroke: #000000; stroke-width: 0.6"/>
      </g>
     </g>
    </g>
    <g id="ytick_8">
     <g id="line2d_13">
      <g>
       <use xlink:href="#mf0626c6432" x="59.117188" y="261.531924" style="stroke: #000000; stroke-width: 0.6"/>
      </g>
     </g>
    </g>
    <g id="ytick_9">
     <g id="line2d_14">
      <g>
       <use xlink:href="#mf0626c6432" x="59.117188" y="249.271703" style="stroke: #000000; stroke-width: 0.6"/>
      </g>
     </g>
    </g>
    <g id="ytick_10">
     <g id="line2d_15">
      <g>
       <use xlink:href="#mf0626c6432" x="59.117188" y="240.572939" style="stroke: #000000; stroke-width: 0.6"/>
      </g>
     </g>
    </g>
    <g id="ytick_11">
     <g id="line2d_16">
      <g>
       <use xlink:href="#mf0626c6432" x="59.117188" y="233.825652" style="stroke: #000000; stroke-width: 0.6"/>
      </g>
     </g>
    </g>
    <g id="ytick_12">
     <g id="line2d_17">
      <g>
       <use xlink:href="#mf0626c6432" x="59.117188" y="228.312718" style="stroke: #000000; stroke-width: 0.6"/>
      </g>
     </g>
    </g>
    <g id="ytick_13">
     <g id="line2d_18">
      <g>
       <use xlink:href="#mf0626c6432" x="59.117188" y="223.651599" style="stroke: #000000; stroke-width: 0.6"/>
      </g>
     </g>
    </g>
    <g id="ytick_14">
     <g id="line2d_19">
      <g>
       <use xlink:href="#mf0626c6432" x="59.117188" y="219.613953" style="stroke: #000000; stroke-width: 0.6"/>
      </g>
     </g>
    </g>
    <g id="ytick_15">
     <g id="line2d_20">
      <g>
       <use xlink:href="#mf0626c6432" x="59.117188" y="216.052498" style="stroke: #000000; stroke-width: 0.6"/>
      </g>
     </g>
    </g>
    <g id="ytick_16">
     <g id="line2d_21">
      <g>
       <use xlink:href="#mf0626c6432" x="59.117188" y="191.907682" style="stroke: #000000; stroke-width: 0.6"/>
      </g>
     </g>
    </g>
    <g id="ytick_17">
     <g id="line2d_22">
      <g>
       <use xlink:href="#mf0626c6432" x="59.117188" y="179.647462" style="stroke: #000000; stroke-width: 0.6"/>
      </g>
     </g>
    </g>
    <g id="ytick_18">
     <g id="line2d_23">
      <g>
       <use xlink:href="#mf0626c6432" x="59.117188" y="170.948697" style="stroke: #000000; stroke-width: 0.6"/>
      </g>
     </g>
    </g>
    <g id="ytick_19">
     <g id="line2d_24">
      <g>
       <use xlink:href="#mf0626c6432" x="59.117188" y="164.201411" style="stroke: #000000; stroke-width: 0.6"/>
      </g>
     </g>
    </g>
    <g id="ytick_20">
     <g id="line2d_25">
      <g>
       <use xlink:href="#mf0626c6432" x="59.117188" y="158.688476" style="stroke: #000000; stroke-width: 0.6"/>
      </g>
     </g>
    </g>
    <g id="ytick_21">
     <g id="line2d_26">
      <g>
       <use xlink:href="#mf0626c6432" x="59.117188" y="154.027357" style="stroke: #000000; stroke-width: 0.6"/>
      </g>
     </g>
    </g>
    <g id="ytick_22">
     <g id="line2d_27">
      <g>
       <use xlink:href="#mf0626c6432" x="59.117188" y="149.989712" style="stroke: #000000; stroke-width: 0.6"/>
      </g>
     </g>
    </g>
    <g id="ytick_23">
     <g id="line2d_28">
      <g>
       <use xlink:href="#mf0626c6432" x="59.117188" y="146.428256" style="stroke: #000000; stroke-width: 0.6"/>
      </g>
     </g>
    </g>
    <g id="ytick_24">
     <g id="line2d_29">
      <g>
       <use xlink:href="#mf0626c6432" x="59.117188" y="122.28344" style="stroke: #000000; stroke-width: 0.6"/>
      </g>
     </g>
    </g>
    <g id="ytick_25">
     <g id="line2d_30">
      <g>
       <use xlink:href="#mf0626c6432" x="59.117188" y="110.02322" style="stroke: #000000; stroke-width: 0.6"/>
      </g>
     </g>
    </g>
    <g id="ytick_26">
     <g id="line2d_31">
      <g>
       <use xlink:href="#mf0626c6432" x="59.117188" y="101.324455" style="stroke: #000000; stroke-width: 0.6"/>
      </g>
     </g>
    </g>
    <g id="ytick_27">
     <g id="line2d_32">
      <g>
       <use xlink:href="#mf0626c6432" x="59.117188" y="94.577169" style="stroke: #000000; stroke-width: 0.6"/>
      </g>
     </g>
    </g>
    <g id="ytick_28">
     <g id="line2d_33">
      <g>
       <use xlink:href="#mf0626c6432" x="59.117188" y="89.064235" style="stroke: #000000; stroke-width: 0.6"/>
      </g>
     </g>
    </g>
    <g id="ytick_29">
     <g id="line2d_34">
      <g>
       <use xlink:href="#mf0626c6432" x="59.117188" y="84.403115" style="stroke: #000000; stroke-width: 0.6"/>
      </g>
     </g>
    </g>
    <g id="ytick_30">
     <g id="line2d_35">
      <g>
       <use xlink:href="#mf0626c6432" x="59.117188" y="80.36547" style="stroke: #000000; stroke-width: 0.6"/>
      </g>
     </g>
    </g>
    <g id="ytick_31">
     <g id="line2d_36">
      <g>
       <use xlink:href="#mf0626c6432" x="59.117188" y="76.804014" style="stroke: #000000; stroke-width: 0.6"/>
      </g>
     </g>
    </g>
    <g id="ytick_32">
     <g id="line2d_37">
      <g>
       <use xlink:href="#mf0626c6432" x="59.117188" y="52.659198" style="stroke: #000000; stroke-width: 0.6"/>
      </g>
     </g>
    </g>
    <g id="ytick_33">
     <g id="line2d_38">
      <g>
       <use xlink:href="#mf0626c6432" x="59.117188" y="40.398978" style="stroke: #000000; stroke-width: 0.6"/>
      </g>
     </g>
    </g>
    <g id="ytick_34">
     <g id="line2d_39">
      <g>
       <use xlink:href="#mf0626c6432" x="59.117188" y="31.700213" style="stroke: #000000; stroke-width: 0.6"/>
      </g>
     </g>
    </g>
    <g id="ytick_35">
     <g id="line2d_40">
      <g>
       <use xlink:href="#mf0626c6432" x="59.117188" y="24.952927" style="stroke: #000000; stroke-width: 0.6"/>
      </g>
     </g>
    </g>
    <g id="ytick_36">
     <g id="line2d_41">
      <g>
       <use xlink:href="#mf0626c6432" x="59.117188" y="19.439993" style="stroke: #000000; stroke-width: 0.6"/>
      </g>
     </g>
    </g>
    <g id="ytick_37">
     <g id="line2d_42">
      <g>
       <use xlink:href="#mf0626c6432" x="59.117188" y="14.778873" style="stroke: #000000; stroke-width: 0.6"/>
      </g>
     </g>
    </g>
    <g id="ytick_38">
     <g id="line2d_43">
      <g>
       <use xlink:href="#mf0626c6432" x="59.117188" y="10.741228" style="stroke: #000000; stroke-width: 0.6"/>
      </g>
     </g>
    </g>
    <g id="text_11">
     <!-- Packet Count -->
     <g transform="translate(18.597656 200.587109) rotate(-90) scale(0.15 -0.15)">
      <defs>
       <path id="DejaVuSans-50" d="M 1259 4147 
L 1259 2394 
L 2053 2394 
Q 2494 2394 2734 2622 
Q 2975 2850 2975 3272 
Q 2975 3691 2734 3919 
Q 2494 4147 2053 4147 
L 1259 4147 
z
M 628 4666 
L 2053 4666 
Q 2838 4666 3239 4311 
Q 3641 3956 3641 3272 
Q 3641 2581 3239 2228 
Q 2838 1875 2053 1875 
L 1259 1875 
L 1259 0 
L 628 0 
L 628 4666 
z
" transform="scale(0.015625)"/>
       <path id="DejaVuSans-43" d="M 4122 4306 
L 4122 3641 
Q 3803 3938 3442 4084 
Q 3081 4231 2675 4231 
Q 1875 4231 1450 3742 
Q 1025 3253 1025 2328 
Q 1025 1406 1450 917 
Q 1875 428 2675 428 
Q 3081 428 3442 575 
Q 3803 722 4122 1019 
L 4122 359 
Q 3791 134 3420 21 
Q 3050 -91 2638 -91 
Q 1578 -91 968 557 
Q 359 1206 359 2328 
Q 359 3453 968 4101 
Q 1578 4750 2638 4750 
Q 3056 4750 3426 4639 
Q 3797 4528 4122 4306 
z
" transform="scale(0.015625)"/>
       <path id="DejaVuSans-75" d="M 544 1381 
L 544 3500 
L 1119 3500 
L 1119 1403 
Q 1119 906 1312 657 
Q 1506 409 1894 409 
Q 2359 409 2629 706 
Q 2900 1003 2900 1516 
L 2900 3500 
L 3475 3500 
L 3475 0 
L 2900 0 
L 2900 538 
Q 2691 219 2414 64 
Q 2138 -91 1772 -91 
Q 1169 -91 856 284 
Q 544 659 544 1381 
z
M 1991 3584 
L 1991 3584 
z
" transform="scale(0.015625)"/>
      </defs>
      <use xlink:href="#DejaVuSans-50"/>
      <use xlink:href="#DejaVuSans-61" x="55.802734"/>
      <use xlink:href="#DejaVuSans-63" x="117.082031"/>
      <use xlink:href="#DejaVuSans-6b" x="172.0625"/>
      <use xlink:href="#DejaVuSans-65" x="226.347656"/>
      <use xlink:href="#DejaVuSans-74" x="287.871094"/>
      <use xlink:href="#DejaVuSans-20" x="327.080078"/>
      <use xlink:href="#DejaVuSans-43" x="358.867188"/>
      <use xlink:href="#DejaVuSans-6f" x="428.691406"/>
      <use xlink:href="#DejaVuSans-75" x="489.873047"/>
      <use xlink:href="#DejaVuSans-6e" x="553.251953"/>
      <use xlink:href="#DejaVuSans-74" x="616.630859"/>
     </g>
    </g>
   </g>
   <g id="line2d_44">
    <path d="M 88.324006 21.645183 
L 127.499618 21.645183 
L 127.499618 21.645183 
L 127.499618 21.645183 
L 127.499618 25.955092 
L 165.164868 25.955092 
L 165.164868 25.955092 
L 165.164868 25.955092 
L 165.164868 37.098463 
L 201.431905 37.098463 
L 201.431905 37.098463 
L 201.431905 37.098463 
L 201.431905 43.607215 
L 236.400833 43.607215 
L 236.400833 43.607215 
L 236.400833 43.607215 
L 236.400833 58.256916 
L 270.161377 58.256916 
L 270.161377 58.256916 
L 270.161377 58.256916 
L 270.161377 64.521404 
L 302.794269 64.521404 
L 302.794269 64.521404 
L 302.794269 64.521404 
L 302.794269 75.910232 
L 334.37241 75.910232 
L 334.37241 75.910232 
L 334.37241 75.910232 
L 334.37241 82.845659 
L 364.961854 82.845659 
L 364.961854 82.845659 
L 364.961854 82.845659 
L 364.961854 90.037242 
L 394.622637 90.037242 
L 394.622637 90.037242 
L 394.622637 90.037242 
L 394.622637 96.001098 
L 423.409488 96.001098 
L 423.409488 96.001098 
L 423.409488 96.001098 
L 423.409488 106.327673 
L 451.372436 106.327673 
L 451.372436 106.327673 
L 451.372436 106.327673 
L 451.372436 108.071741 
L 478.557333 108.071741 
L 478.557333 108.071741 
L 478.557333 108.071741 
L 478.557333 114.350221 
L 505.006307 114.350221 
L 505.006307 114.350221 
L 505.006307 114.350221 
L 505.006307 120.521538 
L 530.758154 120.521538 
L 530.758154 120.521538 
L 530.758154 120.521538 
L 530.758154 119.401506 
L 555.848683 119.401506 
L 555.848683 119.401506 
L 555.848683 119.401506 
L 555.848683 128.842331 
L 580.311009 128.842331 
L 580.311009 128.842331 
L 580.311009 128.842331 
L 580.311009 131.593083 
L 604.175823 131.593083 
L 604.175823 131.593083 
L 604.175823 131.593083 
L 604.175823 139.815658 
L 627.47162 139.815658 
L 627.47162 139.815658 
L 627.47162 139.815658 
L 627.47162 143.546322 
L 650.224904 143.546322 
L 650.224904 143.546322 
L 650.224904 143.546322 
L 650.224904 149.243071 
L 672.460369 149.243071 
L 672.460369 149.243071 
" clip-path="url(#p0db8766214)" style="fill: none; stroke: #000080; stroke-opacity: 0.75; stroke-width: 2.5; stroke-linecap: square"/>
   </g>
   <g id="line2d_45">
    <path d="M 88.324006 24.898548 
L 127.499618 24.898548 
L 127.499618 24.898548 
L 127.499618 24.898548 
L 127.499618 24.259432 
L 165.164868 24.259432 
L 165.164868 24.259432 
L 165.164868 24.259432 
L 165.164868 28.286947 
L 201.431905 28.286947 
L 201.431905 28.286947 
L 201.431905 28.286947 
L 201.431905 27.004556 
L 236.400833 27.004556 
L 236.400833 27.004556 
L 236.400833 27.004556 
L 236.400833 38.034567 
L 270.161377 38.034567 
L 270.161377 38.034567 
L 270.161377 38.034567 
L 270.161377 40.419143 
L 302.794269 40.419143 
L 302.794269 40.419143 
L 302.794269 40.419143 
L 302.794269 45.863571 
L 334.37241 45.863571 
L 334.37241 45.863571 
L 334.37241 45.863571 
L 334.37241 49.558151 
L 364.961854 49.558151 
L 364.961854 49.558151 
L 364.961854 49.558151 
L 364.961854 54.210175 
L 394.622637 54.210175 
L 394.622637 54.210175 
L 394.622637 54.210175 
L 394.622637 60.308016 
L 423.409488 60.308016 
L 423.409488 60.308016 
L 423.409488 60.308016 
L 423.409488 69.130345 
L 451.372436 69.130345 
L 451.372436 69.130345 
L 451.372436 69.130345 
L 451.372436 70.544439 
L 478.557333 70.544439 
L 478.557333 70.544439 
L 478.557333 70.544439 
L 478.557333 73.678719 
L 505.006307 73.678719 
L 505.006307 73.678719 
L 505.006307 73.678719 
L 505.006307 76.205234 
L 530.758154 76.205234 
L 530.758154 76.205234 
L 530.758154 76.205234 
L 530.758154 83.593326 
L 555.848683 83.593326 
L 555.848683 83.593326 
L 555.848683 83.593326 
L 555.848683 89.778136 
L 580.311009 89.778136 
L 580.311009 89.778136 
L 580.311009 89.778136 
L 580.311009 95.373743 
L 604.175823 95.373743 
L 604.175823 95.373743 
L 604.175823 95.373743 
L 604.175823 97.29626 
L 627.47162 97.29626 
L 627.47162 97.29626 
L 627.47162 97.29626 
L 627.47162 107.3251 
L 650.224904 107.3251 
L 650.224904 107.3251 
L 650.224904 107.3251 
L 650.224904 114.937374 
L 672.460369 114.937374 
L 672.460369 114.937374 
" clip-path="url(#p0db8766214)" style="fill: none; stroke: #0080ff; stroke-opacity: 0.75; stroke-width: 2.5; stroke-linecap: square"/>
   </g>
   <g id="line2d_46">
    <path d="M 88.324006 93.919157 
L 127.499618 93.919157 
L 127.499618 93.919157 
L 127.499618 93.919157 
L 127.499618 97.362498 
L 165.164868 97.362498 
L 165.164868 97.362498 
L 165.164868 97.362498 
L 165.164868 104.426409 
L 201.431905 104.426409 
L 201.431905 104.426409 
L 201.431905 104.426409 
L 201.431905 101.023583 
L 236.400833 101.023583 
L 236.400833 101.023583 
L 236.400833 101.023583 
L 236.400833 114.819027 
L 270.161377 114.819027 
L 270.161377 114.819027 
L 270.161377 114.819027 
L 270.161377 114.583715 
L 302.794269 114.583715 
L 302.794269 114.583715 
L 302.794269 114.583715 
L 302.794269 121.536799 
L 334.37241 121.536799 
L 334.37241 121.536799 
L 334.37241 121.536799 
L 334.37241 122.894318 
L 364.961854 122.894318 
L 364.961854 122.894318 
L 364.961854 122.894318 
L 364.961854 128.100271 
L 394.622637 128.100271 
L 394.622637 128.100271 
L 394.622637 128.100271 
L 394.622637 136.495139 
L 423.409488 136.495139 
L 423.409488 136.495139 
L 423.409488 136.495139 
L 423.409488 131.593083 
L 451.372436 131.593083 
L 451.372436 131.593083 
L 451.372436 131.593083 
L 451.372436 136.495139 
L 478.557333 136.495139 
L 478.557333 136.495139 
L 478.557333 136.495139 
L 478.557333 140.915322 
L 505.006307 140.915322 
L 505.006307 140.915322 
L 505.006307 140.915322 
L 505.006307 147.802921 
L 530.758154 147.802921 
L 530.758154 147.802921 
L 530.758154 147.802921 
L 530.758154 139.815658 
L 555.848683 139.815658 
L 555.848683 139.815658 
L 555.848683 139.815658 
L 555.848683 142.643645 
L 580.311009 142.643645 
L 580.311009 142.643645 
L 580.311009 142.643645 
L 580.311009 146.428256 
L 604.175823 146.428256 
L 604.175823 146.428256 
L 604.175823 146.428256 
L 604.175823 155.351835 
L 627.47162 155.351835 
L 627.47162 155.351835 
L 627.47162 155.351835 
L 627.47162 150.755257 
L 650.224904 150.755257 
L 650.224904 150.755257 
L 650.224904 150.755257 
L 650.224904 147.107777 
L 672.460369 147.107777 
L 672.460369 147.107777 
" clip-path="url(#p0db8766214)" style="fill: none; stroke: #7bff7b; stroke-opacity: 0.75; stroke-width: 2.5; stroke-linecap: square"/>
   </g>
   <g id="line2d_47">
    <path d="M 88.324006 68.74185 
L 127.499618 68.74185 
L 127.499618 68.74185 
L 127.499618 68.74185 
L 127.499618 73.22763 
L 165.164868 73.22763 
L 165.164868 73.22763 
L 165.164868 73.22763 
L 165.164868 90.721494 
L 201.431905 90.721494 
L 201.431905 90.721494 
L 201.431905 90.721494 
L 201.431905 99.349363 
L 236.400833 99.349363 
L 236.400833 99.349363 
L 236.400833 99.349363 
L 236.400833 120.521538 
L 270.161377 120.521538 
L 270.161377 120.521538 
L 270.161377 120.521538 
L 270.161377 131.184463 
L 302.794269 131.184463 
L 302.794269 131.184463 
L 302.794269 131.184463 
L 302.794269 153.175542 
L 334.37241 153.175542 
L 334.37241 153.175542 
L 334.37241 153.175542 
L 334.37241 163.015477 
L 364.961854 163.015477 
L 364.961854 163.015477 
L 364.961854 163.015477 
L 364.961854 177.695983 
L 394.622637 177.695983 
L 394.622637 177.695983 
L 394.622637 177.695983 
L 394.622637 186.394748 
L 423.409488 186.394748 
L 423.409488 186.394748 
L 423.409488 186.394748 
L 423.409488 195.093513 
L 451.372436 195.093513 
L 451.372436 195.093513 
L 451.372436 195.093513 
L 451.372436 204.933448 
L 478.557333 204.933448 
L 478.557333 204.933448 
L 478.557333 204.933448 
L 478.557333 261.531924 
L 505.006307 261.531924 
L 505.006307 261.531924 
L 505.006307 261.531924 
L 505.006307 249.271703 
L 530.758154 249.271703 
L 530.758154 249.271703 
L 530.758154 249.271703 
L 530.758154 336.4275 
M 555.848683 336.4275 
L 555.848683 282.490909 
L 580.311009 282.490909 
L 580.311009 282.490909 
L 580.311009 282.490909 
L 580.311009 261.531924 
L 604.175823 261.531924 
L 604.175823 261.531924 
L 604.175823 261.531924 
L 604.175823 261.531924 
L 627.47162 261.531924 
L 627.47162 261.531924 
L 627.47162 261.531924 
L 627.47162 336.4275 
" clip-path="url(#p0db8766214)" style="fill: none; stroke: #ff9700; stroke-opacity: 0.75; stroke-width: 2.5; stroke-linecap: square"/>
   </g>
   <g id="line2d_48">
    <path d="M 88.324006 20.309091 
L 127.499618 20.309091 
L 127.499618 20.309091 
L 127.499618 20.309091 
L 127.499618 31.466776 
L 165.164868 31.466776 
L 165.164868 31.466776 
L 165.164868 31.466776 
L 165.164868 44.081626 
L 201.431905 44.081626 
L 201.431905 44.081626 
L 201.431905 44.081626 
L 201.431905 50.03954 
L 236.400833 50.03954 
L 236.400833 50.03954 
L 236.400833 50.03954 
L 236.400833 65.918459 
L 270.161377 65.918459 
L 270.161377 65.918459 
L 270.161377 65.918459 
L 270.161377 73.287388 
L 302.794269 73.287388 
L 302.794269 73.287388 
L 302.794269 73.287388 
L 302.794269 78.674967 
L 334.37241 78.674967 
L 334.37241 78.674967 
L 334.37241 78.674967 
L 334.37241 84.925965 
L 364.961854 84.925965 
L 364.961854 84.925965 
L 364.961854 84.925965 
L 364.961854 89.572439 
L 394.622637 89.572439 
L 394.622637 89.572439 
L 394.622637 89.572439 
L 394.622637 94.516754 
L 423.409488 94.516754 
L 423.409488 94.516754 
L 423.409488 94.516754 
L 423.409488 103.275934 
L 451.372436 103.275934 
L 451.372436 103.275934 
L 451.372436 103.275934 
L 451.372436 105.3621 
L 478.557333 105.3621 
L 478.557333 105.3621 
L 478.557333 105.3621 
L 478.557333 109.129438 
L 505.006307 109.129438 
L 505.006307 109.129438 
L 505.006307 109.129438 
L 505.006307 115.056185 
L 530.758154 115.056185 
L 530.758154 115.056185 
L 530.758154 115.056185 
L 530.758154 114.234146 
L 555.848683 114.234146 
L 555.848683 114.234146 
L 555.848683 114.234146 
L 555.848683 124.154393 
L 580.311009 124.154393 
L 580.311009 124.154393 
L 580.311009 124.154393 
L 580.311009 124.154393 
L 604.175823 124.154393 
L 604.175823 124.154393 
L 604.175823 124.154393 
L 604.175823 129.603061 
L 627.47162 129.603061 
L 627.47162 129.603061 
L 627.47162 129.603061 
L 627.47162 132.853158 
L 650.224904 132.853158 
L 650.224904 132.853158 
L 650.224904 132.853158 
L 650.224904 145.113378 
L 672.460369 145.113378 
L 672.460369 145.113378 
" clip-path="url(#p0db8766214)" style="fill: none; stroke: #800000; stroke-opacity: 0.75; stroke-width: 2.5; stroke-linecap: square"/>
   </g>
   <g id="patch_3">
    <path d="M 59.117188 295.6 
L 59.117188 7.2 
" style="fill: none; stroke: #000000; stroke-width: 0.8; stroke-linejoin: miter; stroke-linecap: square"/>
   </g>
   <g id="patch_4">
    <path d="M 701.667187 295.6 
L 701.667187 7.2 
" style="fill: none; stroke: #000000; stroke-width: 0.8; stroke-linejoin: miter; stroke-linecap: square"/>
   </g>
   <g id="patch_5">
    <path d="M 59.117188 295.6 
L 701.667187 295.6 
" style="fill: none; stroke: #000000; stroke-width: 0.8; stroke-linejoin: miter; stroke-linecap: square"/>
   </g>
   <g id="patch_6">
    <path d="M 59.117188 7.2 
L 701.667187 7.2 
" style="fill: none; stroke: #000000; stroke-width: 0.8; stroke-linejoin: miter; stroke-linecap: square"/>
   </g>
   <g id="legend_1">
    <g id="patch_7">
     <path d="M 712.167187 129.285937 
L 791.899219 129.285937 
Q 794.899219 129.285937 794.899219 126.285937 
L 794.899219 17.7 
Q 794.899219 14.7 791.899219 14.7 
L 712.167187 14.7 
Q 709.167187 14.7 709.167187 17.7 
L 709.167187 126.285937 
Q 709.167187 129.285937 712.167187 129.285937 
z
" style="fill: #ffffff; opacity: 0.8; stroke: #cccccc; stroke-linejoin: miter"/>
    </g>
    <g id="line2d_49">
     <path d="M 715.167187 26.847656 
L 730.167187 26.847656 
L 730.167187 26.847656 
L 745.167187 26.847656 
L 745.167187 26.847656 
" style="fill: none; stroke: #000080; stroke-opacity: 0.75; stroke-width: 2.5; stroke-linecap: square"/>
    </g>
    <g id="text_12">
     <!-- Si II -->
     <g transform="translate(757.167187 32.097656) scale(0.15 -0.15)">
      <defs>
       <path id="DejaVuSans-53" d="M 3425 4513 
L 3425 3897 
Q 3066 4069 2747 4153 
Q 2428 4238 2131 4238 
Q 1616 4238 1336 4038 
Q 1056 3838 1056 3469 
Q 1056 3159 1242 3001 
Q 1428 2844 1947 2747 
L 2328 2669 
Q 3034 2534 3370 2195 
Q 3706 1856 3706 1288 
Q 3706 609 3251 259 
Q 2797 -91 1919 -91 
Q 1588 -91 1214 -16 
Q 841 59 441 206 
L 441 856 
Q 825 641 1194 531 
Q 1563 422 1919 422 
Q 2459 422 2753 634 
Q 3047 847 3047 1241 
Q 3047 1584 2836 1778 
Q 2625 1972 2144 2069 
L 1759 2144 
Q 1053 2284 737 2584 
Q 422 2884 422 3419 
Q 422 4038 858 4394 
Q 1294 4750 2059 4750 
Q 2388 4750 2728 4690 
Q 3069 4631 3425 4513 
z
" transform="scale(0.015625)"/>
      </defs>
      <use xlink:href="#DejaVuSans-53"/>
      <use xlink:href="#DejaVuSans-69" x="63.476562"/>
      <use xlink:href="#DejaVuSans-20" x="91.259766"/>
      <use xlink:href="#DejaVuSans-49" x="123.046875"/>
      <use xlink:href="#DejaVuSans-49" x="152.539062"/>
     </g>
    </g>
    <g id="line2d_50">
     <path d="M 715.167187 48.864844 
L 730.167187 48.864844 
L 730.167187 48.864844 
L 745.167187 48.864844 
L 745.167187 48.864844 
" style="fill: none; stroke: #0080ff; stroke-opacity: 0.75; stroke-width: 2.5; stroke-linecap: square"/>
    </g>
    <g id="text_13">
     <!-- Si III -->
     <g transform="translate(757.167187 54.114844) scale(0.15 -0.15)">
      <use xlink:href="#DejaVuSans-53"/>
      <use xlink:href="#DejaVuSans-69" x="63.476562"/>
      <use xlink:href="#DejaVuSans-20" x="91.259766"/>
      <use xlink:href="#DejaVuSans-49" x="123.046875"/>
      <use xlink:href="#DejaVuSans-49" x="152.539062"/>
      <use xlink:href="#DejaVuSans-49" x="182.03125"/>
     </g>
    </g>
    <g id="line2d_51">
     <path d="M 715.167187 70.882031 
L 730.167187 70.882031 
L 730.167187 70.882031 
L 745.167187 70.882031 
L 745.167187 70.882031 
" style="fill: none; stroke: #7bff7b; stroke-opacity: 0.75; stroke-width: 2.5; stroke-linecap: square"/>
    </g>
    <g id="text_14">
     <!-- O -->
     <g transform="translate(757.167187 76.132031) scale(0.15 -0.15)">
      <defs>
       <path id="DejaVuSans-4f" d="M 2522 4238 
Q 1834 4238 1429 3725 
Q 1025 3213 1025 2328 
Q 1025 1447 1429 934 
Q 1834 422 2522 422 
Q 3209 422 3611 934 
Q 4013 1447 4013 2328 
Q 4013 3213 3611 3725 
Q 3209 4238 2522 4238 
z
M 2522 4750 
Q 3503 4750 4090 4092 
Q 4678 3434 4678 2328 
Q 4678 1225 4090 567 
Q 3503 -91 2522 -91 
Q 1538 -91 948 565 
Q 359 1222 359 2328 
Q 359 3434 948 4092 
Q 1538 4750 2522 4750 
z
" transform="scale(0.015625)"/>
      </defs>
      <use xlink:href="#DejaVuSans-4f"/>
     </g>
    </g>
    <g id="line2d_52">
     <path d="M 715.167187 92.899219 
L 730.167187 92.899219 
L 730.167187 92.899219 
L 745.167187 92.899219 
L 745.167187 92.899219 
" style="fill: none; stroke: #ff9700; stroke-opacity: 0.75; stroke-width: 2.5; stroke-linecap: square"/>
    </g>
    <g id="text_15">
     <!-- Ca -->
     <g transform="translate(757.167187 98.149219) scale(0.15 -0.15)">
      <use xlink:href="#DejaVuSans-43"/>
      <use xlink:href="#DejaVuSans-61" x="69.824219"/>
     </g>
    </g>
    <g id="line2d_53">
     <path d="M 715.167187 114.916406 
L 730.167187 114.916406 
L 730.167187 114.916406 
L 745.167187 114.916406 
L 745.167187 114.916406 
" style="fill: none; stroke: #800000; stroke-opacity: 0.75; stroke-width: 2.5; stroke-linecap: square"/>
    </g>
    <g id="text_16">
     <!-- S -->
     <g transform="translate(757.167187 120.166406) scale(0.15 -0.15)">
      <use xlink:href="#DejaVuSans-53"/>
     </g>
    </g>
   </g>
  </g>
 </g>
 <defs>
  <clipPath id="p0db8766214">
   <rect x="59.117188" y="7.2" width="642.55" height="288.4"/>
  </clipPath>
 </defs>
</svg>
