<?xml version="1.0" encoding="utf-8" standalone="no"?>
<!DOCTYPE svg PUBLIC "-//W3C//DTD SVG 1.1//EN"
  "http://www.w3.org/Graphics/SVG/1.1/DTD/svg11.dtd">
<svg xmlns:xlink="http://www.w3.org/1999/xlink" width="475.2pt" height="360pt" viewBox="0 0 475.2 360" xmlns="http://www.w3.org/2000/svg" version="1.1">
 <metadata>
  <rdf:RDF xmlns:dc="http://purl.org/dc/elements/1.1/" xmlns:cc="http://creativecommons.org/ns#" xmlns:rdf="http://www.w3.org/1999/02/22-rdf-syntax-ns#">
   <cc:Work>
    <dc:type rdf:resource="http://purl.org/dc/dcmitype/StillImage"/>
    <dc:date>2024-06-08T11:26:57.712401</dc:date>
    <dc:format>image/svg+xml</dc:format>
    <dc:creator>
     <cc:Agent>
      <dc:title>Matplotlib v3.8.4, https://matplotlib.org/</dc:title>
     </cc:Agent>
    </dc:creator>
   </cc:Work>
  </rdf:RDF>
 </metadata>
 <defs>
  <style type="text/css">*{stroke-linejoin: round; stroke-linecap: butt}</style>
 </defs>
 <g id="figure_1">
  <g id="patch_1">
   <path d="M 0 360 
L 475.2 360 
L 475.2 0 
L 0 0 
z
" style="fill: #ffffff"/>
  </g>
  <g id="axes_1">
   <g id="patch_2">
    <path d="M 127.225994 182.08429 
Q 133.318748 193.861702 138.897787 204.646092 
" clip-path="url(#p044d73a7b3)" style="fill: none; stroke: #000000; stroke-linecap: round"/>
    <path d="M 138.836234 200.174379 
L 138.897787 204.646092 
L 135.283485 202.012307 
z
" clip-path="url(#p044d73a7b3)" style="stroke: #000000; stroke-linecap: round"/>
   </g>
   <g id="patch_3">
    <path d="M 126.718774 166.460136 
Q 150.124722 113.016045 173.082152 60.596079 
" clip-path="url(#p044d73a7b3)" style="fill: none; stroke: #000000; stroke-linecap: round"/>
    <path d="M 169.645476 63.457768 
L 173.082152 60.596079 
L 173.309497 65.062433 
z
" clip-path="url(#p044d73a7b3)" style="stroke: #000000; stroke-linecap: round"/>
   </g>
   <g id="patch_4">
    <path d="M 119.192272 182.043957 
Q 92.541436 232.36531 66.41387 281.69864 
" clip-path="url(#p044d73a7b3)" style="fill: none; stroke: #000000; stroke-linecap: round"/>
    <path d="M 70.053405 279.099835 
L 66.41387 281.69864 
L 66.518547 277.227729 
z
" clip-path="url(#p044d73a7b3)" style="stroke: #000000; stroke-linecap: round"/>
   </g>
   <g id="patch_5">
    <path d="M 170.85135 163.452102 
Q 169.332406 165.429402 168.49456 166.520076 
" clip-path="url(#p044d73a7b3)" style="fill: none; stroke: #000000; stroke-linecap: round"/>
    <path d="M 172.517375 164.566371 
L 168.49456 166.520076 
L 169.345285 162.129601 
z
" clip-path="url(#p044d73a7b3)" style="stroke: #000000; stroke-linecap: round"/>
   </g>
   <g id="patch_6">
    <path d="M 151.134071 241.959397 
Q 141.00995 243.572421 131.989937 245.009534 
" clip-path="url(#p044d73a7b3)" style="fill: none; stroke: #000000; stroke-linecap: round"/>
    <path d="M 136.254795 246.355261 
L 131.989937 245.009534 
L 135.625434 242.405083 
z
" clip-path="url(#p044d73a7b3)" style="stroke: #000000; stroke-linecap: round"/>
   </g>
   <g id="patch_7">
    <path d="M 121.078134 265.708096 
Q 105.017183 266.700259 90.072138 267.623487 
" clip-path="url(#p044d73a7b3)" style="fill: none; stroke: #000000; stroke-linecap: round"/>
    <path d="M 94.187843 269.373052 
L 90.072138 267.623487 
L 93.941213 265.380663 
z
" clip-path="url(#p044d73a7b3)" style="stroke: #000000; stroke-linecap: round"/>
   </g>
   <g id="patch_8">
    <path d="M 135.800025 193.899564 
Q 125.181757 217.262277 115.026093 239.60715 
" clip-path="url(#p044d73a7b3)" style="fill: none; stroke: #000000; stroke-linecap: round"/>
    <path d="M 118.501923 236.793149 
L 115.026093 239.60715 
L 114.86039 235.138085 
z
" clip-path="url(#p044d73a7b3)" style="stroke: #000000; stroke-linecap: round"/>
   </g>
   <g id="patch_9">
    <path d="M 135.621339 193.814964 
Q 118.254137 229.821351 101.372654 264.820724 
" clip-path="url(#p044d73a7b3)" style="fill: none; stroke: #000000; stroke-linecap: round"/>
    <path d="M 104.911818 262.086804 
L 101.372654 264.820724 
L 101.309017 260.349041 
z
" clip-path="url(#p044d73a7b3)" style="stroke: #000000; stroke-linecap: round"/>
   </g>
   <g id="patch_10">
    <path d="M 145.961386 191.645674 
Q 163.581257 206.726129 180.351722 221.079596 
" clip-path="url(#p044d73a7b3)" style="fill: none; stroke: #000000; stroke-linecap: round"/>
    <path d="M 178.613271 216.959185 
L 180.351722 221.079596 
L 176.012322 219.998111 
z
" clip-path="url(#p044d73a7b3)" style="stroke: #000000; stroke-linecap: round"/>
   </g>
   <g id="patch_11">
    <path d="M 132.777569 191.616183 
Q 88.595688 229.075448 45.26659 265.811688 
" clip-path="url(#p044d73a7b3)" style="fill: none; stroke: #000000; stroke-linecap: round"/>
    <path d="M 49.610978 264.75042 
L 45.26659 265.811688 
L 47.024208 261.699416 
z
" clip-path="url(#p044d73a7b3)" style="stroke: #000000; stroke-linecap: round"/>
   </g>
   <g id="patch_12">
    <path d="M 143.912165 178.630954 
Q 185.229298 111.260962 225.961922 44.844045 
" clip-path="url(#p044d73a7b3)" style="fill: none; stroke: #000000; stroke-linecap: round"/>
    <path d="M 222.165812 47.208267 
L 225.961922 44.844045 
L 225.575634 49.299466 
z
" clip-path="url(#p044d73a7b3)" style="stroke: #000000; stroke-linecap: round"/>
   </g>
   <g id="patch_13">
    <path d="M 84.978107 304.046379 
Q 77.132674 299.398345 70.249137 295.320187 
" clip-path="url(#p044d73a7b3)" style="fill: none; stroke: #000000; stroke-linecap: round"/>
    <path d="M 72.671093 299.079726 
L 70.249137 295.320187 
L 74.709941 295.638346 
z
" clip-path="url(#p044d73a7b3)" style="stroke: #000000; stroke-linecap: round"/>
   </g>
   <g id="patch_14">
    <path d="M 184.170222 49.092759 
Q 180.586806 50.367631 178.056746 51.267749 
" clip-path="url(#p044d73a7b3)" style="fill: none; stroke: #000000; stroke-linecap: round"/>
    <path d="M 182.495728 51.811296 
L 178.056746 51.267749 
L 181.154973 48.042692 
z
" clip-path="url(#p044d73a7b3)" style="stroke: #000000; stroke-linecap: round"/>
   </g>
   <g id="patch_15">
    <path d="M 152.04963 213.531843 
Q 164.173711 213.810216 175.180051 214.062925 
" clip-path="url(#p044d73a7b3)" style="fill: none; stroke: #000000; stroke-linecap: round"/>
    <path d="M 171.227014 211.971635 
L 175.180051 214.062925 
L 171.135197 215.970581 
z
" clip-path="url(#p044d73a7b3)" style="stroke: #000000; stroke-linecap: round"/>
   </g>
   <g id="patch_16">
    <path d="M 134.754373 214.002834 
Q 116.958991 215.382758 100.278297 216.676245 
" clip-path="url(#p044d73a7b3)" style="fill: none; stroke: #000000; stroke-linecap: round"/>
    <path d="M 104.420949 218.361012 
L 100.278297 216.676245 
L 104.111701 214.372984 
z
" clip-path="url(#p044d73a7b3)" style="stroke: #000000; stroke-linecap: round"/>
   </g>
   <g id="patch_17">
    <path d="M 149.364034 219.606924 
Q 150.623186 220.929664 151.111472 221.442609 
" clip-path="url(#p044d73a7b3)" style="fill: none; stroke: #000000; stroke-linecap: round"/>
    <path d="M 149.802146 217.166435 
L 151.111472 221.442609 
L 146.904937 219.924365 
z
" clip-path="url(#p044d73a7b3)" style="stroke: #000000; stroke-linecap: round"/>
   </g>
   <g id="patch_18">
    <path d="M 106.102458 255.661531 
Q 98.748998 266.445011 92.025432 276.304783 
" clip-path="url(#p044d73a7b3)" style="fill: none; stroke: #000000; stroke-linecap: round"/>
    <path d="M 95.931384 274.126816 
L 92.025432 276.304783 
L 92.62663 271.873242 
z
" clip-path="url(#p044d73a7b3)" style="stroke: #000000; stroke-linecap: round"/>
   </g>
   <g id="patch_19">
    <path d="M 102.838978 251.458858 
Q 101.386702 251.985284 100.985535 252.1307 
" clip-path="url(#p044d73a7b3)" style="fill: none; stroke: #000000; stroke-linecap: round"/>
    <path d="M 105.427671 252.647841 
L 100.985535 252.1307 
L 104.064529 248.887276 
z
" clip-path="url(#p044d73a7b3)" style="stroke: #000000; stroke-linecap: round"/>
   </g>
   <g id="patch_20">
    <path d="M 102.966386 251.783057 
Q 86.456838 258.53046 70.982226 264.854888 
" clip-path="url(#p044d73a7b3)" style="fill: none; stroke: #000000; stroke-linecap: round"/>
    <path d="M 75.441566 265.192955 
L 70.982226 264.854888 
L 73.928284 261.490257 
z
" clip-path="url(#p044d73a7b3)" style="stroke: #000000; stroke-linecap: round"/>
   </g>
   <g id="patch_21">
    <path d="M 106.219803 241.2736 
Q 100.754064 232.969013 95.902987 225.598336 
" clip-path="url(#p044d73a7b3)" style="fill: none; stroke: #000000; stroke-linecap: round"/>
    <path d="M 96.431438 230.03914 
L 95.902987 225.598336 
L 99.772701 227.840058 
z
" clip-path="url(#p044d73a7b3)" style="stroke: #000000; stroke-linecap: round"/>
   </g>
   <g id="patch_22">
    <path d="M 102.567864 250.566298 
Q 93.979796 252.667879 86.477719 254.503707 
" clip-path="url(#p044d73a7b3)" style="fill: none; stroke: #000000; stroke-linecap: round"/>
    <path d="M 90.838469 255.495603 
L 86.477719 254.503707 
L 89.887686 251.610245 
z
" clip-path="url(#p044d73a7b3)" style="stroke: #000000; stroke-linecap: round"/>
   </g>
   <g id="patch_23">
    <path d="M 91.040153 279.797458 
Q 88.777851 282.091105 87.300661 283.588762 
" clip-path="url(#p044d73a7b3)" style="fill: none; stroke: #000000; stroke-linecap: round"/>
    <path d="M 91.533471 282.145393 
L 87.300661 283.588762 
L 88.685652 279.336492 
z
" clip-path="url(#p044d73a7b3)" style="stroke: #000000; stroke-linecap: round"/>
   </g>
   <g id="patch_24">
    <path d="M 98.266702 265.04262 
Q 98.529116 263.070898 98.644032 262.207439 
" clip-path="url(#p044d73a7b3)" style="fill: none; stroke: #000000; stroke-linecap: round"/>
    <path d="M 96.133811 265.908626 
L 98.644032 262.207439 
L 100.098849 266.436328 
z
" clip-path="url(#p044d73a7b3)" style="stroke: #000000; stroke-linecap: round"/>
   </g>
   <g id="patch_25">
    <path d="M 88.878232 270.979353 
Q 88.717204 270.927601 89.62059 271.21794 
" clip-path="url(#p044d73a7b3)" style="fill: none; stroke: #000000; stroke-linecap: round"/>
    <path d="M 92.816795 274.345922 
L 89.62059 271.21794 
L 94.040698 270.537764 
z
" clip-path="url(#p044d73a7b3)" style="stroke: #000000; stroke-linecap: round"/>
   </g>
   <g id="patch_26">
    <path d="M 88.553075 272.393546 
Q 79.526457 271.091941 71.606429 269.949903 
" clip-path="url(#p044d73a7b3)" style="fill: none; stroke: #000000; stroke-linecap: round"/>
    <path d="M 75.280041 272.500309 
L 71.606429 269.949903 
L 75.850921 268.541257 
z
" clip-path="url(#p044d73a7b3)" style="stroke: #000000; stroke-linecap: round"/>
   </g>
   <g id="patch_27">
    <path d="M 89.297569 277.335283 
Q 79.481483 281.983317 70.675873 286.152878 
" clip-path="url(#p044d73a7b3)" style="fill: none; stroke: #000000; stroke-linecap: round"/>
    <path d="M 75.146984 286.248638 
L 70.675873 286.152878 
L 73.435147 282.633446 
z
" clip-path="url(#p044d73a7b3)" style="stroke: #000000; stroke-linecap: round"/>
   </g>
   <g id="patch_28">
    <path d="M 129.657863 236.034919 
Q 139.572189 233.394377 148.406143 231.041578 
" clip-path="url(#p044d73a7b3)" style="fill: none; stroke: #000000; stroke-linecap: round"/>
    <path d="M 144.026157 230.138406 
L 148.406143 231.041578 
L 145.055614 234.003664 
z
" clip-path="url(#p044d73a7b3)" style="stroke: #000000; stroke-linecap: round"/>
   </g>
   <g id="patch_29">
    <path d="M 113.302766 241.609804 
Q 99.134192 247.545995 85.996805 253.050152 
" clip-path="url(#p044d73a7b3)" style="fill: none; stroke: #000000; stroke-linecap: round"/>
    <path d="M 90.458938 253.349099 
L 85.996805 253.050152 
L 88.913242 249.659814 
z
" clip-path="url(#p044d73a7b3)" style="stroke: #000000; stroke-linecap: round"/>
   </g>
   <g id="patch_30">
    <path d="M 121.288822 238.263895 
Q 121.810196 242.406123 122.191947 245.43907 
" clip-path="url(#p044d73a7b3)" style="fill: none; stroke: #000000; stroke-linecap: round"/>
    <path d="M 123.67676 241.220619 
L 122.191947 245.43907 
L 119.708074 241.720149 
z
" clip-path="url(#p044d73a7b3)" style="stroke: #000000; stroke-linecap: round"/>
   </g>
   <g id="patch_31">
    <path d="M 177.288713 218.314365 
Q 171.403886 221.406204 166.508804 223.978039 
" clip-path="url(#p044d73a7b3)" style="fill: none; stroke: #000000; stroke-linecap: round"/>
    <path d="M 170.980036 223.888127 
L 166.508804 223.978039 
L 169.119614 220.347106 
z
" clip-path="url(#p044d73a7b3)" style="stroke: #000000; stroke-linecap: round"/>
   </g>
   <g id="patch_32">
    <path d="M 179.124665 227.750987 
Q 172.816344 227.98064 167.625317 228.169617 
" clip-path="url(#p044d73a7b3)" style="fill: none; stroke: #000000; stroke-linecap: round"/>
    <path d="M 171.69543 230.022771 
L 167.625317 228.169617 
L 171.549908 226.025419 
z
" clip-path="url(#p044d73a7b3)" style="stroke: #000000; stroke-linecap: round"/>
   </g>
   <g id="patch_33">
    <path d="M 79.231671 279.69483 
Q 74.220855 276.46848 70.150068 273.847394 
" clip-path="url(#p044d73a7b3)" style="fill: none; stroke: #000000; stroke-linecap: round"/>
    <path d="M 72.430492 277.694427 
L 70.150068 273.847394 
L 74.595949 274.331274 
z
" clip-path="url(#p044d73a7b3)" style="stroke: #000000; stroke-linecap: round"/>
   </g>
   <g id="patch_34">
    <path d="M 91.957266 255.879105 
Q 80.933401 260.532605 70.939559 264.751302 
" clip-path="url(#p044d73a7b3)" style="fill: none; stroke: #000000; stroke-linecap: round"/>
    <path d="M 75.402479 265.038264 
L 70.939559 264.751302 
L 73.84688 261.353143 
z
" clip-path="url(#p044d73a7b3)" style="stroke: #000000; stroke-linecap: round"/>
   </g>
   <g id="patch_35">
    <path d="M 88.817013 266.592945 
Q 90.774865 266.216907 91.634752 266.051752 
" clip-path="url(#p044d73a7b3)" style="fill: none; stroke: #000000; stroke-linecap: round"/>
    <path d="M 87.329312 264.842127 
L 91.634752 266.051752 
L 88.083788 268.770329 
z
" clip-path="url(#p044d73a7b3)" style="stroke: #000000; stroke-linecap: round"/>
   </g>
   <g id="patch_36">
    <path d="M 71.686656 269.019559 
Q 59.058955 270.180718 47.544592 271.239501 
" clip-path="url(#p044d73a7b3)" style="fill: none; stroke: #000000; stroke-linecap: round"/>
    <path d="M 51.710921 272.864831 
L 47.544592 271.239501 
L 51.344653 268.881636 
z
" clip-path="url(#p044d73a7b3)" style="stroke: #000000; stroke-linecap: round"/>
   </g>
   <g id="patch_37">
    <path d="M 70.587067 268.400017 
Q 71.121297 268.39048 70.537671 268.400899 
" clip-path="url(#p044d73a7b3)" style="fill: none; stroke: #000000; stroke-linecap: round"/>
    <path d="M 66.502609 266.472618 
L 70.537671 268.400899 
L 66.574009 270.471981 
z
" clip-path="url(#p044d73a7b3)" style="stroke: #000000; stroke-linecap: round"/>
   </g>
   <g id="patch_38">
    <path d="M 53.364383 269.825901 
Q 49.868548 270.34477 47.478631 270.699493 
" clip-path="url(#p044d73a7b3)" style="fill: none; stroke: #000000; stroke-linecap: round"/>
    <path d="M 51.728919 272.090554 
L 47.478631 270.699493 
L 51.141653 268.133899 
z
" clip-path="url(#p044d73a7b3)" style="stroke: #000000; stroke-linecap: round"/>
   </g>
   <g id="patch_39">
    <path d="M 157.60025 181.383766 
Q 136.761818 211.387492 116.56116 240.472934 
" clip-path="url(#p044d73a7b3)" style="fill: none; stroke: #000000; stroke-linecap: round"/>
    <path d="M 120.485605 238.328467 
L 116.56116 240.472934 
L 117.200254 236.046698 
z
" clip-path="url(#p044d73a7b3)" style="stroke: #000000; stroke-linecap: round"/>
   </g>
   <g id="patch_40">
    <path d="M 157.778048 181.504078 
Q 129.832305 223.949831 102.501374 265.461771 
" clip-path="url(#p044d73a7b3)" style="fill: none; stroke: #000000; stroke-linecap: round"/>
    <path d="M 106.371444 263.220665 
L 102.501374 265.461771 
L 103.030531 261.021051 
z
" clip-path="url(#p044d73a7b3)" style="stroke: #000000; stroke-linecap: round"/>
   </g>
   <g id="patch_41">
    <path d="M 166.253356 182.095754 
Q 175.158856 200.854209 183.584865 218.602669 
" clip-path="url(#p044d73a7b3)" style="fill: none; stroke: #000000; stroke-linecap: round"/>
    <path d="M 183.67612 214.131464 
L 183.584865 218.602669 
L 180.062654 215.846942 
z
" clip-path="url(#p044d73a7b3)" style="stroke: #000000; stroke-linecap: round"/>
   </g>
   <g id="patch_42">
    <path d="M 166.398172 166.515549 
Q 196.807255 105.389428 226.718355 45.264314 
" clip-path="url(#p044d73a7b3)" style="fill: none; stroke: #000000; stroke-linecap: round"/>
    <path d="M 223.146067 47.954807 
L 226.718355 45.264314 
L 226.727377 49.736441 
z
" clip-path="url(#p044d73a7b3)" style="stroke: #000000; stroke-linecap: round"/>
   </g>
   <g id="patch_43">
    <path d="M 54.936528 285.109023 
Q 49.823499 281.235902 45.601679 278.037872 
" clip-path="url(#p044d73a7b3)" style="fill: none; stroke: #000000; stroke-linecap: round"/>
    <path d="M 47.582525 282.047392 
L 45.601679 278.037872 
L 49.997802 278.858908 
z
" clip-path="url(#p044d73a7b3)" style="stroke: #000000; stroke-linecap: round"/>
   </g>
   <g id="patch_44">
    <path d="M 94.821376 224.951443 
Q 96.193903 227.355443 97.012092 228.788512 
" clip-path="url(#p044d73a7b3)" style="fill: none; stroke: #000000; stroke-linecap: round"/>
    <path d="M 96.765685 224.32317 
L 97.012092 228.788512 
L 93.291974 226.306432 
z
" clip-path="url(#p044d73a7b3)" style="stroke: #000000; stroke-linecap: round"/>
   </g>
   <g id="patch_45">
    <path d="M 150.130947 232.44368 
Q 140.09134 237.537512 131.048776 242.125471 
" clip-path="url(#p044d73a7b3)" style="fill: none; stroke: #000000; stroke-linecap: round"/>
    <path d="M 135.520834 242.099168 
L 131.048776 242.125471 
L 133.710969 238.532043 
z
" clip-path="url(#p044d73a7b3)" style="stroke: #000000; stroke-linecap: round"/>
   </g>
   <g id="patch_46">
    <path d="M 110.508219 237.719592 
Q 111.572856 237.773345 111.520881 237.770721 
" clip-path="url(#p044d73a7b3)" style="fill: none; stroke: #000000; stroke-linecap: round"/>
    <path d="M 107.62682 235.571566 
L 111.520881 237.770721 
L 107.42512 239.566477 
z
" clip-path="url(#p044d73a7b3)" style="stroke: #000000; stroke-linecap: round"/>
   </g>
   <g id="patch_47">
    <path d="M 95.049195 242.634489 
Q 89.419157 247.056921 84.668339 250.788721 
" clip-path="url(#p044d73a7b3)" style="fill: none; stroke: #000000; stroke-linecap: round"/>
    <path d="M 89.049371 249.890634 
L 84.668339 250.788721 
L 86.578488 246.745043 
z
" clip-path="url(#p044d73a7b3)" style="stroke: #000000; stroke-linecap: round"/>
   </g>
   <g id="patch_48">
    <path d="M 92.649498 265.280545 
Q 69.525281 268.170695 47.510467 270.922188 
" clip-path="url(#p044d73a7b3)" style="fill: none; stroke: #000000; stroke-linecap: round"/>
    <path d="M 51.727624 272.410672 
L 47.510467 270.922188 
L 51.231549 268.441553 
z
" clip-path="url(#p044d73a7b3)" style="stroke: #000000; stroke-linecap: round"/>
   </g>
   <g id="patch_49">
    <path d="M 79.410205 265.140215 
Q 79.861317 266.683303 79.99871 267.153274 
" clip-path="url(#p044d73a7b3)" style="fill: none; stroke: #000000; stroke-linecap: round"/>
    <path d="M 80.795965 262.752776 
L 79.99871 267.153274 
L 76.956664 263.875171 
z
" clip-path="url(#p044d73a7b3)" style="stroke: #000000; stroke-linecap: round"/>
   </g>
   <g id="patch_50">
    <path d="M 70.149446 262.150113 
Q 69.456117 262.690333 69.644716 262.543383 
" clip-path="url(#p044d73a7b3)" style="fill: none; stroke: #000000; stroke-linecap: round"/>
    <path d="M 74.029245 261.662528 
L 69.644716 262.543383 
L 71.57075 258.507247 
z
" clip-path="url(#p044d73a7b3)" style="stroke: #000000; stroke-linecap: round"/>
   </g>
   <g id="patch_51">
    <path d="M 113.886305 248.462583 
Q 99.656797 251.687889 86.517665 254.666048 
" clip-path="url(#p044d73a7b3)" style="fill: none; stroke: #000000; stroke-linecap: round"/>
    <path d="M 90.860821 255.732347 
L 86.517665 254.666048 
L 89.976597 251.831302 
z
" clip-path="url(#p044d73a7b3)" style="stroke: #000000; stroke-linecap: round"/>
   </g>
   <g id="PathCollection_1">
    <defs>
     <path id="m6ef528260e" d="M 0 8.660254 
C 2.296726 8.660254 4.499694 7.747755 6.123724 6.123724 
C 7.747755 4.499694 8.660254 2.296726 8.660254 0 
C 8.660254 -2.296726 7.747755 -4.499694 6.123724 -6.123724 
C 4.499694 -7.747755 2.296726 -8.660254 0 -8.660254 
C -2.296726 -8.660254 -4.499694 -7.747755 -6.123724 -6.123724 
C -7.747755 -4.499694 -8.660254 -2.296726 -8.660254 0 
C -8.660254 2.296726 -7.747755 4.499694 -6.123724 6.123724 
C -4.499694 7.747755 -2.296726 8.660254 0 8.660254 
z
" style="stroke: #1f78b4"/>
    </defs>
    <g clip-path="url(#p044d73a7b3)">
     <use xlink:href="#m6ef528260e" x="123.245722" y="174.390348" style="fill: #1f78b4; stroke: #1f78b4"/>
     <use xlink:href="#m6ef528260e" x="176.127888" y="156.583316" style="fill: #1f78b4; stroke: #1f78b4"/>
     <use xlink:href="#m6ef528260e" x="159.683175" y="240.597312" style="fill: #1f78b4; stroke: #1f78b4"/>
     <use xlink:href="#m6ef528260e" x="129.724674" y="265.173957" style="fill: #1f78b4; stroke: #1f78b4"/>
     <use xlink:href="#m6ef528260e" x="139.383258" y="186.015601" style="fill: #1f78b4; stroke: #1f78b4"/>
     <use xlink:href="#m6ef528260e" x="92.427384" y="308.45971" style="fill: #1f78b4; stroke: #1f78b4"/>
     <use xlink:href="#m6ef528260e" x="192.332551" y="46.188849" style="fill: #1f78b4; stroke: #1f78b4"/>
     <use xlink:href="#m6ef528260e" x="60.334971" y="297.204448" style="fill: #1f78b4; stroke: #1f78b4"/>
     <use xlink:href="#m6ef528260e" x="405.294367" y="101.528994" style="fill: #1f78b4; stroke: #1f78b4"/>
     <use xlink:href="#m6ef528260e" x="447.054545" y="337.090909" style="fill: #1f78b4; stroke: #1f78b4"/>
     <use xlink:href="#m6ef528260e" x="48.312155" y="155.276335" style="fill: #1f78b4; stroke: #1f78b4"/>
     <use xlink:href="#m6ef528260e" x="143.391774" y="213.333056" style="fill: #1f78b4; stroke: #1f78b4"/>
     <use xlink:href="#m6ef528260e" x="110.980893" y="248.507551" style="fill: #1f78b4; stroke: #1f78b4"/>
     <use xlink:href="#m6ef528260e" x="97.123894" y="273.629426" style="fill: #1f78b4; stroke: #1f78b4"/>
     <use xlink:href="#m6ef528260e" x="121.288822" y="238.263895" style="fill: #1f78b4; stroke: #1f78b4"/>
     <use xlink:href="#m6ef528260e" x="184.953545" y="214.287327" style="fill: #1f78b4; stroke: #1f78b4"/>
     <use xlink:href="#m6ef528260e" x="187.77843" y="227.43595" style="fill: #1f78b4; stroke: #1f78b4"/>
     <use xlink:href="#m6ef528260e" x="86.515549" y="284.384752" style="fill: #1f78b4; stroke: #1f78b4"/>
     <use xlink:href="#m6ef528260e" x="99.934426" y="252.511709" style="fill: #1f78b4; stroke: #1f78b4"/>
     <use xlink:href="#m6ef528260e" x="80.312429" y="268.226391" style="fill: #1f78b4; stroke: #1f78b4"/>
     <use xlink:href="#m6ef528260e" x="61.929834" y="268.554574" style="fill: #1f78b4; stroke: #1f78b4"/>
     <use xlink:href="#m6ef528260e" x="162.539268" y="174.272437" style="fill: #1f78b4; stroke: #1f78b4"/>
     <use xlink:href="#m6ef528260e" x="177.00339" y="51.642502" style="fill: #1f78b4; stroke: #1f78b4"/>
     <use xlink:href="#m6ef528260e" x="61.838672" y="290.337398" style="fill: #1f78b4; stroke: #1f78b4"/>
     <use xlink:href="#m6ef528260e" x="90.528429" y="217.432289" style="fill: #1f78b4; stroke: #1f78b4"/>
     <use xlink:href="#m6ef528260e" x="157.853719" y="228.525349" style="fill: #1f78b4; stroke: #1f78b4"/>
     <use xlink:href="#m6ef528260e" x="101.861918" y="237.283049" style="fill: #1f78b4; stroke: #1f78b4"/>
     <use xlink:href="#m6ef528260e" x="101.240502" y="264.206809" style="fill: #1f78b4; stroke: #1f78b4"/>
     <use xlink:href="#m6ef528260e" x="37.80877" y="272.134742" style="fill: #1f78b4; stroke: #1f78b4"/>
     <use xlink:href="#m6ef528260e" x="231.075082" y="36.506739" style="fill: #1f78b4; stroke: #1f78b4"/>
     <use xlink:href="#m6ef528260e" x="76.980138" y="256.827855" style="fill: #1f78b4; stroke: #1f78b4"/>
     <use xlink:href="#m6ef528260e" x="122.33157" y="246.548352" style="fill: #1f78b4; stroke: #1f78b4"/>
    </g>
   </g>
  </g>
 </g>
 <defs>
  <clipPath id="p044d73a7b3">
   <rect x="7.2" y="7.2" width="460.8" height="345.6"/>
  </clipPath>
 </defs>
</svg>
