<?xml version="1.0" encoding="utf-8" standalone="no"?>
<!DOCTYPE svg PUBLIC "-//W3C//DTD SVG 1.1//EN"
  "http://www.w3.org/Graphics/SVG/1.1/DTD/svg11.dtd">
<svg xmlns:xlink="http://www.w3.org/1999/xlink" width="475.2pt" height="360pt" viewBox="0 0 475.2 360" xmlns="http://www.w3.org/2000/svg" version="1.1">
 <metadata>
  <rdf:RDF xmlns:dc="http://purl.org/dc/elements/1.1/" xmlns:cc="http://creativecommons.org/ns#" xmlns:rdf="http://www.w3.org/1999/02/22-rdf-syntax-ns#">
   <cc:Work>
    <dc:type rdf:resource="http://purl.org/dc/dcmitype/StillImage"/>
    <dc:date>2024-05-30T16:01:17.657068</dc:date>
    <dc:format>image/svg+xml</dc:format>
    <dc:creator>
     <cc:Agent>
      <dc:title>Matplotlib v3.8.0, https://matplotlib.org/</dc:title>
     </cc:Agent>
    </dc:creator>
   </cc:Work>
  </rdf:RDF>
 </metadata>
 <defs>
  <style type="text/css">*{stroke-linejoin: round; stroke-linecap: butt}</style>
 </defs>
 <g id="figure_1">
  <g id="patch_1">
   <path d="M 0 360 
L 475.2 360 
L 475.2 0 
L 0 0 
z
" style="fill: #ffffff"/>
  </g>
  <g id="axes_1">
   <g id="patch_2">
    <path d="M 121.128665 171.855137 
Q 124.626527 178.793476 127.621089 184.733472 
" clip-path="url(#p9509b9b505)" style="fill: none; stroke: #000000; stroke-linecap: round"/>
    <path d="M 127.606318 180.26136 
L 127.621089 184.733472 
L 124.034537 182.062021 
z
" clip-path="url(#p9509b9b505)" style="stroke: #000000; stroke-linecap: round"/>
   </g>
   <g id="patch_3">
    <path d="M 120.105728 155.950113 
Q 137.320235 107.022484 154.163674 59.149515 
" clip-path="url(#p9509b9b505)" style="fill: none; stroke: #000000; stroke-linecap: round"/>
    <path d="M 150.949468 62.258998 
L 154.163674 59.149515 
L 154.722736 63.58657 
z
" clip-path="url(#p9509b9b505)" style="stroke: #000000; stroke-linecap: round"/>
   </g>
   <g id="patch_4">
    <path d="M 114.055455 172.178579 
Q 95.310076 219.743132 76.974632 266.267514 
" clip-path="url(#p9509b9b505)" style="fill: none; stroke: #000000; stroke-linecap: round"/>
    <path d="M 80.301973 263.279404 
L 76.974632 266.267514 
L 76.580548 261.812775 
z
" clip-path="url(#p9509b9b505)" style="stroke: #000000; stroke-linecap: round"/>
   </g>
   <g id="patch_5">
    <path d="M 162.815205 150.639625 
Q 162.012924 151.827971 161.836232 152.089689 
" clip-path="url(#p9509b9b505)" style="fill: none; stroke: #000000; stroke-linecap: round"/>
    <path d="M 165.732008 149.893573 
L 161.836232 152.089689 
L 162.416805 147.655398 
z
" clip-path="url(#p9509b9b505)" style="stroke: #000000; stroke-linecap: round"/>
   </g>
   <g id="patch_6">
    <path d="M 138.325352 212.28535 
Q 129.096961 215.184804 120.935196 217.749137 
" clip-path="url(#p9509b9b505)" style="fill: none; stroke: #000000; stroke-linecap: round"/>
    <path d="M 125.350762 218.458209 
L 120.935196 217.749137 
L 124.151793 214.642128 
z
" clip-path="url(#p9509b9b505)" style="stroke: #000000; stroke-linecap: round"/>
   </g>
   <g id="patch_7">
    <path d="M 122.010465 250.231012 
Q 107.05568 255.128313 93.163408 259.677668 
" clip-path="url(#p9509b9b505)" style="fill: none; stroke: #000000; stroke-linecap: round"/>
    <path d="M 97.587194 260.333503 
L 93.163408 259.677668 
L 96.342347 256.53214 
z
" clip-path="url(#p9509b9b505)" style="stroke: #000000; stroke-linecap: round"/>
   </g>
   <g id="patch_8">
    <path d="M 131.470271 185.039433 
Q 121.982531 206.585861 112.945358 227.109063 
" clip-path="url(#p9509b9b505)" style="fill: none; stroke: #000000; stroke-linecap: round"/>
    <path d="M 116.387754 224.254259 
L 112.945358 227.109063 
L 112.726952 222.642264 
z
" clip-path="url(#p9509b9b505)" style="stroke: #000000; stroke-linecap: round"/>
   </g>
   <g id="patch_9">
    <path d="M 131.365642 184.994778 
Q 117.278949 215.879148 103.656221 245.746298 
" clip-path="url(#p9509b9b505)" style="fill: none; stroke: #000000; stroke-linecap: round"/>
    <path d="M 107.135811 242.936947 
L 103.656221 245.746298 
L 103.496494 241.277015 
z
" clip-path="url(#p9509b9b505)" style="stroke: #000000; stroke-linecap: round"/>
   </g>
   <g id="patch_10">
    <path d="M 143.268998 179.553296 
Q 157.284305 183.668064 170.226855 187.46788 
" clip-path="url(#p9509b9b505)" style="fill: none; stroke: #000000; stroke-linecap: round"/>
    <path d="M 166.952249 184.422071 
L 170.226855 187.46788 
L 165.825444 188.260079 
z
" clip-path="url(#p9509b9b505)" style="stroke: #000000; stroke-linecap: round"/>
   </g>
   <g id="patch_11">
    <path d="M 129.143855 183.526799 
Q 89.776522 226.931864 51.1603 269.508779 
" clip-path="url(#p9509b9b505)" style="fill: none; stroke: #000000; stroke-linecap: round"/>
    <path d="M 55.328997 267.88953 
L 51.1603 269.508779 
L 52.366119 265.202272 
z
" clip-path="url(#p9509b9b505)" style="stroke: #000000; stroke-linecap: round"/>
   </g>
   <g id="patch_12">
    <path d="M 139.486295 169.730048 
Q 178.51813 106.053737 216.965676 43.330634 
" clip-path="url(#p9509b9b505)" style="fill: none; stroke: #000000; stroke-linecap: round"/>
    <path d="M 213.170105 45.695723 
L 216.965676 43.330634 
L 216.580405 47.786143 
z
" clip-path="url(#p9509b9b505)" style="stroke: #000000; stroke-linecap: round"/>
   </g>
   <g id="patch_13">
    <path d="M 65.834142 268.098371 
Q 66.491675 268.730923 66.343481 268.588359 
" clip-path="url(#p9509b9b505)" style="fill: none; stroke: #000000; stroke-linecap: round"/>
    <path d="M 64.84739 264.373894 
L 66.343481 268.588359 
L 62.074255 267.256553 
z
" clip-path="url(#p9509b9b505)" style="stroke: #000000; stroke-linecap: round"/>
   </g>
   <g id="patch_14">
    <path d="M 164.283865 46.775145 
Q 160.84655 48.350013 158.425663 49.459186 
" clip-path="url(#p9509b9b505)" style="fill: none; stroke: #000000; stroke-linecap: round"/>
    <path d="M 162.895211 49.611307 
L 158.425663 49.459186 
L 161.229089 45.97482 
z
" clip-path="url(#p9509b9b505)" style="stroke: #000000; stroke-linecap: round"/>
   </g>
   <g id="patch_15">
    <path d="M 140.493667 191.681472 
Q 150.313623 189.616719 159.039468 187.782014 
" clip-path="url(#p9509b9b505)" style="fill: none; stroke: #000000; stroke-linecap: round"/>
    <path d="M 154.713536 186.647857 
L 159.039468 187.782014 
L 155.536584 190.562266 
z
" clip-path="url(#p9509b9b505)" style="stroke: #000000; stroke-linecap: round"/>
   </g>
   <g id="patch_16">
    <path d="M 123.907154 196.486501 
Q 110.91156 201.328984 98.963629 205.781082 
" clip-path="url(#p9509b9b505)" style="fill: none; stroke: #000000; stroke-linecap: round"/>
    <path d="M 103.410207 206.258514 
L 98.963629 205.781082 
L 102.013521 202.510279 
z
" clip-path="url(#p9509b9b505)" style="stroke: #000000; stroke-linecap: round"/>
   </g>
   <g id="patch_17">
    <path d="M 139.623423 197.60522 
Q 142.117837 198.964541 143.630525 199.788874 
" clip-path="url(#p9509b9b505)" style="fill: none; stroke: #000000; stroke-linecap: round"/>
    <path d="M 141.075207 196.118676 
L 143.630525 199.788874 
L 139.161176 199.631009 
z
" clip-path="url(#p9509b9b505)" style="stroke: #000000; stroke-linecap: round"/>
   </g>
   <g id="patch_18">
    <path d="M 106.165801 244.23705 
Q 103.001082 253.354252 100.20299 261.415242 
" clip-path="url(#p9509b9b505)" style="fill: none; stroke: #000000; stroke-linecap: round"/>
    <path d="M 103.404086 258.292265 
L 100.20299 261.415242 
L 99.625266 256.980579 
z
" clip-path="url(#p9509b9b505)" style="stroke: #000000; stroke-linecap: round"/>
   </g>
   <g id="patch_19">
    <path d="M 102.537281 241.820299 
Q 102.441352 241.905777 103.180156 241.247467 
" clip-path="url(#p9509b9b505)" style="fill: none; stroke: #000000; stroke-linecap: round"/>
    <path d="M 107.497118 240.079631 
L 103.180156 241.247467 
L 104.836065 237.093196 
z
" clip-path="url(#p9509b9b505)" style="stroke: #000000; stroke-linecap: round"/>
   </g>
   <g id="patch_20">
    <path d="M 102.088055 241.266472 
Q 89.144028 251.014783 77.093093 260.090497 
" clip-path="url(#p9509b9b505)" style="fill: none; stroke: #000000; stroke-linecap: round"/>
    <path d="M 81.491493 259.281746 
L 77.093093 260.090497 
L 79.085132 256.086526 
z
" clip-path="url(#p9509b9b505)" style="stroke: #000000; stroke-linecap: round"/>
   </g>
   <g id="patch_21">
    <path d="M 103.967578 229.010385 
Q 99.403294 222.625782 95.489218 217.150701 
" clip-path="url(#p9509b9b505)" style="fill: none; stroke: #000000; stroke-linecap: round"/>
    <path d="M 96.188469 221.567832 
L 95.489218 217.150701 
L 99.442474 219.241579 
z
" clip-path="url(#p9509b9b505)" style="stroke: #000000; stroke-linecap: round"/>
   </g>
   <g id="patch_22">
    <path d="M 101.354834 240.122146 
Q 95.218006 243.382982 90.068489 246.119205 
" clip-path="url(#p9509b9b505)" style="fill: none; stroke: #000000; stroke-linecap: round"/>
    <path d="M 94.539253 246.008449 
L 90.068489 246.119205 
L 92.662342 242.47614 
z
" clip-path="url(#p9509b9b505)" style="stroke: #000000; stroke-linecap: round"/>
   </g>
   <g id="patch_23">
    <path d="M 98.209854 263.189486 
Q 97.603322 266.920716 97.176178 269.548397 
" clip-path="url(#p9509b9b505)" style="fill: none; stroke: #000000; stroke-linecap: round"/>
    <path d="M 99.792064 265.92112 
L 97.176178 269.548397 
L 95.843888 265.279322 
z
" clip-path="url(#p9509b9b505)" style="stroke: #000000; stroke-linecap: round"/>
   </g>
   <g id="patch_24">
    <path d="M 101.437066 246.175691 
Q 101.891244 244.083473 102.108244 243.083841 
" clip-path="url(#p9509b9b505)" style="fill: none; stroke: #000000; stroke-linecap: round"/>
    <path d="M 99.30521 246.568522 
L 102.108244 243.083841 
L 103.214168 247.417077 
z
" clip-path="url(#p9509b9b505)" style="stroke: #000000; stroke-linecap: round"/>
   </g>
   <g id="patch_25">
    <path d="M 91.894774 258.598939 
Q 91.736184 258.680421 92.572048 258.250963 
" clip-path="url(#p9509b9b505)" style="fill: none; stroke: #000000; stroke-linecap: round"/>
    <path d="M 97.043915 258.201903 
L 92.572048 258.250963 
L 95.21592 254.644034 
z
" clip-path="url(#p9509b9b505)" style="stroke: #000000; stroke-linecap: round"/>
   </g>
   <g id="patch_26">
    <path d="M 91.490946 257.671338 
Q 84.443555 260.305684 78.443422 262.548561 
" clip-path="url(#p9509b9b505)" style="fill: none; stroke: #000000; stroke-linecap: round"/>
    <path d="M 82.890492 263.021388 
L 78.443422 262.548561 
L 81.489927 259.274601 
z
" clip-path="url(#p9509b9b505)" style="stroke: #000000; stroke-linecap: round"/>
   </g>
   <g id="patch_27">
    <path d="M 92.806928 260.011487 
Q 86.493449 265.003784 81.056956 269.302615 
" clip-path="url(#p9509b9b505)" style="fill: none; stroke: #000000; stroke-linecap: round"/>
    <path d="M 85.435068 268.3904 
L 81.056956 269.302615 
L 82.954051 265.252797 
z
" clip-path="url(#p9509b9b505)" style="stroke: #000000; stroke-linecap: round"/>
   </g>
   <g id="patch_28">
    <path d="M 124.79622 218.957433 
Q 131.548717 212.607871 137.486716 207.024203 
" clip-path="url(#p9509b9b505)" style="fill: none; stroke: #000000; stroke-linecap: round"/>
    <path d="M 133.202609 208.307334 
L 137.486716 207.024203 
L 135.942757 211.221367 
z
" clip-path="url(#p9509b9b505)" style="stroke: #000000; stroke-linecap: round"/>
   </g>
   <g id="patch_29">
    <path d="M 111.376613 229.844894 
Q 99.955837 237.802168 89.452394 245.120302 
" clip-path="url(#p9509b9b505)" style="fill: none; stroke: #000000; stroke-linecap: round"/>
    <path d="M 93.877674 244.474622 
L 89.452394 245.120302 
L 91.591018 241.19267 
z
" clip-path="url(#p9509b9b505)" style="stroke: #000000; stroke-linecap: round"/>
   </g>
   <g id="patch_30">
    <path d="M 118.484305 224.892704 
Q 115.045758 222.786293 112.560581 221.263905 
" clip-path="url(#p9509b9b505)" style="fill: none; stroke: #000000; stroke-linecap: round"/>
    <path d="M 114.926734 225.058813 
L 112.560581 221.263905 
L 117.016199 221.647928 
z
" clip-path="url(#p9509b9b505)" style="stroke: #000000; stroke-linecap: round"/>
   </g>
   <g id="patch_31">
    <path d="M 161.199146 190.263302 
Q 156.608999 193.047395 152.974789 195.251676 
" clip-path="url(#p9509b9b505)" style="fill: none; stroke: #000000; stroke-linecap: round"/>
    <path d="M 157.432058 194.887313 
L 152.974789 195.251676 
L 155.35766 191.467244 
z
" clip-path="url(#p9509b9b505)" style="stroke: #000000; stroke-linecap: round"/>
   </g>
   <g id="patch_32">
    <path d="M 171.290605 192.623017 
Q 162.11178 195.272532 154.007132 197.611981 
" clip-path="url(#p9509b9b505)" style="fill: none; stroke: #000000; stroke-linecap: round"/>
    <path d="M 158.404893 198.424199 
L 154.007132 197.611981 
L 157.295564 194.581103 
z
" clip-path="url(#p9509b9b505)" style="stroke: #000000; stroke-linecap: round"/>
   </g>
   <g id="patch_33">
    <path d="M 89.587053 266.172414 
Q 86.731117 264.445866 84.831963 263.297739 
" clip-path="url(#p9509b9b505)" style="fill: none; stroke: #000000; stroke-linecap: round"/>
    <path d="M 87.220341 267.078698 
L 84.831963 263.297739 
L 89.289757 263.655611 
z
" clip-path="url(#p9509b9b505)" style="stroke: #000000; stroke-linecap: round"/>
   </g>
   <g id="patch_34">
    <path d="M 88.454319 269.209813 
Q 83.139329 268.31254 78.926773 267.60138 
" clip-path="url(#p9509b9b505)" style="fill: none; stroke: #000000; stroke-linecap: round"/>
    <path d="M 82.538036 270.23933 
L 78.926773 267.60138 
L 83.203891 266.29514 
z
" clip-path="url(#p9509b9b505)" style="stroke: #000000; stroke-linecap: round"/>
   </g>
   <g id="patch_35">
    <path d="M 95.334776 247.076283 
Q 85.814626 253.981529 77.199505 260.23033 
" clip-path="url(#p9509b9b505)" style="fill: none; stroke: #000000; stroke-linecap: round"/>
    <path d="M 81.611725 259.500728 
L 77.199505 260.23033 
L 79.263155 256.262794 
z
" clip-path="url(#p9509b9b505)" style="stroke: #000000; stroke-linecap: round"/>
   </g>
   <g id="patch_36">
    <path d="M 92.199113 260.334454 
Q 93.865194 259.85711 94.456484 259.687701 
" clip-path="url(#p9509b9b505)" style="fill: none; stroke: #000000; stroke-linecap: round"/>
    <path d="M 90.060343 258.866759 
L 94.456484 259.687701 
L 91.162046 262.712048 
z
" clip-path="url(#p9509b9b505)" style="stroke: #000000; stroke-linecap: round"/>
   </g>
   <g id="patch_37">
    <path d="M 75.720438 265.632325 
Q 64.234801 269.735179 53.802039 273.461929 
" clip-path="url(#p9509b9b505)" style="fill: none; stroke: #000000; stroke-linecap: round"/>
    <path d="M 58.241714 273.999779 
L 53.802039 273.461929 
L 56.896124 270.232899 
z
" clip-path="url(#p9509b9b505)" style="stroke: #000000; stroke-linecap: round"/>
   </g>
   <g id="patch_38">
    <path d="M 77.736485 264.088058 
Q 80.805833 263.403689 82.783944 262.962631 
" clip-path="url(#p9509b9b505)" style="fill: none; stroke: #000000; stroke-linecap: round"/>
    <path d="M 78.444564 261.881066 
L 82.783944 262.962631 
L 79.315064 265.785196 
z
" clip-path="url(#p9509b9b505)" style="stroke: #000000; stroke-linecap: round"/>
   </g>
   <g id="patch_39">
    <path d="M 61.345847 269.437739 
Q 56.938151 271.361958 53.555104 272.838858 
" clip-path="url(#p9509b9b505)" style="fill: none; stroke: #000000; stroke-linecap: round"/>
    <path d="M 58.021188 273.071426 
L 53.555104 272.838858 
L 56.420809 269.405531 
z
" clip-path="url(#p9509b9b505)" style="stroke: #000000; stroke-linecap: round"/>
   </g>
   <g id="patch_40">
    <path d="M 151.779459 167.539127 
Q 132.685855 198.124217 114.184314 227.760909 
" clip-path="url(#p9509b9b505)" style="fill: none; stroke: #000000; stroke-linecap: round"/>
    <path d="M 117.999095 225.426932 
L 114.184314 227.760909 
L 114.606002 223.308698 
z
" clip-path="url(#p9509b9b505)" style="stroke: #000000; stroke-linecap: round"/>
   </g>
   <g id="patch_41">
    <path d="M 151.904642 167.614965 
Q 127.98283 207.416147 104.63697 246.25906 
" clip-path="url(#p9509b9b505)" style="fill: none; stroke: #000000; stroke-linecap: round"/>
    <path d="M 108.41176 243.860944 
L 104.63697 246.25906 
L 104.983351 241.800358 
z
" clip-path="url(#p9509b9b505)" style="stroke: #000000; stroke-linecap: round"/>
   </g>
   <g id="patch_42">
    <path d="M 161.668257 167.044157 
Q 167.987277 175.208224 173.621972 182.488154 
" clip-path="url(#p9509b9b505)" style="fill: none; stroke: #000000; stroke-linecap: round"/>
    <path d="M 172.755247 178.10081 
L 173.621972 182.488154 
L 169.592062 180.549128 
z
" clip-path="url(#p9509b9b505)" style="stroke: #000000; stroke-linecap: round"/>
   </g>
   <g id="patch_43">
    <path d="M 160.390033 152.524926 
Q 189.220644 97.593256 217.531676 43.651555 
" clip-path="url(#p9509b9b505)" style="fill: none; stroke: #000000; stroke-linecap: round"/>
    <path d="M 213.901862 46.26392 
L 217.531676 43.651555 
L 217.44368 48.122825 
z
" clip-path="url(#p9509b9b505)" style="stroke: #000000; stroke-linecap: round"/>
   </g>
   <g id="patch_44">
    <path d="M 78.916196 268.699966 
Q 81.395689 265.709643 83.161549 263.579976 
" clip-path="url(#p9509b9b505)" style="fill: none; stroke: #000000; stroke-linecap: round"/>
    <path d="M 79.068793 265.382569 
L 83.161549 263.579976 
L 82.14797 267.935737 
z
" clip-path="url(#p9509b9b505)" style="stroke: #000000; stroke-linecap: round"/>
   </g>
   <g id="patch_45">
    <path d="M 64.73739 275.78255 
Q 58.989909 276.059242 54.35917 276.282172 
" clip-path="url(#p9509b9b505)" style="fill: none; stroke: #000000; stroke-linecap: round"/>
    <path d="M 58.450714 278.087516 
L 54.35917 276.282172 
L 58.258371 274.092143 
z
" clip-path="url(#p9509b9b505)" style="stroke: #000000; stroke-linecap: round"/>
   </g>
   <g id="patch_46">
    <path d="M 93.298236 217.117268 
Q 94.151001 219.049461 94.552338 219.958808 
" clip-path="url(#p9509b9b505)" style="fill: none; stroke: #000000; stroke-linecap: round"/>
    <path d="M 94.76698 215.491826 
L 94.552338 219.958808 
L 91.107538 217.106905 
z
" clip-path="url(#p9509b9b505)" style="stroke: #000000; stroke-linecap: round"/>
   </g>
   <g id="patch_47">
    <path d="M 137.243329 204.868681 
Q 128.110148 210.501615 119.928569 215.547644 
" clip-path="url(#p9509b9b505)" style="fill: none; stroke: #000000; stroke-linecap: round"/>
    <path d="M 124.383004 215.150146 
L 119.928569 215.547644 
L 122.283232 211.745597 
z
" clip-path="url(#p9509b9b505)" style="stroke: #000000; stroke-linecap: round"/>
   </g>
   <g id="patch_48">
    <path d="M 106.994254 227.198551 
Q 108.493627 226.897654 108.896822 226.81674 
" clip-path="url(#p9509b9b505)" style="fill: none; stroke: #000000; stroke-linecap: round"/>
    <path d="M 104.581496 225.642872 
L 108.896822 226.81674 
L 105.368533 229.56468 
z
" clip-path="url(#p9509b9b505)" style="stroke: #000000; stroke-linecap: round"/>
   </g>
   <g id="patch_49">
    <path d="M 93.160233 235.725115 
Q 89.966437 239.805469 87.461757 243.005414 
" clip-path="url(#p9509b9b505)" style="fill: none; stroke: #000000; stroke-linecap: round"/>
    <path d="M 91.502139 241.088304 
L 87.461757 243.005414 
L 88.352298 238.622842 
z
" clip-path="url(#p9509b9b505)" style="stroke: #000000; stroke-linecap: round"/>
   </g>
   <g id="patch_50">
    <path d="M 95.639921 259.733668 
Q 74.223391 266.873475 53.867507 273.659686 
" clip-path="url(#p9509b9b505)" style="fill: none; stroke: #000000; stroke-linecap: round"/>
    <path d="M 58.294721 274.291962 
L 53.867507 273.659686 
L 57.029657 270.49728 
z
" clip-path="url(#p9509b9b505)" style="stroke: #000000; stroke-linecap: round"/>
   </g>
   <g id="patch_51">
    <path d="M 83.157893 259.191507 
Q 83.516537 260.955413 83.652416 261.623703 
" clip-path="url(#p9509b9b505)" style="fill: none; stroke: #000000; stroke-linecap: round"/>
    <path d="M 84.815327 257.305412 
L 83.652416 261.623703 
L 80.89553 258.1024 
z
" clip-path="url(#p9509b9b505)" style="stroke: #000000; stroke-linecap: round"/>
   </g>
   <g id="patch_52">
    <path d="M 76.036796 257.486989 
Q 75.356531 258.341613 75.372551 258.321488 
" clip-path="url(#p9509b9b505)" style="fill: none; stroke: #000000; stroke-linecap: round"/>
    <path d="M 79.428455 256.437438 
L 75.372551 258.321488 
L 76.298853 253.946335 
z
" clip-path="url(#p9509b9b505)" style="stroke: #000000; stroke-linecap: round"/>
   </g>
   <g id="patch_53">
    <path d="M 105.468854 226.788456 
Q 96.521404 235.692494 88.366444 243.807888 
" clip-path="url(#p9509b9b505)" style="fill: none; stroke: #000000; stroke-linecap: round"/>
    <path d="M 92.612511 242.403996 
L 88.366444 243.807888 
L 89.79097 239.568699 
z
" clip-path="url(#p9509b9b505)" style="stroke: #000000; stroke-linecap: round"/>
   </g>
   <g id="PathCollection_1">
    <defs>
     <path id="m175b681a9f" d="M 0 8.660254 
C 2.296726 8.660254 4.499694 7.747755 6.123724 6.123724 
C 7.747755 4.499694 8.660254 2.296726 8.660254 0 
C 8.660254 -2.296726 7.747755 -4.499694 6.123724 -6.123724 
C 4.499694 -7.747755 2.296726 -8.660254 0 -8.660254 
C -2.296726 -8.660254 -4.499694 -7.747755 -6.123724 -6.123724 
C -7.747755 -4.499694 -8.660254 -2.296726 -8.660254 0 
C -8.660254 2.296726 -7.747755 4.499694 -6.123724 6.123724 
C -4.499694 7.747755 -2.296726 8.660254 0 8.660254 
z
" style="stroke: #1f78b4"/>
    </defs>
    <g clip-path="url(#p9509b9b505)">
     <use xlink:href="#m175b681a9f" x="117.23038" y="164.122521" style="fill: #1f78b4; stroke: #1f78b4"/>
     <use xlink:href="#m175b681a9f" x="167.660095" y="143.463334" style="fill: #1f78b4; stroke: #1f78b4"/>
     <use xlink:href="#m175b681a9f" x="146.588035" y="209.689311" style="fill: #1f78b4; stroke: #1f78b4"/>
     <use xlink:href="#m175b681a9f" x="130.243158" y="247.535021" style="fill: #1f78b4; stroke: #1f78b4"/>
     <use xlink:href="#m175b681a9f" x="134.960192" y="177.113906" style="fill: #1f78b4; stroke: #1f78b4"/>
     <use xlink:href="#m175b681a9f" x="59.592995" y="262.09435" style="fill: #1f78b4; stroke: #1f78b4"/>
     <use xlink:href="#m175b681a9f" x="172.159621" y="43.166725" style="fill: #1f78b4; stroke: #1f78b4"/>
     <use xlink:href="#m175b681a9f" x="203.007843" y="337.090909" style="fill: #1f78b4; stroke: #1f78b4"/>
     <use xlink:href="#m175b681a9f" x="398.119442" y="86.030391" style="fill: #1f78b4; stroke: #1f78b4"/>
     <use xlink:href="#m175b681a9f" x="447.054545" y="295.559781" style="fill: #1f78b4; stroke: #1f78b4"/>
     <use xlink:href="#m175b681a9f" x="28.145455" y="148.60552" style="fill: #1f78b4; stroke: #1f78b4"/>
     <use xlink:href="#m175b681a9f" x="132.021836" y="193.462768" style="fill: #1f78b4; stroke: #1f78b4"/>
     <use xlink:href="#m175b681a9f" x="109.00519" y="236.057089" style="fill: #1f78b4; stroke: #1f78b4"/>
     <use xlink:href="#m175b681a9f" x="99.599572" y="254.640297" style="fill: #1f78b4; stroke: #1f78b4"/>
     <use xlink:href="#m175b681a9f" x="118.484305" y="224.892704" style="fill: #1f78b4; stroke: #1f78b4"/>
     <use xlink:href="#m175b681a9f" x="168.606572" y="185.770426" style="fill: #1f78b4; stroke: #1f78b4"/>
     <use xlink:href="#m175b681a9f" x="179.6081" y="190.222129" style="fill: #1f78b4; stroke: #1f78b4"/>
     <use xlink:href="#m175b681a9f" x="96.99679" y="270.651946" style="fill: #1f78b4; stroke: #1f78b4"/>
     <use xlink:href="#m175b681a9f" x="102.345422" y="241.991254" style="fill: #1f78b4; stroke: #1f78b4"/>
     <use xlink:href="#m175b681a9f" x="83.875181" y="262.719319" style="fill: #1f78b4; stroke: #1f78b4"/>
     <use xlink:href="#m175b681a9f" x="69.281971" y="265.973152" style="fill: #1f78b4; stroke: #1f78b4"/>
     <use xlink:href="#m175b681a9f" x="156.365462" y="160.193038" style="fill: #1f78b4; stroke: #1f78b4"/>
     <use xlink:href="#m175b681a9f" x="157.409234" y="49.924881" style="fill: #1f78b4; stroke: #1f78b4"/>
     <use xlink:href="#m175b681a9f" x="73.38886" y="275.366057" style="fill: #1f78b4; stroke: #1f78b4"/>
     <use xlink:href="#m175b681a9f" x="89.801785" y="209.195015" style="fill: #1f78b4; stroke: #1f78b4"/>
     <use xlink:href="#m175b681a9f" x="144.612252" y="200.323862" style="fill: #1f78b4; stroke: #1f78b4"/>
     <use xlink:href="#m175b681a9f" x="98.499911" y="228.903213" style="fill: #1f78b4; stroke: #1f78b4"/>
     <use xlink:href="#m175b681a9f" x="103.854568" y="256.995083" style="fill: #1f78b4; stroke: #1f78b4"/>
     <use xlink:href="#m175b681a9f" x="44.590466" y="276.752451" style="fill: #1f78b4; stroke: #1f78b4"/>
     <use xlink:href="#m175b681a9f" x="222.074044" y="34.99687" style="fill: #1f78b4; stroke: #1f78b4"/>
     <use xlink:href="#m175b681a9f" x="81.432943" y="250.707748" style="fill: #1f78b4; stroke: #1f78b4"/>
     <use xlink:href="#m175b681a9f" x="111.60721" y="220.679882" style="fill: #1f78b4; stroke: #1f78b4"/>
    </g>
   </g>
  </g>
 </g>
 <defs>
  <clipPath id="p9509b9b505">
   <rect x="7.2" y="7.2" width="460.8" height="345.6"/>
  </clipPath>
 </defs>
</svg>
