<?xml version="1.0" encoding="utf-8" standalone="no"?>
<!DOCTYPE svg PUBLIC "-//W3C//DTD SVG 1.1//EN"
  "http://www.w3.org/Graphics/SVG/1.1/DTD/svg11.dtd">
<svg xmlns:xlink="http://www.w3.org/1999/xlink" width="475.2pt" height="360pt" viewBox="0 0 475.2 360" xmlns="http://www.w3.org/2000/svg" version="1.1">
 <metadata>
  <rdf:RDF xmlns:dc="http://purl.org/dc/elements/1.1/" xmlns:cc="http://creativecommons.org/ns#" xmlns:rdf="http://www.w3.org/1999/02/22-rdf-syntax-ns#">
   <cc:Work>
    <dc:type rdf:resource="http://purl.org/dc/dcmitype/StillImage"/>
    <dc:date>2024-07-08T23:24:12.133087</dc:date>
    <dc:format>image/svg+xml</dc:format>
    <dc:creator>
     <cc:Agent>
      <dc:title>Matplotlib v3.8.4, https://matplotlib.org/</dc:title>
     </cc:Agent>
    </dc:creator>
   </cc:Work>
  </rdf:RDF>
 </metadata>
 <defs>
  <style type="text/css">*{stroke-linejoin: round; stroke-linecap: butt}</style>
 </defs>
 <g id="figure_1">
  <g id="patch_1">
   <path d="M 0 360 
L 475.2 360 
L 475.2 0 
L 0 0 
z
" style="fill: #ffffff"/>
  </g>
  <g id="axes_1">
   <g id="patch_2">
    <path d="M 123.061509 171.618968 
Q 126.306616 180.608124 129.172091 188.545671 
" clip-path="url(#pe86bbce9b5)" style="fill: none; stroke: #000000; stroke-linecap: round"/>
    <path d="M 129.695047 184.104217 
L 129.172091 188.545671 
L 125.932701 185.462433 
z
" clip-path="url(#pe86bbce9b5)" style="stroke: #000000; stroke-linecap: round"/>
   </g>
   <g id="patch_3">
    <path d="M 123.906661 155.682387 
Q 147.872545 106.36121 171.349793 58.045634 
" clip-path="url(#pe86bbce9b5)" style="fill: none; stroke: #000000; stroke-linecap: round"/>
    <path d="M 167.802719 60.769284 
L 171.349793 58.045634 
L 171.400468 62.517483 
z
" clip-path="url(#pe86bbce9b5)" style="stroke: #000000; stroke-linecap: round"/>
   </g>
   <g id="patch_4">
    <path d="M 115.989741 171.082846 
Q 90.317519 218.370271 65.178733 264.675124 
" clip-path="url(#pe86bbce9b5)" style="fill: none; stroke: #000000; stroke-linecap: round"/>
    <path d="M 68.844887 262.114008 
L 65.178733 264.675124 
L 65.329533 260.205531 
z
" clip-path="url(#pe86bbce9b5)" style="stroke: #000000; stroke-linecap: round"/>
   </g>
   <g id="patch_5">
    <path d="M 166.697512 151.134663 
Q 165.298512 152.855281 164.604838 153.708424 
" clip-path="url(#pe86bbce9b5)" style="fill: none; stroke: #000000; stroke-linecap: round"/>
    <path d="M 168.680081 151.866576 
L 164.604838 153.708424 
L 165.576506 149.343122 
z
" clip-path="url(#pe86bbce9b5)" style="stroke: #000000; stroke-linecap: round"/>
   </g>
   <g id="patch_6">
    <path d="M 142.947686 212.979165 
Q 131.375983 215.453277 120.897604 217.693628 
" clip-path="url(#pe86bbce9b5)" style="fill: none; stroke: #000000; stroke-linecap: round"/>
    <path d="M 125.22736 218.813099 
L 120.897604 217.693628 
L 124.391034 214.901506 
z
" clip-path="url(#pe86bbce9b5)" style="stroke: #000000; stroke-linecap: round"/>
   </g>
   <g id="patch_7">
    <path d="M 118.486796 253.315735 
Q 103.252839 254.907622 89.130861 256.383312 
" clip-path="url(#pe86bbce9b5)" style="fill: none; stroke: #000000; stroke-linecap: round"/>
    <path d="M 93.31706 257.956761 
L 89.130861 256.383312 
L 92.901339 253.978422 
z
" clip-path="url(#pe86bbce9b5)" style="stroke: #000000; stroke-linecap: round"/>
   </g>
   <g id="patch_8">
    <path d="M 132.438261 182.7234 
Q 122.539956 205.0373 113.095001 226.329206 
" clip-path="url(#pe86bbce9b5)" style="fill: none; stroke: #000000; stroke-linecap: round"/>
    <path d="M 116.545156 223.483784 
L 113.095001 226.329206 
L 112.888757 221.861828 
z
" clip-path="url(#pe86bbce9b5)" style="stroke: #000000; stroke-linecap: round"/>
   </g>
   <g id="patch_9">
    <path d="M 131.99793 182.512499 
Q 114.963542 215.725306 98.439383 247.943293 
" clip-path="url(#pe86bbce9b5)" style="fill: none; stroke: #000000; stroke-linecap: round"/>
    <path d="M 102.044422 245.296843 
L 98.439383 247.943293 
L 98.485247 243.471392 
z
" clip-path="url(#pe86bbce9b5)" style="stroke: #000000; stroke-linecap: round"/>
   </g>
   <g id="patch_10">
    <path d="M 144.14222 177.623911 
Q 159.793506 183.004075 174.387483 188.020786 
" clip-path="url(#pe86bbce9b5)" style="fill: none; stroke: #000000; stroke-linecap: round"/>
    <path d="M 171.254903 184.829088 
L 174.387483 188.020786 
L 169.954576 188.611832 
z
" clip-path="url(#pe86bbce9b5)" style="stroke: #000000; stroke-linecap: round"/>
   </g>
   <g id="patch_11">
    <path d="M 129.524325 180.612733 
Q 86.871389 219.148263 45.048049 256.93428 
" clip-path="url(#pe86bbce9b5)" style="fill: none; stroke: #000000; stroke-linecap: round"/>
    <path d="M 49.356873 255.736767 
L 45.048049 256.93428 
L 46.675333 252.768713 
z
" clip-path="url(#pe86bbce9b5)" style="stroke: #000000; stroke-linecap: round"/>
   </g>
   <g id="patch_12">
    <path d="M 140.823614 167.647413 
Q 183.35675 105.162921 225.260763 43.602661 
" clip-path="url(#pe86bbce9b5)" style="fill: none; stroke: #000000; stroke-linecap: round"/>
    <path d="M 221.356627 45.783881 
L 225.260763 43.602661 
L 224.663257 48.034702 
z
" clip-path="url(#pe86bbce9b5)" style="stroke: #000000; stroke-linecap: round"/>
   </g>
   <g id="patch_13">
    <path d="M 78.13751 283.43958 
Q 73.075086 280.518546 68.981054 278.156276 
" clip-path="url(#pe86bbce9b5)" style="fill: none; stroke: #000000; stroke-linecap: round"/>
    <path d="M 71.446128 281.887685 
L 68.981054 278.156276 
L 73.445226 278.423063 
z
" clip-path="url(#pe86bbce9b5)" style="stroke: #000000; stroke-linecap: round"/>
   </g>
   <g id="patch_14">
    <path d="M 182.782256 46.825662 
Q 179.203528 48.03672 176.683839 48.889394 
" clip-path="url(#pe86bbce9b5)" style="fill: none; stroke: #000000; stroke-linecap: round"/>
    <path d="M 181.113863 49.501668 
L 176.683839 48.889394 
L 179.831673 45.712738 
z
" clip-path="url(#pe86bbce9b5)" style="stroke: #000000; stroke-linecap: round"/>
   </g>
   <g id="patch_15">
    <path d="M 141.11667 196.957169 
Q 153.376055 195.835649 164.522056 194.815984 
" clip-path="url(#pe86bbce9b5)" style="fill: none; stroke: #000000; stroke-linecap: round"/>
    <path d="M 160.356485 193.18871 
L 164.522056 194.815984 
L 160.720894 197.172076 
z
" clip-path="url(#pe86bbce9b5)" style="stroke: #000000; stroke-linecap: round"/>
   </g>
   <g id="patch_16">
    <path d="M 124.019893 199.524012 
Q 109.892851 202.488228 96.860014 205.222852 
" clip-path="url(#pe86bbce9b5)" style="fill: none; stroke: #000000; stroke-linecap: round"/>
    <path d="M 101.185473 206.358812 
L 96.860014 205.222852 
L 100.364058 202.444061 
z
" clip-path="url(#pe86bbce9b5)" style="stroke: #000000; stroke-linecap: round"/>
   </g>
   <g id="patch_17">
    <path d="M 140.672344 200.586134 
Q 143.221968 201.471482 144.715423 201.990078 
" clip-path="url(#pe86bbce9b5)" style="fill: none; stroke: #000000; stroke-linecap: round"/>
    <path d="M 141.59282 198.788617 
L 144.715423 201.990078 
L 140.280692 202.567284 
z
" clip-path="url(#pe86bbce9b5)" style="stroke: #000000; stroke-linecap: round"/>
   </g>
   <g id="patch_18">
    <path d="M 104.630043 242.674488 
Q 99.58446 250.97886 95.119419 258.327737 
" clip-path="url(#pe86bbce9b5)" style="fill: none; stroke: #000000; stroke-linecap: round"/>
    <path d="M 98.905669 255.947756 
L 95.119419 258.327737 
L 95.487185 253.870748 
z
" clip-path="url(#pe86bbce9b5)" style="stroke: #000000; stroke-linecap: round"/>
   </g>
   <g id="patch_19">
    <path d="M 102.084817 240.303306 
Q 100.50379 241.433061 99.832421 241.9128 
" clip-path="url(#pe86bbce9b5)" style="fill: none; stroke: #000000; stroke-linecap: round"/>
    <path d="M 104.2497 241.214483 
L 99.832421 241.9128 
L 101.924135 237.959987 
z
" clip-path="url(#pe86bbce9b5)" style="stroke: #000000; stroke-linecap: round"/>
   </g>
   <g id="patch_20">
    <path d="M 101.306276 238.97914 
Q 85.012166 246.705541 69.72827 253.952915 
" clip-path="url(#pe86bbce9b5)" style="fill: none; stroke: #000000; stroke-linecap: round"/>
    <path d="M 74.199432 254.046222 
L 69.72827 253.952915 
L 72.485613 250.431969 
z
" clip-path="url(#pe86bbce9b5)" style="stroke: #000000; stroke-linecap: round"/>
   </g>
   <g id="patch_21">
    <path d="M 103.804381 228.434743 
Q 98.205986 221.24841 93.294687 214.944063 
" clip-path="url(#pe86bbce9b5)" style="fill: none; stroke: #000000; stroke-linecap: round"/>
    <path d="M 94.175175 219.328666 
L 93.294687 214.944063 
L 97.330662 216.870435 
z
" clip-path="url(#pe86bbce9b5)" style="stroke: #000000; stroke-linecap: round"/>
   </g>
   <g id="patch_22">
    <path d="M 100.870677 237.865788 
Q 91.917721 240.680214 84.03134 243.159355 
" clip-path="url(#pe86bbce9b5)" style="fill: none; stroke: #000000; stroke-linecap: round"/>
    <path d="M 88.447015 243.867749 
L 84.03134 243.159355 
L 87.24746 240.051852 
z
" clip-path="url(#pe86bbce9b5)" style="stroke: #000000; stroke-linecap: round"/>
   </g>
   <g id="patch_23">
    <path d="M 90.815648 264.71077 
Q 90.429143 265.697114 90.450547 265.642493 
" clip-path="url(#pe86bbce9b5)" style="fill: none; stroke: #000000; stroke-linecap: round"/>
    <path d="M 93.772064 262.64791 
L 90.450547 265.642493 
L 90.047791 261.18853 
z
" clip-path="url(#pe86bbce9b5)" style="stroke: #000000; stroke-linecap: round"/>
   </g>
   <g id="patch_24">
    <path d="M 96.846662 248.473226 
Q 97.884712 245.518021 98.552234 243.617666 
" clip-path="url(#pe86bbce9b5)" style="fill: none; stroke: #000000; stroke-linecap: round"/>
    <path d="M 95.339618 246.728791 
L 98.552234 243.617666 
L 99.113564 248.054433 
z
" clip-path="url(#pe86bbce9b5)" style="stroke: #000000; stroke-linecap: round"/>
   </g>
   <g id="patch_25">
    <path d="M 85.330044 257.093075 
Q 82.369266 257.246168 80.52503 257.341527 
" clip-path="url(#pe86bbce9b5)" style="fill: none; stroke: #000000; stroke-linecap: round"/>
    <path d="M 84.62297 259.132308 
L 80.52503 257.341527 
L 84.416418 255.137644 
z
" clip-path="url(#pe86bbce9b5)" style="stroke: #000000; stroke-linecap: round"/>
   </g>
   <g id="patch_26">
    <path d="M 85.320995 257.037728 
Q 77.431665 257.394782 70.659226 257.701288 
" clip-path="url(#pe86bbce9b5)" style="fill: none; stroke: #000000; stroke-linecap: round"/>
    <path d="M 74.745559 259.518397 
L 70.659226 257.701288 
L 74.564713 255.522487 
z
" clip-path="url(#pe86bbce9b5)" style="stroke: #000000; stroke-linecap: round"/>
   </g>
   <g id="patch_27">
    <path d="M 86.218703 260.499646 
Q 77.242597 264.958812 69.267777 268.920558 
" clip-path="url(#pe86bbce9b5)" style="fill: none; stroke: #000000; stroke-linecap: round"/>
    <path d="M 73.739898 268.932086 
L 69.267777 268.920558 
L 71.960273 265.349778 
z
" clip-path="url(#pe86bbce9b5)" style="stroke: #000000; stroke-linecap: round"/>
   </g>
   <g id="patch_28">
    <path d="M 121.186182 219.864223 
Q 129.951036 213.622726 137.805171 208.029757 
" clip-path="url(#pe86bbce9b5)" style="fill: none; stroke: #000000; stroke-linecap: round"/>
    <path d="M 133.386757 208.720857 
L 137.805171 208.029757 
L 135.707003 211.979148 
z
" clip-path="url(#pe86bbce9b5)" style="stroke: #000000; stroke-linecap: round"/>
   </g>
   <g id="patch_29">
    <path d="M 106.502855 228.990638 
Q 94.415769 235.49053 83.313371 241.460901 
" clip-path="url(#pe86bbce9b5)" style="fill: none; stroke: #000000; stroke-linecap: round"/>
    <path d="M 87.783528 241.327893 
L 83.313371 241.460901 
L 85.889059 237.80497 
z
" clip-path="url(#pe86bbce9b5)" style="stroke: #000000; stroke-linecap: round"/>
   </g>
   <g id="patch_30">
    <path d="M 114.129223 224.88952 
Q 112.731319 222.31402 111.866755 220.721143 
" clip-path="url(#pe86bbce9b5)" style="fill: none; stroke: #000000; stroke-linecap: round"/>
    <path d="M 112.017113 225.190751 
L 111.866755 220.721143 
L 115.532656 223.282621 
z
" clip-path="url(#pe86bbce9b5)" style="stroke: #000000; stroke-linecap: round"/>
   </g>
   <g id="patch_31">
    <path d="M 165.94924 196.38429 
Q 160.011957 198.141713 155.146731 199.581809 
" clip-path="url(#pe86bbce9b5)" style="fill: none; stroke: #000000; stroke-linecap: round"/>
    <path d="M 159.549885 200.36426 
L 155.146731 199.581809 
L 158.414584 196.528756 
z
" clip-path="url(#pe86bbce9b5)" style="stroke: #000000; stroke-linecap: round"/>
   </g>
   <g id="patch_32">
    <path d="M 175.327383 193.646436 
Q 164.703966 196.777265 155.152981 199.592038 
" clip-path="url(#pe86bbce9b5)" style="fill: none; stroke: #000000; stroke-linecap: round"/>
    <path d="M 159.555206 200.379703 
L 155.152981 199.592038 
L 158.424448 196.542857 
z
" clip-path="url(#pe86bbce9b5)" style="stroke: #000000; stroke-linecap: round"/>
   </g>
   <g id="patch_33">
    <path d="M 83.518317 260.987367 
Q 81.463402 259.193314 80.250705 258.134563 
" clip-path="url(#pe86bbce9b5)" style="fill: none; stroke: #000000; stroke-linecap: round"/>
    <path d="M 81.948566 262.271865 
L 80.250705 258.134563 
L 84.579264 259.258656 
z
" clip-path="url(#pe86bbce9b5)" style="stroke: #000000; stroke-linecap: round"/>
   </g>
   <g id="patch_34">
    <path d="M 81.733442 264.249243 
Q 75.468261 262.41383 70.27602 260.89274 
" clip-path="url(#pe86bbce9b5)" style="fill: none; stroke: #000000; stroke-linecap: round"/>
    <path d="M 73.552411 263.93663 
L 70.27602 260.89274 
L 74.676966 260.097961 
z
" clip-path="url(#pe86bbce9b5)" style="stroke: #000000; stroke-linecap: round"/>
   </g>
   <g id="patch_35">
    <path d="M 90.907414 245.846487 
Q 79.905937 250.353495 69.939042 254.436662 
" clip-path="url(#pe86bbce9b5)" style="fill: none; stroke: #000000; stroke-linecap: round"/>
    <path d="M 74.398663 254.771001 
L 69.939042 254.436662 
L 72.882286 251.069569 
z
" clip-path="url(#pe86bbce9b5)" style="stroke: #000000; stroke-linecap: round"/>
   </g>
   <g id="patch_36">
    <path d="M 87.950746 255.966607 
Q 90.151661 255.597484 91.249942 255.413287 
" clip-path="url(#pe86bbce9b5)" style="fill: none; stroke: #000000; stroke-linecap: round"/>
    <path d="M 86.974231 254.10245 
L 91.249942 255.413287 
L 87.635845 258.047353 
z
" clip-path="url(#pe86bbce9b5)" style="stroke: #000000; stroke-linecap: round"/>
   </g>
   <g id="patch_37">
    <path d="M 70.841216 258.652803 
Q 58.603766 260.443356 47.472571 262.072046 
" clip-path="url(#pe86bbce9b5)" style="fill: none; stroke: #000000; stroke-linecap: round"/>
    <path d="M 51.719981 263.47187 
L 47.472571 262.072046 
L 51.140877 259.514013 
z
" clip-path="url(#pe86bbce9b5)" style="stroke: #000000; stroke-linecap: round"/>
   </g>
   <g id="patch_38">
    <path d="M 69.548501 257.79548 
Q 70.152714 257.7712 69.639795 257.791811 
" clip-path="url(#pe86bbce9b5)" style="fill: none; stroke: #000000; stroke-linecap: round"/>
    <path d="M 65.562716 255.954032 
L 69.639795 257.791811 
L 65.723325 259.950807 
z
" clip-path="url(#pe86bbce9b5)" style="stroke: #000000; stroke-linecap: round"/>
   </g>
   <g id="patch_39">
    <path d="M 52.452346 260.096146 
Q 49.340636 260.816215 47.318176 261.284224 
" clip-path="url(#pe86bbce9b5)" style="fill: none; stroke: #000000; stroke-linecap: round"/>
    <path d="M 51.666094 262.33094 
L 47.318176 261.284224 
L 50.764299 258.43392 
z
" clip-path="url(#pe86bbce9b5)" style="stroke: #000000; stroke-linecap: round"/>
   </g>
   <g id="patch_40">
    <path d="M 153.630169 168.505188 
Q 133.782029 198.283126 114.55398 227.130748 
" clip-path="url(#pe86bbce9b5)" style="fill: none; stroke: #000000; stroke-linecap: round"/>
    <path d="M 118.436684 224.911603 
L 114.55398 227.130748 
L 115.108286 222.693097 
z
" clip-path="url(#pe86bbce9b5)" style="stroke: #000000; stroke-linecap: round"/>
   </g>
   <g id="patch_41">
    <path d="M 153.585671 168.469805 
Q 126.206603 208.969567 99.453701 248.543092 
" clip-path="url(#pe86bbce9b5)" style="fill: none; stroke: #000000; stroke-linecap: round"/>
    <path d="M 103.350842 246.349399 
L 99.453701 248.543092 
L 100.037032 244.109163 
z
" clip-path="url(#pe86bbce9b5)" style="stroke: #000000; stroke-linecap: round"/>
   </g>
   <g id="patch_42">
    <path d="M 164.017432 167.922054 
Q 171.034302 176.248779 177.330713 183.720555 
" clip-path="url(#pe86bbce9b5)" style="fill: none; stroke: #000000; stroke-linecap: round"/>
    <path d="M 176.282499 179.372998 
L 177.330713 183.720555 
L 173.223739 181.950592 
z
" clip-path="url(#pe86bbce9b5)" style="stroke: #000000; stroke-linecap: round"/>
   </g>
   <g id="patch_43">
    <path d="M 162.749803 153.793086 
Q 194.598216 98.409146 225.889287 43.994417 
" clip-path="url(#pe86bbce9b5)" style="fill: none; stroke: #000000; stroke-linecap: round"/>
    <path d="M 222.161501 46.464966 
L 225.889287 43.994417 
L 225.629055 48.458975 
z
" clip-path="url(#pe86bbce9b5)" style="stroke: #000000; stroke-linecap: round"/>
   </g>
   <g id="patch_44">
    <path d="M 52.556056 269.8442 
Q 49.152026 268.378568 46.774892 267.355074 
" clip-path="url(#pe86bbce9b5)" style="fill: none; stroke: #000000; stroke-linecap: round"/>
    <path d="M 49.657904 270.773881 
L 46.774892 267.355074 
L 51.239745 267.099948 
z
" clip-path="url(#pe86bbce9b5)" style="stroke: #000000; stroke-linecap: round"/>
   </g>
   <g id="patch_45">
    <path d="M 90.191016 215.390788 
Q 90.929915 217.46641 91.293857 218.488749 
" clip-path="url(#pe86bbce9b5)" style="fill: none; stroke: #000000; stroke-linecap: round"/>
    <path d="M 91.836538 214.049661 
L 91.293857 218.488749 
L 88.068196 215.391151 
z
" clip-path="url(#pe86bbce9b5)" style="stroke: #000000; stroke-linecap: round"/>
   </g>
   <g id="patch_46">
    <path d="M 138.040659 206.258798 
Q 128.551959 211.047949 120.061367 215.333334 
" clip-path="url(#pe86bbce9b5)" style="fill: none; stroke: #000000; stroke-linecap: round"/>
    <path d="M 124.533471 215.316474 
L 120.061367 215.333334 
L 122.731141 211.745535 
z
" clip-path="url(#pe86bbce9b5)" style="stroke: #000000; stroke-linecap: round"/>
   </g>
   <g id="patch_47">
    <path d="M 103.143798 226.470177 
Q 104.349352 226.296714 104.448269 226.282481 
" clip-path="url(#pe86bbce9b5)" style="fill: none; stroke: #000000; stroke-linecap: round"/>
    <path d="M 100.204204 224.872548 
L 104.448269 226.282481 
L 100.773884 228.831774 
z
" clip-path="url(#pe86bbce9b5)" style="stroke: #000000; stroke-linecap: round"/>
   </g>
   <g id="patch_48">
    <path d="M 88.215548 233.586864 
Q 84.637096 236.898027 81.879267 239.449863 
" clip-path="url(#pe86bbce9b5)" style="fill: none; stroke: #000000; stroke-linecap: round"/>
    <path d="M 86.173543 238.201186 
L 81.879267 239.449863 
L 83.456891 235.265236 
z
" clip-path="url(#pe86bbce9b5)" style="stroke: #000000; stroke-linecap: round"/>
   </g>
   <g id="patch_49">
    <path d="M 92.332463 255.110925 
Q 69.342293 258.642281 47.457197 262.003895 
" clip-path="url(#pe86bbce9b5)" style="fill: none; stroke: #000000; stroke-linecap: round"/>
    <path d="M 51.714472 263.373421 
L 47.457197 262.003895 
L 51.107183 259.41979 
z
" clip-path="url(#pe86bbce9b5)" style="stroke: #000000; stroke-linecap: round"/>
   </g>
   <g id="patch_50">
    <path d="M 78.030271 254.089537 
Q 78.71938 255.744399 78.978697 256.367137 
" clip-path="url(#pe86bbce9b5)" style="fill: none; stroke: #000000; stroke-linecap: round"/>
    <path d="M 79.287348 251.905664 
L 78.978697 256.367137 
L 75.59471 253.443332 
z
" clip-path="url(#pe86bbce9b5)" style="stroke: #000000; stroke-linecap: round"/>
   </g>
   <g id="patch_51">
    <path d="M 68.176623 251.785558 
Q 67.79776 252.116177 68.261279 251.711683 
" clip-path="url(#pe86bbce9b5)" style="fill: none; stroke: #000000; stroke-linecap: round"/>
    <path d="M 72.590089 250.588561 
L 68.261279 251.711683 
L 69.960067 247.574762 
z
" clip-path="url(#pe86bbce9b5)" style="stroke: #000000; stroke-linecap: round"/>
   </g>
   <g id="patch_52">
    <path d="M 104.301476 224.797341 
Q 93.014926 232.916958 82.635953 240.383656 
" clip-path="url(#pe86bbce9b5)" style="fill: none; stroke: #000000; stroke-linecap: round"/>
    <path d="M 87.050979 239.671233 
L 82.635953 240.383656 
L 84.71503 236.424182 
z
" clip-path="url(#pe86bbce9b5)" style="stroke: #000000; stroke-linecap: round"/>
   </g>
   <g id="PathCollection_1">
    <defs>
     <path id="m4e29f40684" d="M 0 8.660254 
C 2.296726 8.660254 4.499694 7.747755 6.123724 6.123724 
C 7.747755 4.499694 8.660254 2.296726 8.660254 0 
C 8.660254 -2.296726 7.747755 -4.499694 6.123724 -6.123724 
C 4.499694 -7.747755 2.296726 -8.660254 0 -8.660254 
C -2.296726 -8.660254 -4.499694 -7.747755 -6.123724 -6.123724 
C -7.747755 -4.499694 -8.660254 -2.296726 -8.660254 0 
C -8.660254 2.296726 -7.747755 4.499694 -6.123724 6.123724 
C -4.499694 7.747755 -2.296726 8.660254 0 8.660254 
z
" style="stroke: #1f78b4"/>
    </defs>
    <g clip-path="url(#pe86bbce9b5)">
     <use xlink:href="#m4e29f40684" x="120.120919" y="163.473346" style="fill: #1f78b4; stroke: #1f78b4"/>
     <use xlink:href="#m4e29f40684" x="172.16197" y="144.413974" style="fill: #1f78b4; stroke: #1f78b4"/>
     <use xlink:href="#m4e29f40684" x="151.414527" y="211.168895" style="fill: #1f78b4; stroke: #1f78b4"/>
     <use xlink:href="#m4e29f40684" x="127.100033" y="252.415687" style="fill: #1f78b4; stroke: #1f78b4"/>
     <use xlink:href="#m4e29f40684" x="135.949622" y="174.807687" style="fill: #1f78b4; stroke: #1f78b4"/>
     <use xlink:href="#m4e29f40684" x="85.635833" y="287.766135" style="fill: #1f78b4; stroke: #1f78b4"/>
     <use xlink:href="#m4e29f40684" x="190.982022" y="44.050824" style="fill: #1f78b4; stroke: #1f78b4"/>
     <use xlink:href="#m4e29f40684" x="140.765588" y="337.090909" style="fill: #1f78b4; stroke: #1f78b4"/>
     <use xlink:href="#m4e29f40684" x="402.173015" y="94.250861" style="fill: #1f78b4; stroke: #1f78b4"/>
     <use xlink:href="#m4e29f40684" x="447.054545" y="318.953177" style="fill: #1f78b4; stroke: #1f78b4"/>
     <use xlink:href="#m4e29f40684" x="48.637813" y="144.099421" style="fill: #1f78b4; stroke: #1f78b4"/>
     <use xlink:href="#m4e29f40684" x="132.493447" y="197.746043" style="fill: #1f78b4; stroke: #1f78b4"/>
     <use xlink:href="#m4e29f40684" x="109.12905" y="235.269709" style="fill: #1f78b4; stroke: #1f78b4"/>
     <use xlink:href="#m4e29f40684" x="93.975871" y="256.646026" style="fill: #1f78b4; stroke: #1f78b4"/>
     <use xlink:href="#m4e29f40684" x="114.129223" y="224.88952" style="fill: #1f78b4; stroke: #1f78b4"/>
     <use xlink:href="#m4e29f40684" x="174.256048" y="193.925494" style="fill: #1f78b4; stroke: #1f78b4"/>
     <use xlink:href="#m4e29f40684" x="183.632583" y="191.198809" style="fill: #1f78b4; stroke: #1f78b4"/>
     <use xlink:href="#m4e29f40684" x="90.042637" y="266.683459" style="fill: #1f78b4; stroke: #1f78b4"/>
     <use xlink:href="#m4e29f40684" x="98.922762" y="242.562816" style="fill: #1f78b4; stroke: #1f78b4"/>
     <use xlink:href="#m4e29f40684" x="79.408488" y="257.39926" style="fill: #1f78b4; stroke: #1f78b4"/>
     <use xlink:href="#m4e29f40684" x="60.891061" y="258.143375" style="fill: #1f78b4; stroke: #1f78b4"/>
     <use xlink:href="#m4e29f40684" x="158.434635" y="161.297103" style="fill: #1f78b4; stroke: #1f78b4"/>
     <use xlink:href="#m4e29f40684" x="175.624801" y="49.247777" style="fill: #1f78b4; stroke: #1f78b4"/>
     <use xlink:href="#m4e29f40684" x="60.512617" y="273.269962" style="fill: #1f78b4; stroke: #1f78b4"/>
     <use xlink:href="#m4e29f40684" x="87.286444" y="207.231633" style="fill: #1f78b4; stroke: #1f78b4"/>
     <use xlink:href="#m4e29f40684" x="145.771592" y="202.356829" style="fill: #1f78b4; stroke: #1f78b4"/>
     <use xlink:href="#m4e29f40684" x="94.574117" y="227.703241" style="fill: #1f78b4; stroke: #1f78b4"/>
     <use xlink:href="#m4e29f40684" x="100.893959" y="253.795855" style="fill: #1f78b4; stroke: #1f78b4"/>
     <use xlink:href="#m4e29f40684" x="37.793848" y="263.488213" style="fill: #1f78b4; stroke: #1f78b4"/>
     <use xlink:href="#m4e29f40684" x="230.761716" y="35.521331" style="fill: #1f78b4; stroke: #1f78b4"/>
     <use xlink:href="#m4e29f40684" x="74.700252" y="246.09265" style="fill: #1f78b4; stroke: #1f78b4"/>
     <use xlink:href="#m4e29f40684" x="111.333416" y="219.738519" style="fill: #1f78b4; stroke: #1f78b4"/>
    </g>
   </g>
  </g>
 </g>
 <defs>
  <clipPath id="pe86bbce9b5">
   <rect x="7.2" y="7.2" width="460.8" height="345.6"/>
  </clipPath>
 </defs>
</svg>
