<?xml version="1.0" encoding="utf-8" standalone="no"?>
<!DOCTYPE svg PUBLIC "-//W3C//DTD SVG 1.1//EN"
  "http://www.w3.org/Graphics/SVG/1.1/DTD/svg11.dtd">
<svg xmlns:xlink="http://www.w3.org/1999/xlink" width="784.666875pt" height="352.217187pt" viewBox="0 0 784.666875 352.217187" xmlns="http://www.w3.org/2000/svg" version="1.1">
 <metadata>
  <rdf:RDF xmlns:dc="http://purl.org/dc/elements/1.1/" xmlns:cc="http://creativecommons.org/ns#" xmlns:rdf="http://www.w3.org/1999/02/22-rdf-syntax-ns#">
   <cc:Work>
    <dc:type rdf:resource="http://purl.org/dc/dcmitype/StillImage"/>
    <dc:date>2024-06-27T11:30:37.090385</dc:date>
    <dc:format>image/svg+xml</dc:format>
    <dc:creator>
     <cc:Agent>
      <dc:title>Matplotlib v3.8.0, https://matplotlib.org/</dc:title>
     </cc:Agent>
    </dc:creator>
   </cc:Work>
  </rdf:RDF>
 </metadata>
 <defs>
  <style type="text/css">*{stroke-linejoin: round; stroke-linecap: butt}</style>
 </defs>
 <g id="figure_1">
  <g id="patch_1">
   <path d="M -0 352.217187 
L 784.666875 352.217187 
L 784.666875 0 
L -0 0 
z
" style="fill: #ffffff"/>
  </g>
  <g id="axes_1">
   <g id="patch_2">
    <path d="M 40.656875 306.918437 
L 777.466875 306.918437 
L 777.466875 17.798437 
L 40.656875 17.798437 
z
" style="fill: #ffffff"/>
   </g>
   <g id="matplotlib.axis_1">
    <g id="xtick_1">
     <g id="line2d_1">
      <path d="M 148.573491 306.918437 
L 148.573491 17.798437 
" clip-path="url(#pc91d6a9be3)" style="fill: none; stroke-dasharray: 1.85,0.8; stroke-dashoffset: 0; stroke: #b0b0b0; stroke-width: 0.5"/>
     </g>
     <g id="line2d_2">
      <defs>
       <path id="ma91e0fe0d1" d="M 0 0 
L 0 3.5 
" style="stroke: #000000; stroke-width: 0.8"/>
      </defs>
      <g>
       <use xlink:href="#ma91e0fe0d1" x="148.573491" y="306.918437" style="stroke: #000000; stroke-width: 0.8"/>
      </g>
     </g>
     <g id="text_1">
      <!-- 12000 -->
      <g transform="translate(126.304741 324.55625) scale(0.14 -0.14)">
       <defs>
        <path id="DejaVuSans-31" d="M 794 531 
L 1825 531 
L 1825 4091 
L 703 3866 
L 703 4441 
L 1819 4666 
L 2450 4666 
L 2450 531 
L 3481 531 
L 3481 0 
L 794 0 
L 794 531 
z
" transform="scale(0.015625)"/>
        <path id="DejaVuSans-32" d="M 1228 531 
L 3431 531 
L 3431 0 
L 469 0 
L 469 531 
Q 828 903 1448 1529 
Q 2069 2156 2228 2338 
Q 2531 2678 2651 2914 
Q 2772 3150 2772 3378 
Q 2772 3750 2511 3984 
Q 2250 4219 1831 4219 
Q 1534 4219 1204 4116 
Q 875 4013 500 3803 
L 500 4441 
Q 881 4594 1212 4672 
Q 1544 4750 1819 4750 
Q 2544 4750 2975 4387 
Q 3406 4025 3406 3419 
Q 3406 3131 3298 2873 
Q 3191 2616 2906 2266 
Q 2828 2175 2409 1742 
Q 1991 1309 1228 531 
z
" transform="scale(0.015625)"/>
        <path id="DejaVuSans-30" d="M 2034 4250 
Q 1547 4250 1301 3770 
Q 1056 3291 1056 2328 
Q 1056 1369 1301 889 
Q 1547 409 2034 409 
Q 2525 409 2770 889 
Q 3016 1369 3016 2328 
Q 3016 3291 2770 3770 
Q 2525 4250 2034 4250 
z
M 2034 4750 
Q 2819 4750 3233 4129 
Q 3647 3509 3647 2328 
Q 3647 1150 3233 529 
Q 2819 -91 2034 -91 
Q 1250 -91 836 529 
Q 422 1150 422 2328 
Q 422 3509 836 4129 
Q 1250 4750 2034 4750 
z
" transform="scale(0.015625)"/>
       </defs>
       <use xlink:href="#DejaVuSans-31"/>
       <use xlink:href="#DejaVuSans-32" x="63.623047"/>
       <use xlink:href="#DejaVuSans-30" x="127.246094"/>
       <use xlink:href="#DejaVuSans-30" x="190.869141"/>
       <use xlink:href="#DejaVuSans-30" x="254.492188"/>
      </g>
     </g>
    </g>
    <g id="xtick_2">
     <g id="line2d_3">
      <path d="M 297.423996 306.918437 
L 297.423996 17.798437 
" clip-path="url(#pc91d6a9be3)" style="fill: none; stroke-dasharray: 1.85,0.8; stroke-dashoffset: 0; stroke: #b0b0b0; stroke-width: 0.5"/>
     </g>
     <g id="line2d_4">
      <g>
       <use xlink:href="#ma91e0fe0d1" x="297.423996" y="306.918437" style="stroke: #000000; stroke-width: 0.8"/>
      </g>
     </g>
     <g id="text_2">
      <!-- 14000 -->
      <g transform="translate(275.155246 324.55625) scale(0.14 -0.14)">
       <defs>
        <path id="DejaVuSans-34" d="M 2419 4116 
L 825 1625 
L 2419 1625 
L 2419 4116 
z
M 2253 4666 
L 3047 4666 
L 3047 1625 
L 3713 1625 
L 3713 1100 
L 3047 1100 
L 3047 0 
L 2419 0 
L 2419 1100 
L 313 1100 
L 313 1709 
L 2253 4666 
z
" transform="scale(0.015625)"/>
       </defs>
       <use xlink:href="#DejaVuSans-31"/>
       <use xlink:href="#DejaVuSans-34" x="63.623047"/>
       <use xlink:href="#DejaVuSans-30" x="127.246094"/>
       <use xlink:href="#DejaVuSans-30" x="190.869141"/>
       <use xlink:href="#DejaVuSans-30" x="254.492188"/>
      </g>
     </g>
    </g>
    <g id="xtick_3">
     <g id="line2d_5">
      <path d="M 446.274501 306.918437 
L 446.274501 17.798437 
" clip-path="url(#pc91d6a9be3)" style="fill: none; stroke-dasharray: 1.85,0.8; stroke-dashoffset: 0; stroke: #b0b0b0; stroke-width: 0.5"/>
     </g>
     <g id="line2d_6">
      <g>
       <use xlink:href="#ma91e0fe0d1" x="446.274501" y="306.918437" style="stroke: #000000; stroke-width: 0.8"/>
      </g>
     </g>
     <g id="text_3">
      <!-- 16000 -->
      <g transform="translate(424.005751 324.55625) scale(0.14 -0.14)">
       <defs>
        <path id="DejaVuSans-36" d="M 2113 2584 
Q 1688 2584 1439 2293 
Q 1191 2003 1191 1497 
Q 1191 994 1439 701 
Q 1688 409 2113 409 
Q 2538 409 2786 701 
Q 3034 994 3034 1497 
Q 3034 2003 2786 2293 
Q 2538 2584 2113 2584 
z
M 3366 4563 
L 3366 3988 
Q 3128 4100 2886 4159 
Q 2644 4219 2406 4219 
Q 1781 4219 1451 3797 
Q 1122 3375 1075 2522 
Q 1259 2794 1537 2939 
Q 1816 3084 2150 3084 
Q 2853 3084 3261 2657 
Q 3669 2231 3669 1497 
Q 3669 778 3244 343 
Q 2819 -91 2113 -91 
Q 1303 -91 875 529 
Q 447 1150 447 2328 
Q 447 3434 972 4092 
Q 1497 4750 2381 4750 
Q 2619 4750 2861 4703 
Q 3103 4656 3366 4563 
z
" transform="scale(0.015625)"/>
       </defs>
       <use xlink:href="#DejaVuSans-31"/>
       <use xlink:href="#DejaVuSans-36" x="63.623047"/>
       <use xlink:href="#DejaVuSans-30" x="127.246094"/>
       <use xlink:href="#DejaVuSans-30" x="190.869141"/>
       <use xlink:href="#DejaVuSans-30" x="254.492188"/>
      </g>
     </g>
    </g>
    <g id="xtick_4">
     <g id="line2d_7">
      <path d="M 595.125006 306.918437 
L 595.125006 17.798437 
" clip-path="url(#pc91d6a9be3)" style="fill: none; stroke-dasharray: 1.85,0.8; stroke-dashoffset: 0; stroke: #b0b0b0; stroke-width: 0.5"/>
     </g>
     <g id="line2d_8">
      <g>
       <use xlink:href="#ma91e0fe0d1" x="595.125006" y="306.918437" style="stroke: #000000; stroke-width: 0.8"/>
      </g>
     </g>
     <g id="text_4">
      <!-- 18000 -->
      <g transform="translate(572.856256 324.55625) scale(0.14 -0.14)">
       <defs>
        <path id="DejaVuSans-38" d="M 2034 2216 
Q 1584 2216 1326 1975 
Q 1069 1734 1069 1313 
Q 1069 891 1326 650 
Q 1584 409 2034 409 
Q 2484 409 2743 651 
Q 3003 894 3003 1313 
Q 3003 1734 2745 1975 
Q 2488 2216 2034 2216 
z
M 1403 2484 
Q 997 2584 770 2862 
Q 544 3141 544 3541 
Q 544 4100 942 4425 
Q 1341 4750 2034 4750 
Q 2731 4750 3128 4425 
Q 3525 4100 3525 3541 
Q 3525 3141 3298 2862 
Q 3072 2584 2669 2484 
Q 3125 2378 3379 2068 
Q 3634 1759 3634 1313 
Q 3634 634 3220 271 
Q 2806 -91 2034 -91 
Q 1263 -91 848 271 
Q 434 634 434 1313 
Q 434 1759 690 2068 
Q 947 2378 1403 2484 
z
M 1172 3481 
Q 1172 3119 1398 2916 
Q 1625 2713 2034 2713 
Q 2441 2713 2670 2916 
Q 2900 3119 2900 3481 
Q 2900 3844 2670 4047 
Q 2441 4250 2034 4250 
Q 1625 4250 1398 4047 
Q 1172 3844 1172 3481 
z
" transform="scale(0.015625)"/>
       </defs>
       <use xlink:href="#DejaVuSans-31"/>
       <use xlink:href="#DejaVuSans-38" x="63.623047"/>
       <use xlink:href="#DejaVuSans-30" x="127.246094"/>
       <use xlink:href="#DejaVuSans-30" x="190.869141"/>
       <use xlink:href="#DejaVuSans-30" x="254.492188"/>
      </g>
     </g>
    </g>
    <g id="xtick_5">
     <g id="line2d_9">
      <path d="M 743.975511 306.918437 
L 743.975511 17.798437 
" clip-path="url(#pc91d6a9be3)" style="fill: none; stroke-dasharray: 1.85,0.8; stroke-dashoffset: 0; stroke: #b0b0b0; stroke-width: 0.5"/>
     </g>
     <g id="line2d_10">
      <g>
       <use xlink:href="#ma91e0fe0d1" x="743.975511" y="306.918437" style="stroke: #000000; stroke-width: 0.8"/>
      </g>
     </g>
     <g id="text_5">
      <!-- 20000 -->
      <g transform="translate(721.706761 324.55625) scale(0.14 -0.14)">
       <use xlink:href="#DejaVuSans-32"/>
       <use xlink:href="#DejaVuSans-30" x="63.623047"/>
       <use xlink:href="#DejaVuSans-30" x="127.246094"/>
       <use xlink:href="#DejaVuSans-30" x="190.869141"/>
       <use xlink:href="#DejaVuSans-30" x="254.492188"/>
      </g>
     </g>
    </g>
    <g id="text_6">
     <!-- Last Interaction Velocity (km/s) -->
     <g transform="translate(300.029219 342.105625) scale(0.14 -0.14)">
      <defs>
       <path id="DejaVuSans-4c" d="M 628 4666 
L 1259 4666 
L 1259 531 
L 3531 531 
L 3531 0 
L 628 0 
L 628 4666 
z
" transform="scale(0.015625)"/>
       <path id="DejaVuSans-61" d="M 2194 1759 
Q 1497 1759 1228 1600 
Q 959 1441 959 1056 
Q 959 750 1161 570 
Q 1363 391 1709 391 
Q 2188 391 2477 730 
Q 2766 1069 2766 1631 
L 2766 1759 
L 2194 1759 
z
M 3341 1997 
L 3341 0 
L 2766 0 
L 2766 531 
Q 2569 213 2275 61 
Q 1981 -91 1556 -91 
Q 1019 -91 701 211 
Q 384 513 384 1019 
Q 384 1609 779 1909 
Q 1175 2209 1959 2209 
L 2766 2209 
L 2766 2266 
Q 2766 2663 2505 2880 
Q 2244 3097 1772 3097 
Q 1472 3097 1187 3025 
Q 903 2953 641 2809 
L 641 3341 
Q 956 3463 1253 3523 
Q 1550 3584 1831 3584 
Q 2591 3584 2966 3190 
Q 3341 2797 3341 1997 
z
" transform="scale(0.015625)"/>
       <path id="DejaVuSans-73" d="M 2834 3397 
L 2834 2853 
Q 2591 2978 2328 3040 
Q 2066 3103 1784 3103 
Q 1356 3103 1142 2972 
Q 928 2841 928 2578 
Q 928 2378 1081 2264 
Q 1234 2150 1697 2047 
L 1894 2003 
Q 2506 1872 2764 1633 
Q 3022 1394 3022 966 
Q 3022 478 2636 193 
Q 2250 -91 1575 -91 
Q 1294 -91 989 -36 
Q 684 19 347 128 
L 347 722 
Q 666 556 975 473 
Q 1284 391 1588 391 
Q 1994 391 2212 530 
Q 2431 669 2431 922 
Q 2431 1156 2273 1281 
Q 2116 1406 1581 1522 
L 1381 1569 
Q 847 1681 609 1914 
Q 372 2147 372 2553 
Q 372 3047 722 3315 
Q 1072 3584 1716 3584 
Q 2034 3584 2315 3537 
Q 2597 3491 2834 3397 
z
" transform="scale(0.015625)"/>
       <path id="DejaVuSans-74" d="M 1172 4494 
L 1172 3500 
L 2356 3500 
L 2356 3053 
L 1172 3053 
L 1172 1153 
Q 1172 725 1289 603 
Q 1406 481 1766 481 
L 2356 481 
L 2356 0 
L 1766 0 
Q 1100 0 847 248 
Q 594 497 594 1153 
L 594 3053 
L 172 3053 
L 172 3500 
L 594 3500 
L 594 4494 
L 1172 4494 
z
" transform="scale(0.015625)"/>
       <path id="DejaVuSans-20" transform="scale(0.015625)"/>
       <path id="DejaVuSans-49" d="M 628 4666 
L 1259 4666 
L 1259 0 
L 628 0 
L 628 4666 
z
" transform="scale(0.015625)"/>
       <path id="DejaVuSans-6e" d="M 3513 2113 
L 3513 0 
L 2938 0 
L 2938 2094 
Q 2938 2591 2744 2837 
Q 2550 3084 2163 3084 
Q 1697 3084 1428 2787 
Q 1159 2491 1159 1978 
L 1159 0 
L 581 0 
L 581 3500 
L 1159 3500 
L 1159 2956 
Q 1366 3272 1645 3428 
Q 1925 3584 2291 3584 
Q 2894 3584 3203 3211 
Q 3513 2838 3513 2113 
z
" transform="scale(0.015625)"/>
       <path id="DejaVuSans-65" d="M 3597 1894 
L 3597 1613 
L 953 1613 
Q 991 1019 1311 708 
Q 1631 397 2203 397 
Q 2534 397 2845 478 
Q 3156 559 3463 722 
L 3463 178 
Q 3153 47 2828 -22 
Q 2503 -91 2169 -91 
Q 1331 -91 842 396 
Q 353 884 353 1716 
Q 353 2575 817 3079 
Q 1281 3584 2069 3584 
Q 2775 3584 3186 3129 
Q 3597 2675 3597 1894 
z
M 3022 2063 
Q 3016 2534 2758 2815 
Q 2500 3097 2075 3097 
Q 1594 3097 1305 2825 
Q 1016 2553 972 2059 
L 3022 2063 
z
" transform="scale(0.015625)"/>
       <path id="DejaVuSans-72" d="M 2631 2963 
Q 2534 3019 2420 3045 
Q 2306 3072 2169 3072 
Q 1681 3072 1420 2755 
Q 1159 2438 1159 1844 
L 1159 0 
L 581 0 
L 581 3500 
L 1159 3500 
L 1159 2956 
Q 1341 3275 1631 3429 
Q 1922 3584 2338 3584 
Q 2397 3584 2469 3576 
Q 2541 3569 2628 3553 
L 2631 2963 
z
" transform="scale(0.015625)"/>
       <path id="DejaVuSans-63" d="M 3122 3366 
L 3122 2828 
Q 2878 2963 2633 3030 
Q 2388 3097 2138 3097 
Q 1578 3097 1268 2742 
Q 959 2388 959 1747 
Q 959 1106 1268 751 
Q 1578 397 2138 397 
Q 2388 397 2633 464 
Q 2878 531 3122 666 
L 3122 134 
Q 2881 22 2623 -34 
Q 2366 -91 2075 -91 
Q 1284 -91 818 406 
Q 353 903 353 1747 
Q 353 2603 823 3093 
Q 1294 3584 2113 3584 
Q 2378 3584 2631 3529 
Q 2884 3475 3122 3366 
z
" transform="scale(0.015625)"/>
       <path id="DejaVuSans-69" d="M 603 3500 
L 1178 3500 
L 1178 0 
L 603 0 
L 603 3500 
z
M 603 4863 
L 1178 4863 
L 1178 4134 
L 603 4134 
L 603 4863 
z
" transform="scale(0.015625)"/>
       <path id="DejaVuSans-6f" d="M 1959 3097 
Q 1497 3097 1228 2736 
Q 959 2375 959 1747 
Q 959 1119 1226 758 
Q 1494 397 1959 397 
Q 2419 397 2687 759 
Q 2956 1122 2956 1747 
Q 2956 2369 2687 2733 
Q 2419 3097 1959 3097 
z
M 1959 3584 
Q 2709 3584 3137 3096 
Q 3566 2609 3566 1747 
Q 3566 888 3137 398 
Q 2709 -91 1959 -91 
Q 1206 -91 779 398 
Q 353 888 353 1747 
Q 353 2609 779 3096 
Q 1206 3584 1959 3584 
z
" transform="scale(0.015625)"/>
       <path id="DejaVuSans-56" d="M 1831 0 
L 50 4666 
L 709 4666 
L 2188 738 
L 3669 4666 
L 4325 4666 
L 2547 0 
L 1831 0 
z
" transform="scale(0.015625)"/>
       <path id="DejaVuSans-6c" d="M 603 4863 
L 1178 4863 
L 1178 0 
L 603 0 
L 603 4863 
z
" transform="scale(0.015625)"/>
       <path id="DejaVuSans-79" d="M 2059 -325 
Q 1816 -950 1584 -1140 
Q 1353 -1331 966 -1331 
L 506 -1331 
L 506 -850 
L 844 -850 
Q 1081 -850 1212 -737 
Q 1344 -625 1503 -206 
L 1606 56 
L 191 3500 
L 800 3500 
L 1894 763 
L 2988 3500 
L 3597 3500 
L 2059 -325 
z
" transform="scale(0.015625)"/>
       <path id="DejaVuSans-28" d="M 1984 4856 
Q 1566 4138 1362 3434 
Q 1159 2731 1159 2009 
Q 1159 1288 1364 580 
Q 1569 -128 1984 -844 
L 1484 -844 
Q 1016 -109 783 600 
Q 550 1309 550 2009 
Q 550 2706 781 3412 
Q 1013 4119 1484 4856 
L 1984 4856 
z
" transform="scale(0.015625)"/>
       <path id="DejaVuSans-6b" d="M 581 4863 
L 1159 4863 
L 1159 1991 
L 2875 3500 
L 3609 3500 
L 1753 1863 
L 3688 0 
L 2938 0 
L 1159 1709 
L 1159 0 
L 581 0 
L 581 4863 
z
" transform="scale(0.015625)"/>
       <path id="DejaVuSans-6d" d="M 3328 2828 
Q 3544 3216 3844 3400 
Q 4144 3584 4550 3584 
Q 5097 3584 5394 3201 
Q 5691 2819 5691 2113 
L 5691 0 
L 5113 0 
L 5113 2094 
Q 5113 2597 4934 2840 
Q 4756 3084 4391 3084 
Q 3944 3084 3684 2787 
Q 3425 2491 3425 1978 
L 3425 0 
L 2847 0 
L 2847 2094 
Q 2847 2600 2669 2842 
Q 2491 3084 2119 3084 
Q 1678 3084 1418 2786 
Q 1159 2488 1159 1978 
L 1159 0 
L 581 0 
L 581 3500 
L 1159 3500 
L 1159 2956 
Q 1356 3278 1631 3431 
Q 1906 3584 2284 3584 
Q 2666 3584 2933 3390 
Q 3200 3197 3328 2828 
z
" transform="scale(0.015625)"/>
       <path id="DejaVuSans-2f" d="M 1625 4666 
L 2156 4666 
L 531 -594 
L 0 -594 
L 1625 4666 
z
" transform="scale(0.015625)"/>
       <path id="DejaVuSans-29" d="M 513 4856 
L 1013 4856 
Q 1481 4119 1714 3412 
Q 1947 2706 1947 2009 
Q 1947 1309 1714 600 
Q 1481 -109 1013 -844 
L 513 -844 
Q 928 -128 1133 580 
Q 1338 1288 1338 2009 
Q 1338 2731 1133 3434 
Q 928 4138 513 4856 
z
" transform="scale(0.015625)"/>
      </defs>
      <use xlink:href="#DejaVuSans-4c"/>
      <use xlink:href="#DejaVuSans-61" x="55.712891"/>
      <use xlink:href="#DejaVuSans-73" x="116.992188"/>
      <use xlink:href="#DejaVuSans-74" x="169.091797"/>
      <use xlink:href="#DejaVuSans-20" x="208.300781"/>
      <use xlink:href="#DejaVuSans-49" x="240.087891"/>
      <use xlink:href="#DejaVuSans-6e" x="269.580078"/>
      <use xlink:href="#DejaVuSans-74" x="332.958984"/>
      <use xlink:href="#DejaVuSans-65" x="372.167969"/>
      <use xlink:href="#DejaVuSans-72" x="433.691406"/>
      <use xlink:href="#DejaVuSans-61" x="474.804688"/>
      <use xlink:href="#DejaVuSans-63" x="536.083984"/>
      <use xlink:href="#DejaVuSans-74" x="591.064453"/>
      <use xlink:href="#DejaVuSans-69" x="630.273438"/>
      <use xlink:href="#DejaVuSans-6f" x="658.056641"/>
      <use xlink:href="#DejaVuSans-6e" x="719.238281"/>
      <use xlink:href="#DejaVuSans-20" x="782.617188"/>
      <use xlink:href="#DejaVuSans-56" x="814.404297"/>
      <use xlink:href="#DejaVuSans-65" x="875.0625"/>
      <use xlink:href="#DejaVuSans-6c" x="936.585938"/>
      <use xlink:href="#DejaVuSans-6f" x="964.369141"/>
      <use xlink:href="#DejaVuSans-63" x="1025.550781"/>
      <use xlink:href="#DejaVuSans-69" x="1080.53125"/>
      <use xlink:href="#DejaVuSans-74" x="1108.314453"/>
      <use xlink:href="#DejaVuSans-79" x="1147.523438"/>
      <use xlink:href="#DejaVuSans-20" x="1206.703125"/>
      <use xlink:href="#DejaVuSans-28" x="1238.490234"/>
      <use xlink:href="#DejaVuSans-6b" x="1277.503906"/>
      <use xlink:href="#DejaVuSans-6d" x="1335.414062"/>
      <use xlink:href="#DejaVuSans-2f" x="1432.826172"/>
      <use xlink:href="#DejaVuSans-73" x="1466.517578"/>
      <use xlink:href="#DejaVuSans-29" x="1518.617188"/>
     </g>
    </g>
   </g>
   <g id="matplotlib.axis_2">
    <g id="ytick_1">
     <g id="line2d_11">
      <path d="M 40.656875 293.776619 
L 777.466875 293.776619 
" clip-path="url(#pc91d6a9be3)" style="fill: none; stroke-dasharray: 1.85,0.8; stroke-dashoffset: 0; stroke: #b0b0b0; stroke-width: 0.5"/>
     </g>
     <g id="line2d_12">
      <defs>
       <path id="m4939071fe8" d="M 0 0 
L -3.5 0 
" style="stroke: #000000; stroke-width: 0.8"/>
      </defs>
      <g>
       <use xlink:href="#m4939071fe8" x="40.656875" y="293.776619" style="stroke: #000000; stroke-width: 0.8"/>
      </g>
     </g>
     <g id="text_7">
      <!-- 0 -->
      <g transform="translate(24.749375 299.095526) scale(0.14 -0.14)">
       <use xlink:href="#DejaVuSans-30"/>
      </g>
     </g>
    </g>
    <g id="ytick_2">
     <g id="line2d_13">
      <path d="M 40.656875 254.547311 
L 777.466875 254.547311 
" clip-path="url(#pc91d6a9be3)" style="fill: none; stroke-dasharray: 1.85,0.8; stroke-dashoffset: 0; stroke: #b0b0b0; stroke-width: 0.5"/>
     </g>
     <g id="line2d_14">
      <g>
       <use xlink:href="#m4939071fe8" x="40.656875" y="254.547311" style="stroke: #000000; stroke-width: 0.8"/>
      </g>
     </g>
     <g id="text_8">
      <!-- 1 -->
      <g transform="translate(24.749375 259.866218) scale(0.14 -0.14)">
       <use xlink:href="#DejaVuSans-31"/>
      </g>
     </g>
    </g>
    <g id="ytick_3">
     <g id="line2d_15">
      <path d="M 40.656875 215.318003 
L 777.466875 215.318003 
" clip-path="url(#pc91d6a9be3)" style="fill: none; stroke-dasharray: 1.85,0.8; stroke-dashoffset: 0; stroke: #b0b0b0; stroke-width: 0.5"/>
     </g>
     <g id="line2d_16">
      <g>
       <use xlink:href="#m4939071fe8" x="40.656875" y="215.318003" style="stroke: #000000; stroke-width: 0.8"/>
      </g>
     </g>
     <g id="text_9">
      <!-- 2 -->
      <g transform="translate(24.749375 220.63691) scale(0.14 -0.14)">
       <use xlink:href="#DejaVuSans-32"/>
      </g>
     </g>
    </g>
    <g id="ytick_4">
     <g id="line2d_17">
      <path d="M 40.656875 176.088695 
L 777.466875 176.088695 
" clip-path="url(#pc91d6a9be3)" style="fill: none; stroke-dasharray: 1.85,0.8; stroke-dashoffset: 0; stroke: #b0b0b0; stroke-width: 0.5"/>
     </g>
     <g id="line2d_18">
      <g>
       <use xlink:href="#m4939071fe8" x="40.656875" y="176.088695" style="stroke: #000000; stroke-width: 0.8"/>
      </g>
     </g>
     <g id="text_10">
      <!-- 3 -->
      <g transform="translate(24.749375 181.407602) scale(0.14 -0.14)">
       <defs>
        <path id="DejaVuSans-33" d="M 2597 2516 
Q 3050 2419 3304 2112 
Q 3559 1806 3559 1356 
Q 3559 666 3084 287 
Q 2609 -91 1734 -91 
Q 1441 -91 1130 -33 
Q 819 25 488 141 
L 488 750 
Q 750 597 1062 519 
Q 1375 441 1716 441 
Q 2309 441 2620 675 
Q 2931 909 2931 1356 
Q 2931 1769 2642 2001 
Q 2353 2234 1838 2234 
L 1294 2234 
L 1294 2753 
L 1863 2753 
Q 2328 2753 2575 2939 
Q 2822 3125 2822 3475 
Q 2822 3834 2567 4026 
Q 2313 4219 1838 4219 
Q 1578 4219 1281 4162 
Q 984 4106 628 3988 
L 628 4550 
Q 988 4650 1302 4700 
Q 1616 4750 1894 4750 
Q 2613 4750 3031 4423 
Q 3450 4097 3450 3541 
Q 3450 3153 3228 2886 
Q 3006 2619 2597 2516 
z
" transform="scale(0.015625)"/>
       </defs>
       <use xlink:href="#DejaVuSans-33"/>
      </g>
     </g>
    </g>
    <g id="ytick_5">
     <g id="line2d_19">
      <path d="M 40.656875 136.859387 
L 777.466875 136.859387 
" clip-path="url(#pc91d6a9be3)" style="fill: none; stroke-dasharray: 1.85,0.8; stroke-dashoffset: 0; stroke: #b0b0b0; stroke-width: 0.5"/>
     </g>
     <g id="line2d_20">
      <g>
       <use xlink:href="#m4939071fe8" x="40.656875" y="136.859387" style="stroke: #000000; stroke-width: 0.8"/>
      </g>
     </g>
     <g id="text_11">
      <!-- 4 -->
      <g transform="translate(24.749375 142.178294) scale(0.14 -0.14)">
       <use xlink:href="#DejaVuSans-34"/>
      </g>
     </g>
    </g>
    <g id="ytick_6">
     <g id="line2d_21">
      <path d="M 40.656875 97.630079 
L 777.466875 97.630079 
" clip-path="url(#pc91d6a9be3)" style="fill: none; stroke-dasharray: 1.85,0.8; stroke-dashoffset: 0; stroke: #b0b0b0; stroke-width: 0.5"/>
     </g>
     <g id="line2d_22">
      <g>
       <use xlink:href="#m4939071fe8" x="40.656875" y="97.630079" style="stroke: #000000; stroke-width: 0.8"/>
      </g>
     </g>
     <g id="text_12">
      <!-- 5 -->
      <g transform="translate(24.749375 102.948986) scale(0.14 -0.14)">
       <defs>
        <path id="DejaVuSans-35" d="M 691 4666 
L 3169 4666 
L 3169 4134 
L 1269 4134 
L 1269 2991 
Q 1406 3038 1543 3061 
Q 1681 3084 1819 3084 
Q 2600 3084 3056 2656 
Q 3513 2228 3513 1497 
Q 3513 744 3044 326 
Q 2575 -91 1722 -91 
Q 1428 -91 1123 -41 
Q 819 9 494 109 
L 494 744 
Q 775 591 1075 516 
Q 1375 441 1709 441 
Q 2250 441 2565 725 
Q 2881 1009 2881 1497 
Q 2881 1984 2565 2268 
Q 2250 2553 1709 2553 
Q 1456 2553 1204 2497 
Q 953 2441 691 2322 
L 691 4666 
z
" transform="scale(0.015625)"/>
       </defs>
       <use xlink:href="#DejaVuSans-35"/>
      </g>
     </g>
    </g>
    <g id="ytick_7">
     <g id="line2d_23">
      <path d="M 40.656875 58.400771 
L 777.466875 58.400771 
" clip-path="url(#pc91d6a9be3)" style="fill: none; stroke-dasharray: 1.85,0.8; stroke-dashoffset: 0; stroke: #b0b0b0; stroke-width: 0.5"/>
     </g>
     <g id="line2d_24">
      <g>
       <use xlink:href="#m4939071fe8" x="40.656875" y="58.400771" style="stroke: #000000; stroke-width: 0.8"/>
      </g>
     </g>
     <g id="text_13">
      <!-- 6 -->
      <g transform="translate(24.749375 63.719678) scale(0.14 -0.14)">
       <use xlink:href="#DejaVuSans-36"/>
      </g>
     </g>
    </g>
    <g id="ytick_8">
     <g id="line2d_25">
      <path d="M 40.656875 19.171463 
L 777.466875 19.171463 
" clip-path="url(#pc91d6a9be3)" style="fill: none; stroke-dasharray: 1.85,0.8; stroke-dashoffset: 0; stroke: #b0b0b0; stroke-width: 0.5"/>
     </g>
     <g id="line2d_26">
      <g>
       <use xlink:href="#m4939071fe8" x="40.656875" y="19.171463" style="stroke: #000000; stroke-width: 0.8"/>
      </g>
     </g>
     <g id="text_14">
      <!-- 7 -->
      <g transform="translate(24.749375 24.49037) scale(0.14 -0.14)">
       <defs>
        <path id="DejaVuSans-37" d="M 525 4666 
L 3525 4666 
L 3525 4397 
L 1831 0 
L 1172 0 
L 2766 4134 
L 525 4134 
L 525 4666 
z
" transform="scale(0.015625)"/>
       </defs>
       <use xlink:href="#DejaVuSans-37"/>
      </g>
     </g>
    </g>
    <g id="text_15">
     <!-- Packet Count -->
     <g transform="translate(17.837813 208.266406) rotate(-90) scale(0.14 -0.14)">
      <defs>
       <path id="DejaVuSans-50" d="M 1259 4147 
L 1259 2394 
L 2053 2394 
Q 2494 2394 2734 2622 
Q 2975 2850 2975 3272 
Q 2975 3691 2734 3919 
Q 2494 4147 2053 4147 
L 1259 4147 
z
M 628 4666 
L 2053 4666 
Q 2838 4666 3239 4311 
Q 3641 3956 3641 3272 
Q 3641 2581 3239 2228 
Q 2838 1875 2053 1875 
L 1259 1875 
L 1259 0 
L 628 0 
L 628 4666 
z
" transform="scale(0.015625)"/>
       <path id="DejaVuSans-43" d="M 4122 4306 
L 4122 3641 
Q 3803 3938 3442 4084 
Q 3081 4231 2675 4231 
Q 1875 4231 1450 3742 
Q 1025 3253 1025 2328 
Q 1025 1406 1450 917 
Q 1875 428 2675 428 
Q 3081 428 3442 575 
Q 3803 722 4122 1019 
L 4122 359 
Q 3791 134 3420 21 
Q 3050 -91 2638 -91 
Q 1578 -91 968 557 
Q 359 1206 359 2328 
Q 359 3453 968 4101 
Q 1578 4750 2638 4750 
Q 3056 4750 3426 4639 
Q 3797 4528 4122 4306 
z
" transform="scale(0.015625)"/>
       <path id="DejaVuSans-75" d="M 544 1381 
L 544 3500 
L 1119 3500 
L 1119 1403 
Q 1119 906 1312 657 
Q 1506 409 1894 409 
Q 2359 409 2629 706 
Q 2900 1003 2900 1516 
L 2900 3500 
L 3475 3500 
L 3475 0 
L 2900 0 
L 2900 538 
Q 2691 219 2414 64 
Q 2138 -91 1772 -91 
Q 1169 -91 856 284 
Q 544 659 544 1381 
z
M 1991 3584 
L 1991 3584 
z
" transform="scale(0.015625)"/>
      </defs>
      <use xlink:href="#DejaVuSans-50"/>
      <use xlink:href="#DejaVuSans-61" x="55.802734"/>
      <use xlink:href="#DejaVuSans-63" x="117.082031"/>
      <use xlink:href="#DejaVuSans-6b" x="172.0625"/>
      <use xlink:href="#DejaVuSans-65" x="226.347656"/>
      <use xlink:href="#DejaVuSans-74" x="287.871094"/>
      <use xlink:href="#DejaVuSans-20" x="327.080078"/>
      <use xlink:href="#DejaVuSans-43" x="358.867188"/>
      <use xlink:href="#DejaVuSans-6f" x="428.691406"/>
      <use xlink:href="#DejaVuSans-75" x="489.873047"/>
      <use xlink:href="#DejaVuSans-6e" x="553.251953"/>
      <use xlink:href="#DejaVuSans-74" x="616.630859"/>
     </g>
    </g>
    <g id="text_16">
     <!-- 1e2 -->
     <g transform="translate(40.656875 14.798437) scale(0.1 -0.1)">
      <use xlink:href="#DejaVuSans-31"/>
      <use xlink:href="#DejaVuSans-65" x="63.623047"/>
      <use xlink:href="#DejaVuSans-32" x="125.146484"/>
     </g>
    </g>
   </g>
   <g id="line2d_27">
    <path d="M 74.148239 47.808858 
L 107.639602 47.808858 
L 107.639602 47.808858 
L 107.639602 47.808858 
L 107.639602 54.47784 
L 141.130966 54.47784 
L 141.130966 54.47784 
L 141.130966 54.47784 
L 141.130966 123.521423 
L 174.62233 123.521423 
L 174.62233 123.521423 
L 174.62233 123.521423 
L 174.62233 160.396972 
L 208.113693 160.396972 
L 208.113693 160.396972 
L 208.113693 160.396972 
L 208.113693 215.710296 
L 241.605057 215.710296 
L 241.605057 215.710296 
L 241.605057 215.710296 
L 241.605057 234.540364 
L 275.09642 234.540364 
L 275.09642 234.540364 
L 275.09642 234.540364 
L 275.09642 243.955398 
L 308.587784 243.955398 
L 308.587784 243.955398 
L 308.587784 243.955398 
L 308.587784 256.508777 
L 342.079148 256.508777 
L 342.079148 256.508777 
L 342.079148 256.508777 
L 342.079148 269.062155 
L 375.570511 269.062155 
L 375.570511 269.062155 
L 375.570511 269.062155 
L 375.570511 270.631328 
L 409.061875 270.631328 
L 409.061875 270.631328 
L 409.061875 270.631328 
L 409.061875 276.123431 
L 442.553239 276.123431 
L 442.553239 276.123431 
L 442.553239 276.123431 
L 442.553239 277.692603 
L 476.044602 277.692603 
L 476.044602 277.692603 
L 476.044602 277.692603 
L 476.044602 278.477189 
L 509.535966 278.477189 
L 509.535966 278.477189 
L 509.535966 278.477189 
L 509.535966 277.692603 
L 543.02733 277.692603 
L 543.02733 277.692603 
L 543.02733 277.692603 
L 543.02733 278.869482 
L 576.518693 278.869482 
L 576.518693 278.869482 
L 576.518693 278.869482 
L 576.518693 285.538465 
L 610.010057 285.538465 
L 610.010057 285.538465 
L 610.010057 285.538465 
L 610.010057 283.969292 
L 643.50142 283.969292 
L 643.50142 283.969292 
L 643.50142 283.969292 
L 643.50142 290.245982 
L 676.992784 290.245982 
L 676.992784 290.245982 
L 676.992784 290.245982 
L 676.992784 285.538465 
L 710.484148 285.538465 
L 710.484148 285.538465 
L 710.484148 285.538465 
L 710.484148 279.261775 
L 743.975511 279.261775 
L 743.975511 279.261775 
" clip-path="url(#pc91d6a9be3)" style="fill: none; stroke: #000080; stroke-opacity: 0.75; stroke-width: 2.5; stroke-linecap: square"/>
   </g>
   <g id="line2d_28">
    <path d="M 74.148239 104.299062 
L 107.639602 104.299062 
L 107.639602 104.299062 
L 107.639602 104.299062 
L 107.639602 73.700201 
L 141.130966 73.700201 
L 141.130966 73.700201 
L 141.130966 73.700201 
L 141.130966 52.516375 
L 174.62233 52.516375 
L 174.62233 52.516375 
L 174.62233 52.516375 
L 174.62233 30.940256 
L 208.113693 30.940256 
L 208.113693 30.940256 
L 208.113693 30.940256 
L 208.113693 96.4532 
L 241.605057 96.4532 
L 241.605057 96.4532 
L 241.605057 96.4532 
L 241.605057 82.330649 
L 275.09642 82.330649 
L 275.09642 82.330649 
L 275.09642 82.330649 
L 275.09642 103.514475 
L 308.587784 103.514475 
L 308.587784 103.514475 
L 308.587784 103.514475 
L 308.587784 110.575751 
L 342.079148 110.575751 
L 342.079148 110.575751 
L 342.079148 110.575751 
L 342.079148 133.721043 
L 375.570511 133.721043 
L 375.570511 133.721043 
L 375.570511 133.721043 
L 375.570511 156.866334 
L 409.061875 156.866334 
L 409.061875 156.866334 
L 409.061875 156.866334 
L 409.061875 194.918763 
L 442.553239 194.918763 
L 442.553239 194.918763 
L 442.553239 194.918763 
L 442.553239 185.503729 
L 476.044602 185.503729 
L 476.044602 185.503729 
L 476.044602 185.503729 
L 476.044602 197.664815 
L 509.535966 197.664815 
L 509.535966 197.664815 
L 509.535966 197.664815 
L 509.535966 215.318003 
L 543.02733 215.318003 
L 543.02733 215.318003 
L 543.02733 215.318003 
L 543.02733 227.086796 
L 576.518693 227.086796 
L 576.518693 227.086796 
L 576.518693 227.086796 
L 576.518693 238.463295 
L 610.010057 238.463295 
L 610.010057 238.463295 
L 610.010057 238.463295 
L 610.010057 253.762725 
L 643.50142 253.762725 
L 643.50142 253.762725 
L 643.50142 253.762725 
L 643.50142 249.447501 
L 676.992784 249.447501 
L 676.992784 249.447501 
L 676.992784 249.447501 
L 676.992784 258.077949 
L 710.484148 258.077949 
L 710.484148 258.077949 
L 710.484148 258.077949 
L 710.484148 254.155018 
L 743.975511 254.155018 
L 743.975511 254.155018 
" clip-path="url(#pc91d6a9be3)" style="fill: none; stroke: #0080ff; stroke-opacity: 0.75; stroke-width: 2.5; stroke-linecap: square"/>
   </g>
   <g id="line2d_29">
    <path d="M 74.148239 203.941504 
L 107.639602 203.941504 
L 107.639602 203.941504 
L 107.639602 203.941504 
L 107.639602 226.30221 
L 141.130966 226.30221 
L 141.130966 226.30221 
L 141.130966 226.30221 
L 141.130966 240.42476 
L 174.62233 240.42476 
L 174.62233 240.42476 
L 174.62233 240.42476 
L 174.62233 243.170812 
L 208.113693 243.170812 
L 208.113693 243.170812 
L 208.113693 243.170812 
L 208.113693 246.309157 
L 241.605057 246.309157 
L 241.605057 246.309157 
L 241.605057 246.309157 
L 241.605057 248.662915 
L 275.09642 248.662915 
L 275.09642 248.662915 
L 275.09642 248.662915 
L 275.09642 250.232087 
L 308.587784 250.232087 
L 308.587784 250.232087 
L 308.587784 250.232087 
L 308.587784 249.839794 
L 342.079148 249.839794 
L 342.079148 249.839794 
L 342.079148 249.839794 
L 342.079148 252.193553 
L 375.570511 252.193553 
L 375.570511 252.193553 
L 375.570511 252.193553 
L 375.570511 249.839794 
L 409.061875 249.839794 
L 409.061875 249.839794 
L 409.061875 249.839794 
L 409.061875 261.608587 
L 442.553239 261.608587 
L 442.553239 261.608587 
L 442.553239 261.608587 
L 442.553239 261.216294 
L 476.044602 261.216294 
L 476.044602 261.216294 
L 476.044602 261.216294 
L 476.044602 263.962345 
L 509.535966 263.962345 
L 509.535966 263.962345 
L 509.535966 263.962345 
L 509.535966 267.492983 
L 543.02733 267.492983 
L 543.02733 267.492983 
L 543.02733 267.492983 
L 543.02733 271.808207 
L 576.518693 271.808207 
L 576.518693 271.808207 
L 576.518693 271.808207 
L 576.518693 272.2005 
L 610.010057 272.2005 
L 610.010057 272.2005 
L 610.010057 272.2005 
L 610.010057 272.985086 
L 643.50142 272.985086 
L 643.50142 272.985086 
L 643.50142 272.985086 
L 643.50142 279.654068 
L 676.992784 279.654068 
L 676.992784 279.654068 
L 676.992784 279.654068 
L 676.992784 280.046362 
L 710.484148 280.046362 
L 710.484148 280.046362 
L 710.484148 280.046362 
L 710.484148 280.046362 
L 743.975511 280.046362 
L 743.975511 280.046362 
" clip-path="url(#pc91d6a9be3)" style="fill: none; stroke: #7bff7b; stroke-opacity: 0.75; stroke-width: 2.5; stroke-linecap: square"/>
   </g>
   <g id="line2d_30">
    <path d="M 74.148239 289.461395 
L 107.639602 289.461395 
L 107.639602 289.461395 
L 107.639602 289.461395 
L 107.639602 290.245982 
L 141.130966 290.245982 
L 141.130966 290.245982 
L 141.130966 290.245982 
L 141.130966 289.461395 
L 174.62233 289.461395 
L 174.62233 289.461395 
L 174.62233 289.461395 
L 174.62233 291.815154 
L 208.113693 291.815154 
L 208.113693 291.815154 
L 208.113693 291.815154 
L 208.113693 289.853689 
L 241.605057 289.853689 
L 241.605057 289.853689 
L 241.605057 289.853689 
L 241.605057 290.638275 
L 275.09642 290.638275 
L 275.09642 290.638275 
L 275.09642 290.638275 
L 275.09642 292.59974 
L 308.587784 292.59974 
L 308.587784 292.59974 
L 308.587784 292.59974 
L 308.587784 292.992033 
L 342.079148 292.992033 
L 342.079148 292.992033 
L 342.079148 292.992033 
L 342.079148 292.992033 
L 375.570511 292.992033 
L 375.570511 292.992033 
L 375.570511 292.992033 
L 375.570511 291.030568 
L 409.061875 291.030568 
L 409.061875 291.030568 
L 409.061875 291.030568 
L 409.061875 289.069102 
L 442.553239 289.069102 
L 442.553239 289.069102 
L 442.553239 289.069102 
L 442.553239 286.715344 
L 476.044602 286.715344 
L 476.044602 286.715344 
L 476.044602 286.715344 
L 476.044602 287.892223 
L 509.535966 287.892223 
L 509.535966 287.892223 
L 509.535966 287.892223 
L 509.535966 285.930758 
L 543.02733 285.930758 
L 543.02733 285.930758 
L 543.02733 285.930758 
L 543.02733 278.869482 
L 576.518693 278.869482 
L 576.518693 278.869482 
L 576.518693 278.869482 
L 576.518693 276.515724 
L 610.010057 276.515724 
L 610.010057 276.515724 
L 610.010057 276.515724 
L 610.010057 279.654068 
L 643.50142 279.654068 
L 643.50142 279.654068 
L 643.50142 279.654068 
L 643.50142 283.969292 
L 676.992784 283.969292 
L 676.992784 283.969292 
L 676.992784 283.969292 
L 676.992784 278.477189 
L 710.484148 278.477189 
L 710.484148 278.477189 
L 710.484148 278.477189 
L 710.484148 274.946551 
L 743.975511 274.946551 
L 743.975511 274.946551 
" clip-path="url(#pc91d6a9be3)" style="fill: none; stroke: #ff9700; stroke-opacity: 0.75; stroke-width: 2.5; stroke-linecap: square"/>
   </g>
   <g id="line2d_31">
    <path d="M 74.148239 198.841694 
L 107.639602 198.841694 
L 107.639602 198.841694 
L 107.639602 198.841694 
L 107.639602 199.233987 
L 141.130966 199.233987 
L 141.130966 199.233987 
L 141.130966 199.233987 
L 141.130966 229.048261 
L 174.62233 229.048261 
L 174.62233 229.048261 
L 174.62233 229.048261 
L 174.62233 235.717243 
L 208.113693 235.717243 
L 208.113693 235.717243 
L 208.113693 235.717243 
L 208.113693 264.354638 
L 241.605057 264.354638 
L 241.605057 264.354638 
L 241.605057 264.354638 
L 241.605057 270.631328 
L 275.09642 270.631328 
L 275.09642 270.631328 
L 275.09642 270.631328 
L 275.09642 278.084896 
L 308.587784 278.084896 
L 308.587784 278.084896 
L 308.587784 278.084896 
L 308.587784 280.046362 
L 342.079148 280.046362 
L 342.079148 280.046362 
L 342.079148 280.046362 
L 342.079148 286.323051 
L 375.570511 286.323051 
L 375.570511 286.323051 
L 375.570511 286.323051 
L 375.570511 287.892223 
L 409.061875 287.892223 
L 409.061875 287.892223 
L 409.061875 287.892223 
L 409.061875 288.676809 
L 442.553239 288.676809 
L 442.553239 288.676809 
L 442.553239 288.676809 
L 442.553239 292.207447 
L 476.044602 292.207447 
L 476.044602 292.207447 
L 476.044602 292.207447 
L 476.044602 292.992033 
L 509.535966 292.992033 
L 509.535966 292.992033 
L 509.535966 292.992033 
L 509.535966 293.384326 
L 543.02733 293.384326 
L 543.02733 293.384326 
L 543.02733 293.384326 
L 543.02733 293.776619 
L 576.518693 293.776619 
L 576.518693 293.776619 
L 576.518693 293.776619 
L 576.518693 293.384326 
L 610.010057 293.384326 
L 610.010057 293.384326 
L 610.010057 293.384326 
L 610.010057 293.384326 
L 643.50142 293.384326 
L 643.50142 293.384326 
L 643.50142 293.384326 
L 643.50142 292.992033 
L 676.992784 292.992033 
L 676.992784 292.992033 
L 676.992784 292.992033 
L 676.992784 293.776619 
L 710.484148 293.776619 
L 710.484148 293.776619 
L 710.484148 293.776619 
L 710.484148 293.776619 
L 743.975511 293.776619 
L 743.975511 293.776619 
" clip-path="url(#pc91d6a9be3)" style="fill: none; stroke: #800000; stroke-opacity: 0.75; stroke-width: 2.5; stroke-linecap: square"/>
   </g>
   <g id="patch_3">
    <path d="M 40.656875 306.918437 
L 40.656875 17.798437 
" style="fill: none; stroke: #000000; stroke-width: 0.8; stroke-linejoin: miter; stroke-linecap: square"/>
   </g>
   <g id="patch_4">
    <path d="M 777.466875 306.918437 
L 777.466875 17.798437 
" style="fill: none; stroke: #000000; stroke-width: 0.8; stroke-linejoin: miter; stroke-linecap: square"/>
   </g>
   <g id="patch_5">
    <path d="M 40.656875 306.918437 
L 777.466875 306.918437 
" style="fill: none; stroke: #000000; stroke-width: 0.8; stroke-linejoin: miter; stroke-linecap: square"/>
   </g>
   <g id="patch_6">
    <path d="M 40.656875 17.798437 
L 777.466875 17.798437 
" style="fill: none; stroke: #000000; stroke-width: 0.8; stroke-linejoin: miter; stroke-linecap: square"/>
   </g>
   <g id="legend_1">
    <g id="patch_7">
     <path d="M 682.884844 139.884375 
L 766.966875 139.884375 
Q 769.966875 139.884375 769.966875 136.884375 
L 769.966875 28.298437 
Q 769.966875 25.298437 766.966875 25.298437 
L 682.884844 25.298437 
Q 679.884844 25.298437 679.884844 28.298437 
L 679.884844 136.884375 
Q 679.884844 139.884375 682.884844 139.884375 
z
" style="fill: #ffffff; opacity: 0.8; stroke: #cccccc; stroke-linejoin: miter"/>
    </g>
    <g id="line2d_32">
     <path d="M 685.884844 37.446094 
L 700.884844 37.446094 
L 700.884844 37.446094 
L 715.884844 37.446094 
L 715.884844 37.446094 
" style="fill: none; stroke: #000080; stroke-opacity: 0.75; stroke-width: 2.5; stroke-linecap: square"/>
    </g>
    <g id="text_17">
     <!-- Si II -->
     <g transform="translate(727.884844 42.696094) scale(0.15 -0.15)">
      <defs>
       <path id="DejaVuSans-53" d="M 3425 4513 
L 3425 3897 
Q 3066 4069 2747 4153 
Q 2428 4238 2131 4238 
Q 1616 4238 1336 4038 
Q 1056 3838 1056 3469 
Q 1056 3159 1242 3001 
Q 1428 2844 1947 2747 
L 2328 2669 
Q 3034 2534 3370 2195 
Q 3706 1856 3706 1288 
Q 3706 609 3251 259 
Q 2797 -91 1919 -91 
Q 1588 -91 1214 -16 
Q 841 59 441 206 
L 441 856 
Q 825 641 1194 531 
Q 1563 422 1919 422 
Q 2459 422 2753 634 
Q 3047 847 3047 1241 
Q 3047 1584 2836 1778 
Q 2625 1972 2144 2069 
L 1759 2144 
Q 1053 2284 737 2584 
Q 422 2884 422 3419 
Q 422 4038 858 4394 
Q 1294 4750 2059 4750 
Q 2388 4750 2728 4690 
Q 3069 4631 3425 4513 
z
" transform="scale(0.015625)"/>
      </defs>
      <use xlink:href="#DejaVuSans-53"/>
      <use xlink:href="#DejaVuSans-69" x="63.476562"/>
      <use xlink:href="#DejaVuSans-20" x="91.259766"/>
      <use xlink:href="#DejaVuSans-49" x="123.046875"/>
      <use xlink:href="#DejaVuSans-49" x="152.539062"/>
     </g>
    </g>
    <g id="line2d_33">
     <path d="M 685.884844 59.463281 
L 700.884844 59.463281 
L 700.884844 59.463281 
L 715.884844 59.463281 
L 715.884844 59.463281 
" style="fill: none; stroke: #0080ff; stroke-opacity: 0.75; stroke-width: 2.5; stroke-linecap: square"/>
    </g>
    <g id="text_18">
     <!-- Si III -->
     <g transform="translate(727.884844 64.713281) scale(0.15 -0.15)">
      <use xlink:href="#DejaVuSans-53"/>
      <use xlink:href="#DejaVuSans-69" x="63.476562"/>
      <use xlink:href="#DejaVuSans-20" x="91.259766"/>
      <use xlink:href="#DejaVuSans-49" x="123.046875"/>
      <use xlink:href="#DejaVuSans-49" x="152.539062"/>
      <use xlink:href="#DejaVuSans-49" x="182.03125"/>
     </g>
    </g>
    <g id="line2d_34">
     <path d="M 685.884844 81.480469 
L 700.884844 81.480469 
L 700.884844 81.480469 
L 715.884844 81.480469 
L 715.884844 81.480469 
" style="fill: none; stroke: #7bff7b; stroke-opacity: 0.75; stroke-width: 2.5; stroke-linecap: square"/>
    </g>
    <g id="text_19">
     <!-- Mg II -->
     <g transform="translate(727.884844 86.730469) scale(0.15 -0.15)">
      <defs>
       <path id="DejaVuSans-4d" d="M 628 4666 
L 1569 4666 
L 2759 1491 
L 3956 4666 
L 4897 4666 
L 4897 0 
L 4281 0 
L 4281 4097 
L 3078 897 
L 2444 897 
L 1241 4097 
L 1241 0 
L 628 0 
L 628 4666 
z
" transform="scale(0.015625)"/>
       <path id="DejaVuSans-67" d="M 2906 1791 
Q 2906 2416 2648 2759 
Q 2391 3103 1925 3103 
Q 1463 3103 1205 2759 
Q 947 2416 947 1791 
Q 947 1169 1205 825 
Q 1463 481 1925 481 
Q 2391 481 2648 825 
Q 2906 1169 2906 1791 
z
M 3481 434 
Q 3481 -459 3084 -895 
Q 2688 -1331 1869 -1331 
Q 1566 -1331 1297 -1286 
Q 1028 -1241 775 -1147 
L 775 -588 
Q 1028 -725 1275 -790 
Q 1522 -856 1778 -856 
Q 2344 -856 2625 -561 
Q 2906 -266 2906 331 
L 2906 616 
Q 2728 306 2450 153 
Q 2172 0 1784 0 
Q 1141 0 747 490 
Q 353 981 353 1791 
Q 353 2603 747 3093 
Q 1141 3584 1784 3584 
Q 2172 3584 2450 3431 
Q 2728 3278 2906 2969 
L 2906 3500 
L 3481 3500 
L 3481 434 
z
" transform="scale(0.015625)"/>
      </defs>
      <use xlink:href="#DejaVuSans-4d"/>
      <use xlink:href="#DejaVuSans-67" x="86.279297"/>
      <use xlink:href="#DejaVuSans-20" x="149.755859"/>
      <use xlink:href="#DejaVuSans-49" x="181.542969"/>
      <use xlink:href="#DejaVuSans-49" x="211.035156"/>
     </g>
    </g>
    <g id="line2d_35">
     <path d="M 685.884844 103.497656 
L 700.884844 103.497656 
L 700.884844 103.497656 
L 715.884844 103.497656 
L 715.884844 103.497656 
" style="fill: none; stroke: #ff9700; stroke-opacity: 0.75; stroke-width: 2.5; stroke-linecap: square"/>
    </g>
    <g id="text_20">
     <!-- O -->
     <g transform="translate(727.884844 108.747656) scale(0.15 -0.15)">
      <defs>
       <path id="DejaVuSans-4f" d="M 2522 4238 
Q 1834 4238 1429 3725 
Q 1025 3213 1025 2328 
Q 1025 1447 1429 934 
Q 1834 422 2522 422 
Q 3209 422 3611 934 
Q 4013 1447 4013 2328 
Q 4013 3213 3611 3725 
Q 3209 4238 2522 4238 
z
M 2522 4750 
Q 3503 4750 4090 4092 
Q 4678 3434 4678 2328 
Q 4678 1225 4090 567 
Q 3503 -91 2522 -91 
Q 1538 -91 948 565 
Q 359 1222 359 2328 
Q 359 3434 948 4092 
Q 1538 4750 2522 4750 
z
" transform="scale(0.015625)"/>
      </defs>
      <use xlink:href="#DejaVuSans-4f"/>
     </g>
    </g>
    <g id="line2d_36">
     <path d="M 685.884844 125.514844 
L 700.884844 125.514844 
L 700.884844 125.514844 
L 715.884844 125.514844 
L 715.884844 125.514844 
" style="fill: none; stroke: #800000; stroke-opacity: 0.75; stroke-width: 2.5; stroke-linecap: square"/>
    </g>
    <g id="text_21">
     <!-- Ca -->
     <g transform="translate(727.884844 130.764844) scale(0.15 -0.15)">
      <use xlink:href="#DejaVuSans-43"/>
      <use xlink:href="#DejaVuSans-61" x="69.824219"/>
     </g>
    </g>
   </g>
  </g>
 </g>
 <defs>
  <clipPath id="pc91d6a9be3">
   <rect x="40.656875" y="17.798437" width="736.81" height="289.12"/>
  </clipPath>
 </defs>
</svg>
