<?xml version="1.0" encoding="utf-8" standalone="no"?>
<!DOCTYPE svg PUBLIC "-//W3C//DTD SVG 1.1//EN"
  "http://www.w3.org/Graphics/SVG/1.1/DTD/svg11.dtd">
<svg xmlns:xlink="http://www.w3.org/1999/xlink" width="784.988906pt" height="352.217187pt" viewBox="0 0 784.988906 352.217187" xmlns="http://www.w3.org/2000/svg" version="1.1">
 <metadata>
  <rdf:RDF xmlns:dc="http://purl.org/dc/elements/1.1/" xmlns:cc="http://creativecommons.org/ns#" xmlns:rdf="http://www.w3.org/1999/02/22-rdf-syntax-ns#">
   <cc:Work>
    <dc:type rdf:resource="http://purl.org/dc/dcmitype/StillImage"/>
    <dc:date>2024-07-08T21:48:29.879069</dc:date>
    <dc:format>image/svg+xml</dc:format>
    <dc:creator>
     <cc:Agent>
      <dc:title>Matplotlib v3.8.4, https://matplotlib.org/</dc:title>
     </cc:Agent>
    </dc:creator>
   </cc:Work>
  </rdf:RDF>
 </metadata>
 <defs>
  <style type="text/css">*{stroke-linejoin: round; stroke-linecap: butt}</style>
 </defs>
 <g id="figure_1">
  <g id="patch_1">
   <path d="M -0 352.217187 
L 784.988906 352.217187 
L 784.988906 0 
L -0 0 
z
" style="fill: #ffffff"/>
  </g>
  <g id="axes_1">
   <g id="patch_2">
    <path d="M 40.656875 306.918437 
L 684.556875 306.918437 
L 684.556875 17.798437 
L 40.656875 17.798437 
z
" style="fill: #ffffff"/>
   </g>
   <g id="matplotlib.axis_1">
    <g id="xtick_1">
     <g id="line2d_1">
      <path d="M 134.965461 306.918437 
L 134.965461 17.798437 
" clip-path="url(#pb0ac201239)" style="fill: none; stroke-dasharray: 1.85,0.8; stroke-dashoffset: 0; stroke: #b0b0b0; stroke-width: 0.5"/>
     </g>
     <g id="line2d_2">
      <defs>
       <path id="m15951bae19" d="M 0 0 
L 0 3.5 
" style="stroke: #000000; stroke-width: 0.8"/>
      </defs>
      <g>
       <use xlink:href="#m15951bae19" x="134.965461" y="306.918437" style="stroke: #000000; stroke-width: 0.8"/>
      </g>
     </g>
     <g id="text_1">
      <!-- 12000 -->
      <g transform="translate(112.696711 324.55625) scale(0.14 -0.14)">
       <defs>
        <path id="DejaVuSans-31" d="M 794 531 
L 1825 531 
L 1825 4091 
L 703 3866 
L 703 4441 
L 1819 4666 
L 2450 4666 
L 2450 531 
L 3481 531 
L 3481 0 
L 794 0 
L 794 531 
z
" transform="scale(0.015625)"/>
        <path id="DejaVuSans-32" d="M 1228 531 
L 3431 531 
L 3431 0 
L 469 0 
L 469 531 
Q 828 903 1448 1529 
Q 2069 2156 2228 2338 
Q 2531 2678 2651 2914 
Q 2772 3150 2772 3378 
Q 2772 3750 2511 3984 
Q 2250 4219 1831 4219 
Q 1534 4219 1204 4116 
Q 875 4013 500 3803 
L 500 4441 
Q 881 4594 1212 4672 
Q 1544 4750 1819 4750 
Q 2544 4750 2975 4387 
Q 3406 4025 3406 3419 
Q 3406 3131 3298 2873 
Q 3191 2616 2906 2266 
Q 2828 2175 2409 1742 
Q 1991 1309 1228 531 
z
" transform="scale(0.015625)"/>
        <path id="DejaVuSans-30" d="M 2034 4250 
Q 1547 4250 1301 3770 
Q 1056 3291 1056 2328 
Q 1056 1369 1301 889 
Q 1547 409 2034 409 
Q 2525 409 2770 889 
Q 3016 1369 3016 2328 
Q 3016 3291 2770 3770 
Q 2525 4250 2034 4250 
z
M 2034 4750 
Q 2819 4750 3233 4129 
Q 3647 3509 3647 2328 
Q 3647 1150 3233 529 
Q 2819 -91 2034 -91 
Q 1250 -91 836 529 
Q 422 1150 422 2328 
Q 422 3509 836 4129 
Q 1250 4750 2034 4750 
z
" transform="scale(0.015625)"/>
       </defs>
       <use xlink:href="#DejaVuSans-31"/>
       <use xlink:href="#DejaVuSans-32" x="63.623047"/>
       <use xlink:href="#DejaVuSans-30" x="127.246094"/>
       <use xlink:href="#DejaVuSans-30" x="190.869141"/>
       <use xlink:href="#DejaVuSans-30" x="254.492188"/>
      </g>
     </g>
    </g>
    <g id="xtick_2">
     <g id="line2d_3">
      <path d="M 265.046269 306.918437 
L 265.046269 17.798437 
" clip-path="url(#pb0ac201239)" style="fill: none; stroke-dasharray: 1.85,0.8; stroke-dashoffset: 0; stroke: #b0b0b0; stroke-width: 0.5"/>
     </g>
     <g id="line2d_4">
      <g>
       <use xlink:href="#m15951bae19" x="265.046269" y="306.918437" style="stroke: #000000; stroke-width: 0.8"/>
      </g>
     </g>
     <g id="text_2">
      <!-- 14000 -->
      <g transform="translate(242.777519 324.55625) scale(0.14 -0.14)">
       <defs>
        <path id="DejaVuSans-34" d="M 2419 4116 
L 825 1625 
L 2419 1625 
L 2419 4116 
z
M 2253 4666 
L 3047 4666 
L 3047 1625 
L 3713 1625 
L 3713 1100 
L 3047 1100 
L 3047 0 
L 2419 0 
L 2419 1100 
L 313 1100 
L 313 1709 
L 2253 4666 
z
" transform="scale(0.015625)"/>
       </defs>
       <use xlink:href="#DejaVuSans-31"/>
       <use xlink:href="#DejaVuSans-34" x="63.623047"/>
       <use xlink:href="#DejaVuSans-30" x="127.246094"/>
       <use xlink:href="#DejaVuSans-30" x="190.869141"/>
       <use xlink:href="#DejaVuSans-30" x="254.492188"/>
      </g>
     </g>
    </g>
    <g id="xtick_3">
     <g id="line2d_5">
      <path d="M 395.127077 306.918437 
L 395.127077 17.798437 
" clip-path="url(#pb0ac201239)" style="fill: none; stroke-dasharray: 1.85,0.8; stroke-dashoffset: 0; stroke: #b0b0b0; stroke-width: 0.5"/>
     </g>
     <g id="line2d_6">
      <g>
       <use xlink:href="#m15951bae19" x="395.127077" y="306.918437" style="stroke: #000000; stroke-width: 0.8"/>
      </g>
     </g>
     <g id="text_3">
      <!-- 16000 -->
      <g transform="translate(372.858327 324.55625) scale(0.14 -0.14)">
       <defs>
        <path id="DejaVuSans-36" d="M 2113 2584 
Q 1688 2584 1439 2293 
Q 1191 2003 1191 1497 
Q 1191 994 1439 701 
Q 1688 409 2113 409 
Q 2538 409 2786 701 
Q 3034 994 3034 1497 
Q 3034 2003 2786 2293 
Q 2538 2584 2113 2584 
z
M 3366 4563 
L 3366 3988 
Q 3128 4100 2886 4159 
Q 2644 4219 2406 4219 
Q 1781 4219 1451 3797 
Q 1122 3375 1075 2522 
Q 1259 2794 1537 2939 
Q 1816 3084 2150 3084 
Q 2853 3084 3261 2657 
Q 3669 2231 3669 1497 
Q 3669 778 3244 343 
Q 2819 -91 2113 -91 
Q 1303 -91 875 529 
Q 447 1150 447 2328 
Q 447 3434 972 4092 
Q 1497 4750 2381 4750 
Q 2619 4750 2861 4703 
Q 3103 4656 3366 4563 
z
" transform="scale(0.015625)"/>
       </defs>
       <use xlink:href="#DejaVuSans-31"/>
       <use xlink:href="#DejaVuSans-36" x="63.623047"/>
       <use xlink:href="#DejaVuSans-30" x="127.246094"/>
       <use xlink:href="#DejaVuSans-30" x="190.869141"/>
       <use xlink:href="#DejaVuSans-30" x="254.492188"/>
      </g>
     </g>
    </g>
    <g id="xtick_4">
     <g id="line2d_7">
      <path d="M 525.207885 306.918437 
L 525.207885 17.798437 
" clip-path="url(#pb0ac201239)" style="fill: none; stroke-dasharray: 1.85,0.8; stroke-dashoffset: 0; stroke: #b0b0b0; stroke-width: 0.5"/>
     </g>
     <g id="line2d_8">
      <g>
       <use xlink:href="#m15951bae19" x="525.207885" y="306.918437" style="stroke: #000000; stroke-width: 0.8"/>
      </g>
     </g>
     <g id="text_4">
      <!-- 18000 -->
      <g transform="translate(502.939135 324.55625) scale(0.14 -0.14)">
       <defs>
        <path id="DejaVuSans-38" d="M 2034 2216 
Q 1584 2216 1326 1975 
Q 1069 1734 1069 1313 
Q 1069 891 1326 650 
Q 1584 409 2034 409 
Q 2484 409 2743 651 
Q 3003 894 3003 1313 
Q 3003 1734 2745 1975 
Q 2488 2216 2034 2216 
z
M 1403 2484 
Q 997 2584 770 2862 
Q 544 3141 544 3541 
Q 544 4100 942 4425 
Q 1341 4750 2034 4750 
Q 2731 4750 3128 4425 
Q 3525 4100 3525 3541 
Q 3525 3141 3298 2862 
Q 3072 2584 2669 2484 
Q 3125 2378 3379 2068 
Q 3634 1759 3634 1313 
Q 3634 634 3220 271 
Q 2806 -91 2034 -91 
Q 1263 -91 848 271 
Q 434 634 434 1313 
Q 434 1759 690 2068 
Q 947 2378 1403 2484 
z
M 1172 3481 
Q 1172 3119 1398 2916 
Q 1625 2713 2034 2713 
Q 2441 2713 2670 2916 
Q 2900 3119 2900 3481 
Q 2900 3844 2670 4047 
Q 2441 4250 2034 4250 
Q 1625 4250 1398 4047 
Q 1172 3844 1172 3481 
z
" transform="scale(0.015625)"/>
       </defs>
       <use xlink:href="#DejaVuSans-31"/>
       <use xlink:href="#DejaVuSans-38" x="63.623047"/>
       <use xlink:href="#DejaVuSans-30" x="127.246094"/>
       <use xlink:href="#DejaVuSans-30" x="190.869141"/>
       <use xlink:href="#DejaVuSans-30" x="254.492188"/>
      </g>
     </g>
    </g>
    <g id="xtick_5">
     <g id="line2d_9">
      <path d="M 655.288693 306.918437 
L 655.288693 17.798437 
" clip-path="url(#pb0ac201239)" style="fill: none; stroke-dasharray: 1.85,0.8; stroke-dashoffset: 0; stroke: #b0b0b0; stroke-width: 0.5"/>
     </g>
     <g id="line2d_10">
      <g>
       <use xlink:href="#m15951bae19" x="655.288693" y="306.918437" style="stroke: #000000; stroke-width: 0.8"/>
      </g>
     </g>
     <g id="text_5">
      <!-- 20000 -->
      <g transform="translate(633.019943 324.55625) scale(0.14 -0.14)">
       <use xlink:href="#DejaVuSans-32"/>
       <use xlink:href="#DejaVuSans-30" x="63.623047"/>
       <use xlink:href="#DejaVuSans-30" x="127.246094"/>
       <use xlink:href="#DejaVuSans-30" x="190.869141"/>
       <use xlink:href="#DejaVuSans-30" x="254.492188"/>
      </g>
     </g>
    </g>
    <g id="text_6">
     <!-- Last Interaction Velocity (km/s) -->
     <g transform="translate(253.574219 342.105625) scale(0.14 -0.14)">
      <defs>
       <path id="DejaVuSans-4c" d="M 628 4666 
L 1259 4666 
L 1259 531 
L 3531 531 
L 3531 0 
L 628 0 
L 628 4666 
z
" transform="scale(0.015625)"/>
       <path id="DejaVuSans-61" d="M 2194 1759 
Q 1497 1759 1228 1600 
Q 959 1441 959 1056 
Q 959 750 1161 570 
Q 1363 391 1709 391 
Q 2188 391 2477 730 
Q 2766 1069 2766 1631 
L 2766 1759 
L 2194 1759 
z
M 3341 1997 
L 3341 0 
L 2766 0 
L 2766 531 
Q 2569 213 2275 61 
Q 1981 -91 1556 -91 
Q 1019 -91 701 211 
Q 384 513 384 1019 
Q 384 1609 779 1909 
Q 1175 2209 1959 2209 
L 2766 2209 
L 2766 2266 
Q 2766 2663 2505 2880 
Q 2244 3097 1772 3097 
Q 1472 3097 1187 3025 
Q 903 2953 641 2809 
L 641 3341 
Q 956 3463 1253 3523 
Q 1550 3584 1831 3584 
Q 2591 3584 2966 3190 
Q 3341 2797 3341 1997 
z
" transform="scale(0.015625)"/>
       <path id="DejaVuSans-73" d="M 2834 3397 
L 2834 2853 
Q 2591 2978 2328 3040 
Q 2066 3103 1784 3103 
Q 1356 3103 1142 2972 
Q 928 2841 928 2578 
Q 928 2378 1081 2264 
Q 1234 2150 1697 2047 
L 1894 2003 
Q 2506 1872 2764 1633 
Q 3022 1394 3022 966 
Q 3022 478 2636 193 
Q 2250 -91 1575 -91 
Q 1294 -91 989 -36 
Q 684 19 347 128 
L 347 722 
Q 666 556 975 473 
Q 1284 391 1588 391 
Q 1994 391 2212 530 
Q 2431 669 2431 922 
Q 2431 1156 2273 1281 
Q 2116 1406 1581 1522 
L 1381 1569 
Q 847 1681 609 1914 
Q 372 2147 372 2553 
Q 372 3047 722 3315 
Q 1072 3584 1716 3584 
Q 2034 3584 2315 3537 
Q 2597 3491 2834 3397 
z
" transform="scale(0.015625)"/>
       <path id="DejaVuSans-74" d="M 1172 4494 
L 1172 3500 
L 2356 3500 
L 2356 3053 
L 1172 3053 
L 1172 1153 
Q 1172 725 1289 603 
Q 1406 481 1766 481 
L 2356 481 
L 2356 0 
L 1766 0 
Q 1100 0 847 248 
Q 594 497 594 1153 
L 594 3053 
L 172 3053 
L 172 3500 
L 594 3500 
L 594 4494 
L 1172 4494 
z
" transform="scale(0.015625)"/>
       <path id="DejaVuSans-20" transform="scale(0.015625)"/>
       <path id="DejaVuSans-49" d="M 628 4666 
L 1259 4666 
L 1259 0 
L 628 0 
L 628 4666 
z
" transform="scale(0.015625)"/>
       <path id="DejaVuSans-6e" d="M 3513 2113 
L 3513 0 
L 2938 0 
L 2938 2094 
Q 2938 2591 2744 2837 
Q 2550 3084 2163 3084 
Q 1697 3084 1428 2787 
Q 1159 2491 1159 1978 
L 1159 0 
L 581 0 
L 581 3500 
L 1159 3500 
L 1159 2956 
Q 1366 3272 1645 3428 
Q 1925 3584 2291 3584 
Q 2894 3584 3203 3211 
Q 3513 2838 3513 2113 
z
" transform="scale(0.015625)"/>
       <path id="DejaVuSans-65" d="M 3597 1894 
L 3597 1613 
L 953 1613 
Q 991 1019 1311 708 
Q 1631 397 2203 397 
Q 2534 397 2845 478 
Q 3156 559 3463 722 
L 3463 178 
Q 3153 47 2828 -22 
Q 2503 -91 2169 -91 
Q 1331 -91 842 396 
Q 353 884 353 1716 
Q 353 2575 817 3079 
Q 1281 3584 2069 3584 
Q 2775 3584 3186 3129 
Q 3597 2675 3597 1894 
z
M 3022 2063 
Q 3016 2534 2758 2815 
Q 2500 3097 2075 3097 
Q 1594 3097 1305 2825 
Q 1016 2553 972 2059 
L 3022 2063 
z
" transform="scale(0.015625)"/>
       <path id="DejaVuSans-72" d="M 2631 2963 
Q 2534 3019 2420 3045 
Q 2306 3072 2169 3072 
Q 1681 3072 1420 2755 
Q 1159 2438 1159 1844 
L 1159 0 
L 581 0 
L 581 3500 
L 1159 3500 
L 1159 2956 
Q 1341 3275 1631 3429 
Q 1922 3584 2338 3584 
Q 2397 3584 2469 3576 
Q 2541 3569 2628 3553 
L 2631 2963 
z
" transform="scale(0.015625)"/>
       <path id="DejaVuSans-63" d="M 3122 3366 
L 3122 2828 
Q 2878 2963 2633 3030 
Q 2388 3097 2138 3097 
Q 1578 3097 1268 2742 
Q 959 2388 959 1747 
Q 959 1106 1268 751 
Q 1578 397 2138 397 
Q 2388 397 2633 464 
Q 2878 531 3122 666 
L 3122 134 
Q 2881 22 2623 -34 
Q 2366 -91 2075 -91 
Q 1284 -91 818 406 
Q 353 903 353 1747 
Q 353 2603 823 3093 
Q 1294 3584 2113 3584 
Q 2378 3584 2631 3529 
Q 2884 3475 3122 3366 
z
" transform="scale(0.015625)"/>
       <path id="DejaVuSans-69" d="M 603 3500 
L 1178 3500 
L 1178 0 
L 603 0 
L 603 3500 
z
M 603 4863 
L 1178 4863 
L 1178 4134 
L 603 4134 
L 603 4863 
z
" transform="scale(0.015625)"/>
       <path id="DejaVuSans-6f" d="M 1959 3097 
Q 1497 3097 1228 2736 
Q 959 2375 959 1747 
Q 959 1119 1226 758 
Q 1494 397 1959 397 
Q 2419 397 2687 759 
Q 2956 1122 2956 1747 
Q 2956 2369 2687 2733 
Q 2419 3097 1959 3097 
z
M 1959 3584 
Q 2709 3584 3137 3096 
Q 3566 2609 3566 1747 
Q 3566 888 3137 398 
Q 2709 -91 1959 -91 
Q 1206 -91 779 398 
Q 353 888 353 1747 
Q 353 2609 779 3096 
Q 1206 3584 1959 3584 
z
" transform="scale(0.015625)"/>
       <path id="DejaVuSans-56" d="M 1831 0 
L 50 4666 
L 709 4666 
L 2188 738 
L 3669 4666 
L 4325 4666 
L 2547 0 
L 1831 0 
z
" transform="scale(0.015625)"/>
       <path id="DejaVuSans-6c" d="M 603 4863 
L 1178 4863 
L 1178 0 
L 603 0 
L 603 4863 
z
" transform="scale(0.015625)"/>
       <path id="DejaVuSans-79" d="M 2059 -325 
Q 1816 -950 1584 -1140 
Q 1353 -1331 966 -1331 
L 506 -1331 
L 506 -850 
L 844 -850 
Q 1081 -850 1212 -737 
Q 1344 -625 1503 -206 
L 1606 56 
L 191 3500 
L 800 3500 
L 1894 763 
L 2988 3500 
L 3597 3500 
L 2059 -325 
z
" transform="scale(0.015625)"/>
       <path id="DejaVuSans-28" d="M 1984 4856 
Q 1566 4138 1362 3434 
Q 1159 2731 1159 2009 
Q 1159 1288 1364 580 
Q 1569 -128 1984 -844 
L 1484 -844 
Q 1016 -109 783 600 
Q 550 1309 550 2009 
Q 550 2706 781 3412 
Q 1013 4119 1484 4856 
L 1984 4856 
z
" transform="scale(0.015625)"/>
       <path id="DejaVuSans-6b" d="M 581 4863 
L 1159 4863 
L 1159 1991 
L 2875 3500 
L 3609 3500 
L 1753 1863 
L 3688 0 
L 2938 0 
L 1159 1709 
L 1159 0 
L 581 0 
L 581 4863 
z
" transform="scale(0.015625)"/>
       <path id="DejaVuSans-6d" d="M 3328 2828 
Q 3544 3216 3844 3400 
Q 4144 3584 4550 3584 
Q 5097 3584 5394 3201 
Q 5691 2819 5691 2113 
L 5691 0 
L 5113 0 
L 5113 2094 
Q 5113 2597 4934 2840 
Q 4756 3084 4391 3084 
Q 3944 3084 3684 2787 
Q 3425 2491 3425 1978 
L 3425 0 
L 2847 0 
L 2847 2094 
Q 2847 2600 2669 2842 
Q 2491 3084 2119 3084 
Q 1678 3084 1418 2786 
Q 1159 2488 1159 1978 
L 1159 0 
L 581 0 
L 581 3500 
L 1159 3500 
L 1159 2956 
Q 1356 3278 1631 3431 
Q 1906 3584 2284 3584 
Q 2666 3584 2933 3390 
Q 3200 3197 3328 2828 
z
" transform="scale(0.015625)"/>
       <path id="DejaVuSans-2f" d="M 1625 4666 
L 2156 4666 
L 531 -594 
L 0 -594 
L 1625 4666 
z
" transform="scale(0.015625)"/>
       <path id="DejaVuSans-29" d="M 513 4856 
L 1013 4856 
Q 1481 4119 1714 3412 
Q 1947 2706 1947 2009 
Q 1947 1309 1714 600 
Q 1481 -109 1013 -844 
L 513 -844 
Q 928 -128 1133 580 
Q 1338 1288 1338 2009 
Q 1338 2731 1133 3434 
Q 928 4138 513 4856 
z
" transform="scale(0.015625)"/>
      </defs>
      <use xlink:href="#DejaVuSans-4c"/>
      <use xlink:href="#DejaVuSans-61" x="55.712891"/>
      <use xlink:href="#DejaVuSans-73" x="116.992188"/>
      <use xlink:href="#DejaVuSans-74" x="169.091797"/>
      <use xlink:href="#DejaVuSans-20" x="208.300781"/>
      <use xlink:href="#DejaVuSans-49" x="240.087891"/>
      <use xlink:href="#DejaVuSans-6e" x="269.580078"/>
      <use xlink:href="#DejaVuSans-74" x="332.958984"/>
      <use xlink:href="#DejaVuSans-65" x="372.167969"/>
      <use xlink:href="#DejaVuSans-72" x="433.691406"/>
      <use xlink:href="#DejaVuSans-61" x="474.804688"/>
      <use xlink:href="#DejaVuSans-63" x="536.083984"/>
      <use xlink:href="#DejaVuSans-74" x="591.064453"/>
      <use xlink:href="#DejaVuSans-69" x="630.273438"/>
      <use xlink:href="#DejaVuSans-6f" x="658.056641"/>
      <use xlink:href="#DejaVuSans-6e" x="719.238281"/>
      <use xlink:href="#DejaVuSans-20" x="782.617188"/>
      <use xlink:href="#DejaVuSans-56" x="814.404297"/>
      <use xlink:href="#DejaVuSans-65" x="875.0625"/>
      <use xlink:href="#DejaVuSans-6c" x="936.585938"/>
      <use xlink:href="#DejaVuSans-6f" x="964.369141"/>
      <use xlink:href="#DejaVuSans-63" x="1025.550781"/>
      <use xlink:href="#DejaVuSans-69" x="1080.53125"/>
      <use xlink:href="#DejaVuSans-74" x="1108.314453"/>
      <use xlink:href="#DejaVuSans-79" x="1147.523438"/>
      <use xlink:href="#DejaVuSans-20" x="1206.703125"/>
      <use xlink:href="#DejaVuSans-28" x="1238.490234"/>
      <use xlink:href="#DejaVuSans-6b" x="1277.503906"/>
      <use xlink:href="#DejaVuSans-6d" x="1335.414062"/>
      <use xlink:href="#DejaVuSans-2f" x="1432.826172"/>
      <use xlink:href="#DejaVuSans-73" x="1466.517578"/>
      <use xlink:href="#DejaVuSans-29" x="1518.617188"/>
     </g>
    </g>
   </g>
   <g id="matplotlib.axis_2">
    <g id="ytick_1">
     <g id="line2d_11">
      <path d="M 40.656875 293.776619 
L 684.556875 293.776619 
" clip-path="url(#pb0ac201239)" style="fill: none; stroke-dasharray: 1.85,0.8; stroke-dashoffset: 0; stroke: #b0b0b0; stroke-width: 0.5"/>
     </g>
     <g id="line2d_12">
      <defs>
       <path id="m8f3b8167dc" d="M 0 0 
L -3.5 0 
" style="stroke: #000000; stroke-width: 0.8"/>
      </defs>
      <g>
       <use xlink:href="#m8f3b8167dc" x="40.656875" y="293.776619" style="stroke: #000000; stroke-width: 0.8"/>
      </g>
     </g>
     <g id="text_7">
      <!-- 0 -->
      <g transform="translate(24.749375 299.095526) scale(0.14 -0.14)">
       <use xlink:href="#DejaVuSans-30"/>
      </g>
     </g>
    </g>
    <g id="ytick_2">
     <g id="line2d_13">
      <path d="M 40.656875 235.562585 
L 684.556875 235.562585 
" clip-path="url(#pb0ac201239)" style="fill: none; stroke-dasharray: 1.85,0.8; stroke-dashoffset: 0; stroke: #b0b0b0; stroke-width: 0.5"/>
     </g>
     <g id="line2d_14">
      <g>
       <use xlink:href="#m8f3b8167dc" x="40.656875" y="235.562585" style="stroke: #000000; stroke-width: 0.8"/>
      </g>
     </g>
     <g id="text_8">
      <!-- 2 -->
      <g transform="translate(24.749375 240.881492) scale(0.14 -0.14)">
       <use xlink:href="#DejaVuSans-32"/>
      </g>
     </g>
    </g>
    <g id="ytick_3">
     <g id="line2d_15">
      <path d="M 40.656875 177.348551 
L 684.556875 177.348551 
" clip-path="url(#pb0ac201239)" style="fill: none; stroke-dasharray: 1.85,0.8; stroke-dashoffset: 0; stroke: #b0b0b0; stroke-width: 0.5"/>
     </g>
     <g id="line2d_16">
      <g>
       <use xlink:href="#m8f3b8167dc" x="40.656875" y="177.348551" style="stroke: #000000; stroke-width: 0.8"/>
      </g>
     </g>
     <g id="text_9">
      <!-- 4 -->
      <g transform="translate(24.749375 182.667458) scale(0.14 -0.14)">
       <use xlink:href="#DejaVuSans-34"/>
      </g>
     </g>
    </g>
    <g id="ytick_4">
     <g id="line2d_17">
      <path d="M 40.656875 119.134517 
L 684.556875 119.134517 
" clip-path="url(#pb0ac201239)" style="fill: none; stroke-dasharray: 1.85,0.8; stroke-dashoffset: 0; stroke: #b0b0b0; stroke-width: 0.5"/>
     </g>
     <g id="line2d_18">
      <g>
       <use xlink:href="#m8f3b8167dc" x="40.656875" y="119.134517" style="stroke: #000000; stroke-width: 0.8"/>
      </g>
     </g>
     <g id="text_10">
      <!-- 6 -->
      <g transform="translate(24.749375 124.453423) scale(0.14 -0.14)">
       <use xlink:href="#DejaVuSans-36"/>
      </g>
     </g>
    </g>
    <g id="ytick_5">
     <g id="line2d_19">
      <path d="M 40.656875 60.920483 
L 684.556875 60.920483 
" clip-path="url(#pb0ac201239)" style="fill: none; stroke-dasharray: 1.85,0.8; stroke-dashoffset: 0; stroke: #b0b0b0; stroke-width: 0.5"/>
     </g>
     <g id="line2d_20">
      <g>
       <use xlink:href="#m8f3b8167dc" x="40.656875" y="60.920483" style="stroke: #000000; stroke-width: 0.8"/>
      </g>
     </g>
     <g id="text_11">
      <!-- 8 -->
      <g transform="translate(24.749375 66.239389) scale(0.14 -0.14)">
       <use xlink:href="#DejaVuSans-38"/>
      </g>
     </g>
    </g>
    <g id="text_12">
     <!-- Packet Count -->
     <g transform="translate(17.837813 208.266406) rotate(-90) scale(0.14 -0.14)">
      <defs>
       <path id="DejaVuSans-50" d="M 1259 4147 
L 1259 2394 
L 2053 2394 
Q 2494 2394 2734 2622 
Q 2975 2850 2975 3272 
Q 2975 3691 2734 3919 
Q 2494 4147 2053 4147 
L 1259 4147 
z
M 628 4666 
L 2053 4666 
Q 2838 4666 3239 4311 
Q 3641 3956 3641 3272 
Q 3641 2581 3239 2228 
Q 2838 1875 2053 1875 
L 1259 1875 
L 1259 0 
L 628 0 
L 628 4666 
z
" transform="scale(0.015625)"/>
       <path id="DejaVuSans-43" d="M 4122 4306 
L 4122 3641 
Q 3803 3938 3442 4084 
Q 3081 4231 2675 4231 
Q 1875 4231 1450 3742 
Q 1025 3253 1025 2328 
Q 1025 1406 1450 917 
Q 1875 428 2675 428 
Q 3081 428 3442 575 
Q 3803 722 4122 1019 
L 4122 359 
Q 3791 134 3420 21 
Q 3050 -91 2638 -91 
Q 1578 -91 968 557 
Q 359 1206 359 2328 
Q 359 3453 968 4101 
Q 1578 4750 2638 4750 
Q 3056 4750 3426 4639 
Q 3797 4528 4122 4306 
z
" transform="scale(0.015625)"/>
       <path id="DejaVuSans-75" d="M 544 1381 
L 544 3500 
L 1119 3500 
L 1119 1403 
Q 1119 906 1312 657 
Q 1506 409 1894 409 
Q 2359 409 2629 706 
Q 2900 1003 2900 1516 
L 2900 3500 
L 3475 3500 
L 3475 0 
L 2900 0 
L 2900 538 
Q 2691 219 2414 64 
Q 2138 -91 1772 -91 
Q 1169 -91 856 284 
Q 544 659 544 1381 
z
M 1991 3584 
L 1991 3584 
z
" transform="scale(0.015625)"/>
      </defs>
      <use xlink:href="#DejaVuSans-50"/>
      <use xlink:href="#DejaVuSans-61" x="55.802734"/>
      <use xlink:href="#DejaVuSans-63" x="117.082031"/>
      <use xlink:href="#DejaVuSans-6b" x="172.0625"/>
      <use xlink:href="#DejaVuSans-65" x="226.347656"/>
      <use xlink:href="#DejaVuSans-74" x="287.871094"/>
      <use xlink:href="#DejaVuSans-20" x="327.080078"/>
      <use xlink:href="#DejaVuSans-43" x="358.867188"/>
      <use xlink:href="#DejaVuSans-6f" x="428.691406"/>
      <use xlink:href="#DejaVuSans-75" x="489.873047"/>
      <use xlink:href="#DejaVuSans-6e" x="553.251953"/>
      <use xlink:href="#DejaVuSans-74" x="616.630859"/>
     </g>
    </g>
    <g id="text_13">
     <!-- 1e2 -->
     <g transform="translate(40.656875 14.798437) scale(0.1 -0.1)">
      <use xlink:href="#DejaVuSans-31"/>
      <use xlink:href="#DejaVuSans-65" x="63.623047"/>
      <use xlink:href="#DejaVuSans-32" x="125.146484"/>
     </g>
    </g>
   </g>
   <g id="line2d_21">
    <path d="M 69.925057 111.566693 
L 99.193239 111.566693 
L 99.193239 111.566693 
L 99.193239 111.566693 
L 99.193239 115.932745 
L 128.46142 115.932745 
L 128.46142 115.932745 
L 128.46142 115.932745 
L 128.46142 167.452165 
L 157.729602 167.452165 
L 157.729602 167.452165 
L 157.729602 167.452165 
L 157.729602 195.394902 
L 186.997784 195.394902 
L 186.997784 195.394902 
L 186.997784 195.394902 
L 186.997784 234.980445 
L 216.265966 234.980445 
L 216.265966 234.980445 
L 216.265966 234.980445 
L 216.265966 250.407164 
L 245.534148 250.407164 
L 245.534148 250.407164 
L 245.534148 250.407164 
L 245.534148 256.519638 
L 274.80233 256.519638 
L 274.80233 256.519638 
L 274.80233 256.519638 
L 274.80233 266.124953 
L 304.070511 266.124953 
L 304.070511 266.124953 
L 304.070511 266.124953 
L 304.070511 275.439199 
L 333.338693 275.439199 
L 333.338693 275.439199 
L 333.338693 275.439199 
L 333.338693 276.603479 
L 362.606875 276.603479 
L 362.606875 276.603479 
L 362.606875 276.603479 
L 362.606875 280.678462 
L 391.875057 280.678462 
L 391.875057 280.678462 
L 391.875057 280.678462 
L 391.875057 281.842742 
L 421.143239 281.842742 
L 421.143239 281.842742 
L 421.143239 281.842742 
L 421.143239 282.424883 
L 450.41142 282.424883 
L 450.41142 282.424883 
L 450.41142 282.424883 
L 450.41142 281.842742 
L 479.679602 281.842742 
L 479.679602 281.842742 
L 479.679602 281.842742 
L 479.679602 282.715953 
L 508.947784 282.715953 
L 508.947784 282.715953 
L 508.947784 282.715953 
L 508.947784 287.664146 
L 538.215966 287.664146 
L 538.215966 287.664146 
L 538.215966 287.664146 
L 538.215966 286.499865 
L 567.484148 286.499865 
L 567.484148 286.499865 
L 567.484148 286.499865 
L 567.484148 291.156988 
L 596.75233 291.156988 
L 596.75233 291.156988 
L 596.75233 291.156988 
L 596.75233 287.664146 
L 626.020511 287.664146 
L 626.020511 287.664146 
L 626.020511 287.664146 
L 626.020511 283.007023 
L 655.288693 283.007023 
L 655.288693 283.007023 
" clip-path="url(#pb0ac201239)" style="fill: none; stroke: #000080; stroke-opacity: 0.75; stroke-width: 2.5; stroke-linecap: square"/>
   </g>
   <g id="line2d_22">
    <path d="M 69.925057 153.189727 
L 99.193239 153.189727 
L 99.193239 153.189727 
L 99.193239 153.189727 
L 99.193239 130.486254 
L 128.46142 130.486254 
L 128.46142 130.486254 
L 128.46142 130.486254 
L 128.46142 114.768465 
L 157.729602 114.768465 
L 157.729602 114.768465 
L 157.729602 114.768465 
L 157.729602 98.177465 
L 186.997784 98.177465 
L 186.997784 98.177465 
L 186.997784 98.177465 
L 186.997784 147.950464 
L 216.265966 147.950464 
L 216.265966 147.950464 
L 216.265966 147.950464 
L 216.265966 136.889798 
L 245.534148 136.889798 
L 245.534148 136.889798 
L 245.534148 136.889798 
L 245.534148 152.898657 
L 274.80233 152.898657 
L 274.80233 152.898657 
L 274.80233 152.898657 
L 274.80233 157.55578 
L 304.070511 157.55578 
L 304.070511 157.55578 
L 304.070511 157.55578 
L 304.070511 174.72892 
L 333.338693 174.72892 
L 333.338693 174.72892 
L 333.338693 174.72892 
L 333.338693 192.4842 
L 362.606875 192.4842 
L 362.606875 192.4842 
L 362.606875 192.4842 
L 362.606875 220.426936 
L 391.875057 220.426936 
L 391.875057 220.426936 
L 391.875057 220.426936 
L 391.875057 213.441252 
L 421.143239 213.441252 
L 421.143239 213.441252 
L 421.143239 213.441252 
L 421.143239 222.464428 
L 450.41142 222.464428 
L 450.41142 222.464428 
L 450.41142 222.464428 
L 450.41142 235.562585 
L 479.679602 235.562585 
L 479.679602 235.562585 
L 479.679602 235.562585 
L 479.679602 244.29469 
L 508.947784 244.29469 
L 508.947784 244.29469 
L 508.947784 244.29469 
L 508.947784 252.735725 
L 538.215966 252.735725 
L 538.215966 252.735725 
L 538.215966 252.735725 
L 538.215966 264.087462 
L 567.484148 264.087462 
L 567.484148 264.087462 
L 567.484148 264.087462 
L 567.484148 260.88569 
L 596.75233 260.88569 
L 596.75233 260.88569 
L 596.75233 260.88569 
L 596.75233 267.289234 
L 626.020511 267.289234 
L 626.020511 267.289234 
L 626.020511 267.289234 
L 626.020511 264.378532 
L 655.288693 264.378532 
L 655.288693 264.378532 
" clip-path="url(#pb0ac201239)" style="fill: none; stroke: #0080ff; stroke-opacity: 0.75; stroke-width: 2.5; stroke-linecap: square"/>
   </g>
   <g id="line2d_23">
    <path d="M 69.925057 223.337638 
L 99.193239 223.337638 
L 99.193239 223.337638 
L 99.193239 223.337638 
L 99.193239 224.210849 
L 128.46142 224.210849 
L 128.46142 224.210849 
L 128.46142 224.210849 
L 128.46142 245.167901 
L 157.729602 245.167901 
L 157.729602 245.167901 
L 157.729602 245.167901 
L 157.729602 250.698234 
L 186.997784 250.698234 
L 186.997784 250.698234 
L 186.997784 250.698234 
L 186.997784 271.946357 
L 216.265966 271.946357 
L 216.265966 271.946357 
L 216.265966 271.946357 
L 216.265966 276.603479 
L 245.534148 276.603479 
L 245.534148 276.603479 
L 245.534148 276.603479 
L 245.534148 282.133813 
L 274.80233 282.133813 
L 274.80233 282.133813 
L 274.80233 282.133813 
L 274.80233 283.589163 
L 304.070511 283.589163 
L 304.070511 283.589163 
L 304.070511 283.589163 
L 304.070511 288.246286 
L 333.338693 288.246286 
L 333.338693 288.246286 
L 333.338693 288.246286 
L 333.338693 289.410567 
L 362.606875 289.410567 
L 362.606875 289.410567 
L 362.606875 289.410567 
L 362.606875 289.992707 
L 391.875057 289.992707 
L 391.875057 289.992707 
L 391.875057 289.992707 
L 391.875057 292.612339 
L 421.143239 292.612339 
L 421.143239 292.612339 
L 421.143239 292.612339 
L 421.143239 293.194479 
L 450.41142 293.194479 
L 450.41142 293.194479 
L 450.41142 293.194479 
L 450.41142 293.485549 
L 479.679602 293.485549 
L 479.679602 293.485549 
L 479.679602 293.485549 
L 479.679602 293.776619 
L 508.947784 293.776619 
L 508.947784 293.776619 
L 508.947784 293.776619 
L 508.947784 293.485549 
L 538.215966 293.485549 
L 538.215966 293.485549 
L 538.215966 293.485549 
L 538.215966 293.485549 
L 567.484148 293.485549 
L 567.484148 293.485549 
L 567.484148 293.485549 
L 567.484148 293.194479 
L 596.75233 293.194479 
L 596.75233 293.194479 
L 596.75233 293.194479 
L 596.75233 293.776619 
L 626.020511 293.776619 
L 626.020511 293.776619 
L 626.020511 293.776619 
L 626.020511 293.776619 
L 655.288693 293.776619 
L 655.288693 293.776619 
" clip-path="url(#pb0ac201239)" style="fill: none; stroke: #7bff7b; stroke-opacity: 0.75; stroke-width: 2.5; stroke-linecap: square"/>
   </g>
   <g id="line2d_24">
    <path d="M 69.925057 290.574847 
L 99.193239 290.574847 
L 99.193239 290.574847 
L 99.193239 290.574847 
L 99.193239 291.156988 
L 128.46142 291.156988 
L 128.46142 291.156988 
L 128.46142 291.156988 
L 128.46142 290.574847 
L 157.729602 290.574847 
L 157.729602 290.574847 
L 157.729602 290.574847 
L 157.729602 292.321268 
L 186.997784 292.321268 
L 186.997784 292.321268 
L 186.997784 292.321268 
L 186.997784 290.865918 
L 216.265966 290.865918 
L 216.265966 290.865918 
L 216.265966 290.865918 
L 216.265966 291.448058 
L 245.534148 291.448058 
L 245.534148 291.448058 
L 245.534148 291.448058 
L 245.534148 292.903409 
L 274.80233 292.903409 
L 274.80233 292.903409 
L 274.80233 292.903409 
L 274.80233 293.194479 
L 304.070511 293.194479 
L 304.070511 293.194479 
L 304.070511 293.194479 
L 304.070511 293.194479 
L 333.338693 293.194479 
L 333.338693 293.194479 
L 333.338693 293.194479 
L 333.338693 291.739128 
L 362.606875 291.739128 
L 362.606875 291.739128 
L 362.606875 291.739128 
L 362.606875 290.283777 
L 391.875057 290.283777 
L 391.875057 290.283777 
L 391.875057 290.283777 
L 391.875057 288.537356 
L 421.143239 288.537356 
L 421.143239 288.537356 
L 421.143239 288.537356 
L 421.143239 289.410567 
L 450.41142 289.410567 
L 450.41142 289.410567 
L 450.41142 289.410567 
L 450.41142 287.955216 
L 479.679602 287.955216 
L 479.679602 287.955216 
L 479.679602 287.955216 
L 479.679602 282.715953 
L 508.947784 282.715953 
L 508.947784 282.715953 
L 508.947784 282.715953 
L 508.947784 280.969532 
L 538.215966 280.969532 
L 538.215966 280.969532 
L 538.215966 280.969532 
L 538.215966 283.298093 
L 567.484148 283.298093 
L 567.484148 283.298093 
L 567.484148 283.298093 
L 567.484148 286.499865 
L 596.75233 286.499865 
L 596.75233 286.499865 
L 596.75233 286.499865 
L 596.75233 282.424883 
L 626.020511 282.424883 
L 626.020511 282.424883 
L 626.020511 282.424883 
L 626.020511 279.805251 
L 655.288693 279.805251 
L 655.288693 279.805251 
" clip-path="url(#pb0ac201239)" style="fill: none; stroke: #ff9700; stroke-opacity: 0.75; stroke-width: 2.5; stroke-linecap: square"/>
   </g>
   <g id="line2d_25">
    <path d="M 69.925057 30.940256 
L 99.193239 30.940256 
L 99.193239 30.940256 
L 99.193239 30.940256 
L 99.193239 115.059535 
L 128.46142 115.059535 
L 128.46142 115.059535 
L 128.46142 115.059535 
L 128.46142 177.057481 
L 157.729602 177.057481 
L 157.729602 177.057481 
L 157.729602 177.057481 
L 157.729602 201.507375 
L 186.997784 201.507375 
L 186.997784 201.507375 
L 186.997784 201.507375 
L 186.997784 243.71255 
L 216.265966 243.71255 
L 216.265966 243.71255 
L 216.265966 243.71255 
L 216.265966 259.139269 
L 245.534148 259.139269 
L 245.534148 259.139269 
L 245.534148 259.139269 
L 245.534148 268.453515 
L 274.80233 268.453515 
L 274.80233 268.453515 
L 274.80233 268.453515 
L 274.80233 271.655286 
L 304.070511 271.655286 
L 304.070511 271.655286 
L 304.070511 271.655286 
L 304.070511 276.894549 
L 333.338693 276.894549 
L 333.338693 276.894549 
L 333.338693 276.894549 
L 333.338693 280.969532 
L 362.606875 280.969532 
L 362.606875 280.969532 
L 362.606875 280.969532 
L 362.606875 286.790935 
L 391.875057 286.790935 
L 391.875057 286.790935 
L 391.875057 286.790935 
L 391.875057 286.790935 
L 421.143239 286.790935 
L 421.143239 286.790935 
L 421.143239 286.790935 
L 421.143239 286.208795 
L 450.41142 286.208795 
L 450.41142 286.208795 
L 450.41142 286.208795 
L 450.41142 286.499865 
L 479.679602 286.499865 
L 479.679602 286.499865 
L 479.679602 286.499865 
L 479.679602 287.082005 
L 508.947784 287.082005 
L 508.947784 287.082005 
L 508.947784 287.082005 
L 508.947784 288.537356 
L 538.215966 288.537356 
L 538.215966 288.537356 
L 538.215966 288.537356 
L 538.215966 286.208795 
L 567.484148 286.208795 
L 567.484148 286.208795 
L 567.484148 286.208795 
L 567.484148 287.664146 
L 596.75233 287.664146 
L 596.75233 287.664146 
L 596.75233 287.664146 
L 596.75233 287.955216 
L 626.020511 287.955216 
L 626.020511 287.955216 
L 626.020511 287.955216 
L 626.020511 285.917725 
L 655.288693 285.917725 
L 655.288693 285.917725 
" clip-path="url(#pb0ac201239)" style="fill: none; stroke: #800000; stroke-opacity: 0.75; stroke-width: 2.5; stroke-linecap: square"/>
   </g>
   <g id="patch_3">
    <path d="M 40.656875 306.918437 
L 40.656875 17.798437 
" style="fill: none; stroke: #000000; stroke-width: 0.8; stroke-linejoin: miter; stroke-linecap: square"/>
   </g>
   <g id="patch_4">
    <path d="M 684.556875 306.918437 
L 684.556875 17.798437 
" style="fill: none; stroke: #000000; stroke-width: 0.8; stroke-linejoin: miter; stroke-linecap: square"/>
   </g>
   <g id="patch_5">
    <path d="M 40.656875 306.918437 
L 684.556875 306.918437 
" style="fill: none; stroke: #000000; stroke-width: 0.8; stroke-linejoin: miter; stroke-linecap: square"/>
   </g>
   <g id="patch_6">
    <path d="M 40.656875 17.798437 
L 684.556875 17.798437 
" style="fill: none; stroke: #000000; stroke-width: 0.8; stroke-linejoin: miter; stroke-linecap: square"/>
   </g>
   <g id="legend_1">
    <g id="patch_7">
     <path d="M 695.056875 139.884375 
L 774.788906 139.884375 
Q 777.788906 139.884375 777.788906 136.884375 
L 777.788906 28.298437 
Q 777.788906 25.298437 774.788906 25.298437 
L 695.056875 25.298437 
Q 692.056875 25.298437 692.056875 28.298437 
L 692.056875 136.884375 
Q 692.056875 139.884375 695.056875 139.884375 
z
" style="fill: #ffffff; opacity: 0.8; stroke: #cccccc; stroke-linejoin: miter"/>
    </g>
    <g id="line2d_26">
     <path d="M 698.056875 37.446094 
L 713.056875 37.446094 
L 713.056875 37.446094 
L 728.056875 37.446094 
L 728.056875 37.446094 
" style="fill: none; stroke: #000080; stroke-opacity: 0.75; stroke-width: 2.5; stroke-linecap: square"/>
    </g>
    <g id="text_14">
     <!-- Si II -->
     <g transform="translate(740.056875 42.696094) scale(0.15 -0.15)">
      <defs>
       <path id="DejaVuSans-53" d="M 3425 4513 
L 3425 3897 
Q 3066 4069 2747 4153 
Q 2428 4238 2131 4238 
Q 1616 4238 1336 4038 
Q 1056 3838 1056 3469 
Q 1056 3159 1242 3001 
Q 1428 2844 1947 2747 
L 2328 2669 
Q 3034 2534 3370 2195 
Q 3706 1856 3706 1288 
Q 3706 609 3251 259 
Q 2797 -91 1919 -91 
Q 1588 -91 1214 -16 
Q 841 59 441 206 
L 441 856 
Q 825 641 1194 531 
Q 1563 422 1919 422 
Q 2459 422 2753 634 
Q 3047 847 3047 1241 
Q 3047 1584 2836 1778 
Q 2625 1972 2144 2069 
L 1759 2144 
Q 1053 2284 737 2584 
Q 422 2884 422 3419 
Q 422 4038 858 4394 
Q 1294 4750 2059 4750 
Q 2388 4750 2728 4690 
Q 3069 4631 3425 4513 
z
" transform="scale(0.015625)"/>
      </defs>
      <use xlink:href="#DejaVuSans-53"/>
      <use xlink:href="#DejaVuSans-69" x="63.476562"/>
      <use xlink:href="#DejaVuSans-20" x="91.259766"/>
      <use xlink:href="#DejaVuSans-49" x="123.046875"/>
      <use xlink:href="#DejaVuSans-49" x="152.539062"/>
     </g>
    </g>
    <g id="line2d_27">
     <path d="M 698.056875 59.463281 
L 713.056875 59.463281 
L 713.056875 59.463281 
L 728.056875 59.463281 
L 728.056875 59.463281 
" style="fill: none; stroke: #0080ff; stroke-opacity: 0.75; stroke-width: 2.5; stroke-linecap: square"/>
    </g>
    <g id="text_15">
     <!-- Si III -->
     <g transform="translate(740.056875 64.713281) scale(0.15 -0.15)">
      <use xlink:href="#DejaVuSans-53"/>
      <use xlink:href="#DejaVuSans-69" x="63.476562"/>
      <use xlink:href="#DejaVuSans-20" x="91.259766"/>
      <use xlink:href="#DejaVuSans-49" x="123.046875"/>
      <use xlink:href="#DejaVuSans-49" x="152.539062"/>
      <use xlink:href="#DejaVuSans-49" x="182.03125"/>
     </g>
    </g>
    <g id="line2d_28">
     <path d="M 698.056875 81.480469 
L 713.056875 81.480469 
L 713.056875 81.480469 
L 728.056875 81.480469 
L 728.056875 81.480469 
" style="fill: none; stroke: #7bff7b; stroke-opacity: 0.75; stroke-width: 2.5; stroke-linecap: square"/>
    </g>
    <g id="text_16">
     <!-- Ca -->
     <g transform="translate(740.056875 86.730469) scale(0.15 -0.15)">
      <use xlink:href="#DejaVuSans-43"/>
      <use xlink:href="#DejaVuSans-61" x="69.824219"/>
     </g>
    </g>
    <g id="line2d_29">
     <path d="M 698.056875 103.497656 
L 713.056875 103.497656 
L 713.056875 103.497656 
L 728.056875 103.497656 
L 728.056875 103.497656 
" style="fill: none; stroke: #ff9700; stroke-opacity: 0.75; stroke-width: 2.5; stroke-linecap: square"/>
    </g>
    <g id="text_17">
     <!-- O -->
     <g transform="translate(740.056875 108.747656) scale(0.15 -0.15)">
      <defs>
       <path id="DejaVuSans-4f" d="M 2522 4238 
Q 1834 4238 1429 3725 
Q 1025 3213 1025 2328 
Q 1025 1447 1429 934 
Q 1834 422 2522 422 
Q 3209 422 3611 934 
Q 4013 1447 4013 2328 
Q 4013 3213 3611 3725 
Q 3209 4238 2522 4238 
z
M 2522 4750 
Q 3503 4750 4090 4092 
Q 4678 3434 4678 2328 
Q 4678 1225 4090 567 
Q 3503 -91 2522 -91 
Q 1538 -91 948 565 
Q 359 1222 359 2328 
Q 359 3434 948 4092 
Q 1538 4750 2522 4750 
z
" transform="scale(0.015625)"/>
      </defs>
      <use xlink:href="#DejaVuSans-4f"/>
     </g>
    </g>
    <g id="line2d_30">
     <path d="M 698.056875 125.514844 
L 713.056875 125.514844 
L 713.056875 125.514844 
L 728.056875 125.514844 
L 728.056875 125.514844 
" style="fill: none; stroke: #800000; stroke-opacity: 0.75; stroke-width: 2.5; stroke-linecap: square"/>
    </g>
    <g id="text_18">
     <!-- S -->
     <g transform="translate(740.056875 130.764844) scale(0.15 -0.15)">
      <use xlink:href="#DejaVuSans-53"/>
     </g>
    </g>
   </g>
  </g>
 </g>
 <defs>
  <clipPath id="pb0ac201239">
   <rect x="40.656875" y="17.798437" width="643.9" height="289.12"/>
  </clipPath>
 </defs>
</svg>
